NotoSerifGeorgian.glyphspackage
{
glyphname = "An-oldgeorgian";
layers = (
{
layerId = m001;
shapes = (
{
closed = 1;
nodes = (
(457,-10,o),
(519,58,o),
(519,107,cs),
(519,131,o),
(504,146,o),
(495,146,c),
(495,73,o),
(450,15,o),
(326,15,cs),
(175,15,o),
(78,127,o),
(78,328,cs),
(78,558,o),
(203,697,o),
(424,697,cs),
(465,697,o),
(478,679,o),
(483,649,c),
(501,654,o),
(514,668,o),
(514,685,cs),
(514,711,o),
(495,724,o),
(466,724,cs),
(418,724,o),
(364,713,o),
(302,702,cs),
(255,694,o),
(193,685,o),
(128,685,cs),
(98,685,o),
(85,694,o),
(83,724,c),
(61,720,o),
(50,707,o),
(50,694,cs),
(50,671,o),
(69,660,o),
(100,660,cs),
(138,660,o),
(183,662,o),
(224,667,c),
(124,616,o),
(50,502,o),
(50,328,cs),
(50,111,o),
(158,-10,o),
(327,-10,cs)
);
}
);
width = 573;
},
{
layerId = m002;
shapes = (
{
closed = 1;
nodes = (
(517,-12,o),
(624,22,o),
(624,110,cs),
(624,159,o),
(592,184,o),
(540,184,c),
(540,98,o),
(490,41,o),
(388,41,cs),
(241,41,o),
(183,159,o),
(183,318,cs),
(183,560,o),
(287,669,o),
(424,669,cs),
(500,669,o),
(523,648,o),
(531,596,c),
(572,606,o),
(599,629,o),
(599,659,cs),
(599,704,o),
(566,726,o),
(501,726,cs),
(453,726,o),
(396,711,o),
(341,697,cs),
(291,684,o),
(242,672,o),
(202,672,cs),
(151,672,o),
(129,689,o),
(124,724,c),
(78,713,o),
(55,695,o),
(55,670,cs),
(55,630,o),
(88,611,o),
(134,611,cs),
(182,611,o),
(191,614,o),
(220,624,c),
(131,562,o),
(64,459,o),
(64,318,cs),
(64,117,o),
(189,-12,o),
(388,-12,cs)
);
}
);
width = 658;
},
{
layerId = m004;
shapes = (
{
closed = 1;
nodes = (
(610,-14,o),
(702,46,o),
(702,103,cs),
(702,165,o),
(653,208,o),
(549,208,c),
(549,141,o),
(524,58,o),
(434,58,cs),
(325,58,o),
(274,155,o),
(274,308,cs),
(274,546,o),
(380,632,o),
(474,632,cs),
(529,632,o),
(555,606,o),
(555,537,c),
(628,537,o),
(690,570,o),
(690,632,cs),
(690,689,o),
(646,728,o),
(568,728,cs),
(510,728,o),
(447,711,o),
(392,693,cs),
(330,673,o),
(276,652,o),
(247,652,cs),
(190,652,o),
(170,677,o),
(170,724,c),
(97,724,o),
(50,682,o),
(50,638,cs),
(50,572,o),
(99,549,o),
(145,549,cs),
(164,549,o),
(184,554,o),
(207,564,c),
(112,500,o),
(64,404,o),
(64,279,cs),
(64,111,o),
(202,-14,o),
(435,-14,cs)
);
}
);
width = 740;
},
{
layerId = m005;
shapes = (
{
closed = 1;
nodes = (
(366,-10,o),
(421,43,o),
(421,102,cs),
(421,132,o),
(413,148,o),
(400,148,c),
(400,64,o),
(353,15,o),
(265,15,cs),
(142,15,o),
(83,162,o),
(83,338,cs),
(83,523,o),
(165,698,o),
(329,698,cs),
(356,698,o),
(369,681,o),
(374,651,c),
(392,656,o),
(405,670,o),
(405,687,cs),
(405,713,o),
(386,724,o),
(357,724,cs),
(325,724,o),
(296,714,o),
(259,705,cs),
(228,697,o),
(192,690,o),
(146,690,cs),
(116,690,o),
(103,694,o),
(101,724,c),
(82,720,o),
(69,711,o),
(69,697,cs),
(69,678,o),
(88,667,o),
(111,667,cs),
(133,667,o),
(156,667,o),
(200,677,c),
(102,607,o),
(55,502,o),
(55,338,cs),
(55,137,o),
(128,-10,o),
(265,-10,cs)
);
}
);
width = 460;
},
{
layerId = m006;
shapes = (
{
closed = 1;
nodes = (
(449,-12,o),
(511,47,o),
(511,103,cs),
(511,143,o),
(482,171,o),
(438,171,c),
(438,102,o),
(407,40,o),
(331,40,cs),
(220,40,o),
(168,161,o),
(168,325,cs),
(168,516,o),
(227,668,o),
(370,668,cs),
(410,668,o),
(429,644,o),
(432,596,c),
(467,602,o),
(497,627,o),
(497,661,cs),
(497,703,o),
(467,726,o),
(423,726,cs),
(378,726,o),
(337,713,o),
(298,701,cs),
(259,689,o),
(222,676,o),
(181,676,cs),
(144,676,o),
(130,689,o),
(128,725,c),
(88,718,o),
(63,697,o),
(63,667,cs),
(63,636,o),
(85,613,o),
(123,613,cs),
(143,613,o),
(163,615,o),
(193,627,c),
(109,550,o),
(62,435,o),
(62,310,cs),
(62,128,o),
(163,-12,o),
(332,-12,cs)
);
}
);
width = 552;
},
{
layerId = m008;
shapes = (
{
closed = 1;
nodes = (
(504,-14,o),
(572,49,o),
(572,113,cs),
(572,164,o),
(531,208,o),
(444,208,c),
(444,140,o),
(423,53,o),
(357,53,cs),
(270,53,o),
(227,153,o),
(227,331,cs),
(227,467,o),
(258,632,o),
(371,632,cs),
(411,632,o),
(442,617,o),
(442,567,c),
(503,567,o),
(559,601,o),
(559,653,cs),
(559,695,o),
(525,728,o),
(468,728,cs),
(416,728,o),
(370,713,o),
(328,697,cs),
(284,680,o),
(245,665,o),
(206,665,cs),
(172,665,o),
(158,683,o),
(158,724,c),
(87,724,o),
(45,697,o),
(45,653,cs),
(45,613,o),
(75,590,o),
(113,590,cs),
(153,590,o),
(187,595,o),
(206,601,c),
(105,534,o),
(51,431,o),
(51,308,cs),
(51,133,o),
(152,-14,o),
(356,-14,cs)
);
}
);
width = 606;
}
);
note = uni10A0;
unicode = 4256;
}
{
glyphname = "Ban-oldgeorgian";
kernRight = "Ban-oldgeorgian";
layers = (
{
layerId = m001;
shapes = (
{
closed = 1;
nodes = (
(645,-81,o),
(658,-70,o),
(658,-51,cs),
(658,-6,o),
(631,25,o),
(541,25,cs),
(499,25,l),
(499,624,ls),
(499,685,o),
(509,694,o),
(555,694,cs),
(575,694,l),
(575,714,l),
(392,714,l),
(392,694,l),
(415,694,ls),
(461,694,o),
(471,685,o),
(471,624,cs),
(471,467,ls),
(471,354,o),
(414,263,o),
(267,263,cs),
(148,263,o),
(90,340,o),
(90,477,cs),
(90,619,o),
(148,701,o),
(237,701,c),
(237,707,o),
(235,721,o),
(215,721,cs),
(118,721,o),
(62,608,o),
(62,477,cs),
(62,315,o),
(136,238,o),
(267,238,cs),
(376,238,o),
(437,282,o),
(471,350,c),
(474,350,l),
(472,318,o),
(471,285,o),
(471,253,cs),
(471,0,l),
(534,0,ls),
(606,0,o),
(631,-18,o),
(631,-81,c)
);
}
);
width = 683;
},
{
layerId = m002;
shapes = (
{
closed = 1;
nodes = (
(742,-117,o),
(776,-90,o),
(776,-53,cs),
(776,20,o),
(712,54,o),
(592,54,cs),
(575,54,l),
(575,610,ls),
(575,663,o),
(608,672,o),
(633,672,cs),
(646,672,l),
(646,714,l),
(399,714,l),
(399,672,l),
(412,672,ls),
(437,672,o),
(474,663,o),
(474,610,cs),
(474,476,ls),
(474,365,o),
(419,312,o),
(310,312,cs),
(214,312,o),
(166,372,o),
(166,497,cs),
(166,584,o),
(185,661,o),
(269,679,c),
(269,695,o),
(261,726,o),
(207,726,cs),
(127,726,o),
(55,645,o),
(55,496,cs),
(55,338,o),
(147,258,o),
(298,258,cs),
(384,258,o),
(449,286,o),
(473,329,c),
(478,329,l),
(475,290,o),
(474,262,o),
(474,244,cs),
(474,0,l),
(575,0,ls),
(662,0,o),
(698,-37,o),
(698,-117,c)
);
}
);
width = 804;
},
{
layerId = m003;
shapes = (
{
closed = 1;
nodes = (
(758,-132,o),
(806,-94,o),
(806,-41,cs),
(806,24,o),
(743,62,o),
(636,62,cs),
(613,62,l),
(613,606,ls),
(613,653,o),
(635,661,o),
(664,661,cs),
(686,661,l),
(686,714,l),
(384,714,l),
(384,661,l),
(406,661,ls),
(435,661,o),
(454,653,o),
(454,606,cs),
(454,464,ls),
(454,363,o),
(416,312,o),
(337,312,cs),
(254,312,o),
(218,358,o),
(218,473,cs),
(218,609,o),
(249,661,o),
(317,661,c),
(317,679,o),
(317,722,o),
(259,722,cs),
(141,722,o),
(50,640,o),
(50,473,cs),
(50,315,o),
(131,228,o),
(278,228,cs),
(363,228,o),
(419,251,o),
(456,308,c),
(463,308,l),
(458,247,o),
(455,207,o),
(455,187,cs),
(455,0,l),
(568,0,ls),
(651,0,o),
(686,-34,o),
(686,-132,c)
);
}
);
width = 821;
},
{
layerId = m004;
shapes = (
{
closed = 1;
nodes = (
(887,-151,o),
(932,-105,o),
(932,-40,cs),
(932,44,o),
(870,76,o),
(735,76,cs),
(695,76,l),
(695,599,ls),
(695,636,o),
(709,653,o),
(737,653,cs),
(762,653,l),
(762,714,l),
(429,714,l),
(429,653,l),
(452,653,ls),
(474,653,o),
(495,636,o),
(495,600,cs),
(495,415,ls),
(495,357,o),
(443,288,o),
(362,288,cs),
(272,288,o),
(242,348,o),
(242,469,cs),
(242,597,o),
(272,657,o),
(332,657,c),
(332,677,o),
(332,727,o),
(259,727,cs),
(138,727,o),
(42,635,o),
(42,466,cs),
(42,295,o),
(144,212,o),
(321,212,cs),
(410,212,o),
(456,243,o),
(491,280,c),
(501,280,l),
(496,252,o),
(495,223,o),
(495,191,cs),
(495,0,l),
(677,0,ls),
(756,0,o),
(800,-28,o),
(800,-151,c)
);
}
);
width = 944;
},
{
layerId = m005;
shapes = (
{
closed = 1;
nodes = (
(513,-81,o),
(523,-70,o),
(523,-51,cs),
(523,8,o),
(487,25,o),
(443,25,cs),
(406,25,l),
(406,646,ls),
(406,683,o),
(412,694,o),
(446,694,cs),
(466,694,l),
(466,714,l),
(312,714,l),
(312,694,l),
(332,694,ls),
(362,694,o),
(378,683,o),
(378,646,cs),
(378,399,ls),
(378,332,o),
(316,263,o),
(227,263,cs),
(118,263,o),
(76,337,o),
(76,477,cs),
(76,619,o),
(126,695,o),
(205,695,c),
(205,703,o),
(203,724,o),
(174,718,cs),
(100,703,o),
(48,636,o),
(48,477,cs),
(48,312,o),
(105,238,o),
(225,238,cs),
(283,238,o),
(343,264,o),
(376,330,c),
(380,330,l),
(379,309,o),
(378,289,o),
(378,268,cs),
(378,0,l),
(438,0,ls),
(479,0,o),
(496,-15,o),
(496,-81,c)
);
}
);
width = 533;
},
{
layerId = m006;
shapes = (
{
closed = 1;
nodes = (
(636,-109,o),
(660,-78,o),
(660,-40,cs),
(660,29,o),
(599,51,o),
(525,51,cs),
(496,51,l),
(496,608,ls),
(496,657,o),
(514,669,o),
(539,669,cs),
(561,669,l),
(561,714,l),
(337,714,l),
(337,669,l),
(358,669,ls),
(379,669,o),
(402,657,o),
(402,608,cs),
(402,409,ls),
(402,353,o),
(351,293,o),
(266,293,cs),
(165,293,o),
(135,353,o),
(135,478,cs),
(135,610,o),
(172,668,o),
(234,677,c),
(234,691,o),
(233,722,o),
(195,722,cs),
(115,722,o),
(42,639,o),
(42,478,cs),
(42,314,o),
(120,236,o),
(239,236,cs),
(309,236,o),
(367,261,o),
(401,319,c),
(405,319,l),
(403,296,o),
(402,274,o),
(402,252,cs),
(402,0,l),
(512,0,ls),
(565,0,o),
(592,-23,o),
(592,-109,c)
);
}
);
width = 670;
},
{
layerId = m007;
shapes = (
{
closed = 1;
nodes = (
(706,-126,o),
(738,-90,o),
(738,-41,cs),
(738,33,o),
(664,60,o),
(572,60,cs),
(542,60,l),
(542,601,ls),
(542,649,o),
(557,663,o),
(584,663,cs),
(607,663,l),
(607,714,l),
(342,714,l),
(342,663,l),
(363,663,ls),
(386,663,o),
(406,649,o),
(406,602,cs),
(406,414,ls),
(406,364,o),
(367,303,o),
(286,303,cs),
(197,303,o),
(174,357,o),
(174,479,cs),
(174,607,o),
(202,666,o),
(260,668,c),
(260,686,o),
(256,724,o),
(205,724,cs),
(112,724,o),
(38,640,o),
(38,481,cs),
(38,312,o),
(123,232,o),
(243,232,cs),
(317,232,o),
(370,257,o),
(405,310,c),
(409,310,l),
(407,286,o),
(406,263,o),
(406,240,cs),
(406,0,l),
(545,0,ls),
(613,0,o),
(645,-28,o),
(645,-126,c)
);
}
);
width = 748;
},
{
layerId = m008;
shapes = (
{
closed = 1;
nodes = (
(760,-140,o),
(799,-100,o),
(799,-41,cs),
(799,36,o),
(715,68,o),
(608,68,cs),
(575,68,l),
(575,600,ls),
(575,643,o),
(587,658,o),
(617,658,cs),
(633,658,l),
(633,714,l),
(352,714,l),
(352,658,l),
(366,658,ls),
(390,658,o),
(408,643,o),
(408,601,cs),
(408,418,ls),
(408,372,o),
(379,311,o),
(300,311,cs),
(221,311,o),
(204,360,o),
(204,474,cs),
(204,599,o),
(225,648,o),
(280,658,c),
(280,683,o),
(271,720,o),
(214,720,cs),
(116,720,o),
(34,638,o),
(34,486,cs),
(34,314,o),
(125,230,o),
(247,230,cs),
(324,230,o),
(372,254,o),
(408,302,c),
(412,302,l),
(409,278,o),
(408,254,o),
(408,230,cs),
(408,0,l),
(570,0,ls),
(649,0,o),
(685,-32,o),
(685,-140,c)
);
}
);
width = 809;
}
);
note = uni10A1;
unicode = 4257;
}
{
glyphname = "Gan-oldgeorgian";
kernLeft = "Gan-oldgeorgian";
kernRight = "Ban-oldgeorgian";
layers = (
{
layerId = m001;
shapes = (
{
closed = 1;
nodes = (
(548,25,l),
(548,624,ls),
(548,685,o),
(558,694,o),
(604,694,cs),
(627,694,l),
(627,714,l),
(50,714,l),
(50,694,l),
(73,694,ls),
(119,694,o),
(129,685,o),
(129,624,cs),
(129,446,ls),
(129,385,o),
(119,376,o),
(73,376,cs),
(50,376,l),
(50,356,l),
(157,356,l),
(157,689,l),
(520,689,l),
(520,0,l),
(583,0,ls),
(655,0,o),
(680,-18,o),
(680,-81,c),
(694,-81,o),
(707,-70,o),
(707,-51,cs),
(707,-6,o),
(680,25,o),
(590,25,cs)
);
}
);
width = 732;
},
{
layerId = m002;
shapes = (
{
closed = 1;
nodes = (
(590,54,l),
(590,610,ls),
(590,663,o),
(627,672,o),
(652,672,cs),
(666,672,l),
(666,714,l),
(38,714,l),
(38,672,l),
(52,672,ls),
(77,672,o),
(114,663,o),
(114,610,cs),
(114,428,ls),
(114,375,o),
(77,366,o),
(52,366,cs),
(38,366,l),
(38,324,l),
(214,324,l),
(214,660,l),
(489,660,l),
(489,0,l),
(590,0,ls),
(677,0,o),
(713,-37,o),
(713,-117,c),
(757,-117,o),
(791,-90,o),
(791,-53,cs),
(791,20,o),
(727,54,o),
(607,54,cs)
);
}
);
width = 813;
},
{
layerId = m003;
shapes = (
{
closed = 1;
nodes = (
(668,62,l),
(668,606,ls),
(668,653,o),
(690,661,o),
(719,661,cs),
(742,661,l),
(742,714,l),
(28,714,l),
(28,661,l),
(51,661,ls),
(80,661,o),
(102,653,o),
(102,606,cs),
(102,417,ls),
(102,370,o),
(80,362,o),
(51,362,cs),
(28,362,l),
(28,309,l),
(260,309,l),
(260,643,l),
(510,643,l),
(510,0,l),
(625,0,ls),
(708,0,o),
(743,-34,o),
(743,-132,c),
(815,-132,o),
(863,-94,o),
(863,-41,cs),
(863,24,o),
(800,62,o),
(693,62,cs)
);
}
);
width = 878;
},
{
layerId = m004;
shapes = (
{
closed = 1;
nodes = (
(688,76,l),
(688,599,ls),
(688,636,o),
(702,653,o),
(730,653,cs),
(755,653,l),
(755,714,l),
(21,714,l),
(21,653,l),
(46,653,ls),
(74,653,o),
(88,636,o),
(88,599,cs),
(88,413,ls),
(88,376,o),
(74,359,o),
(46,359,cs),
(21,359,l),
(21,298,l),
(288,298,l),
(288,638,l),
(488,638,l),
(488,0,l),
(670,0,ls),
(749,0,o),
(793,-28,o),
(793,-151,c),
(880,-151,o),
(925,-105,o),
(925,-40,cs),
(925,44,o),
(863,76,o),
(728,76,cs)
);
}
);
width = 937;
},
{
layerId = m005;
shapes = (
{
closed = 1;
nodes = (
(435,25,l),
(435,646,ls),
(435,683,o),
(441,694,o),
(481,694,cs),
(501,694,l),
(501,714,l),
(36,714,l),
(36,694,l),
(56,694,ls),
(96,694,o),
(102,683,o),
(102,646,cs),
(102,426,ls),
(102,389,o),
(96,378,o),
(56,378,cs),
(36,378,l),
(36,358,l),
(130,358,l),
(130,689,l),
(407,689,l),
(407,0,l),
(467,0,ls),
(508,0,o),
(525,-15,o),
(525,-81,c),
(542,-81,o),
(552,-70,o),
(552,-51,cs),
(552,8,o),
(516,25,o),
(472,25,cs)
);
}
);
width = 562;
},
{
layerId = m006;
shapes = (
{
closed = 1;
nodes = (
(514,51,l),
(514,608,ls),
(514,657,o),
(536,669,o),
(559,669,cs),
(580,669,l),
(580,714,l),
(45,714,l),
(45,669,l),
(66,669,ls),
(89,669,o),
(110,657,o),
(110,608,cs),
(110,442,ls),
(110,392,o),
(89,380,o),
(66,380,cs),
(45,380,l),
(45,335,l),
(202,335,l),
(202,659,l),
(422,659,l),
(422,0,l),
(533,0,ls),
(586,0,o),
(614,-23,o),
(614,-109,c),
(657,-109,o),
(681,-78,o),
(681,-40,cs),
(681,29,o),
(620,51,o),
(545,51,cs)
);
}
);
width = 691;
},
{
layerId = m007;
shapes = (
{
closed = 1;
nodes = (
(536,60,l),
(536,602,ls),
(536,649,o),
(555,663,o),
(579,663,cs),
(600,663,l),
(600,714,l),
(21,714,l),
(21,663,l),
(42,663,ls),
(66,663,o),
(85,649,o),
(85,602,cs),
(85,440,ls),
(85,392,o),
(66,378,o),
(42,378,cs),
(21,378,l),
(21,327,l),
(219,327,l),
(219,648,l),
(402,648,l),
(402,0,l),
(541,0,ls),
(609,0,o),
(641,-28,o),
(641,-126,c),
(702,-126,o),
(735,-90,o),
(735,-41,cs),
(735,33,o),
(661,60,o),
(568,60,cs)
);
}
);
width = 745;
},
{
layerId = m008;
shapes = (
{
closed = 1;
nodes = (
(564,68,l),
(564,600,ls),
(564,643,o),
(576,658,o),
(606,658,cs),
(622,658,l),
(622,714,l),
(18,714,l),
(18,658,l),
(34,658,ls),
(64,658,o),
(76,643,o),
(76,600,cs),
(76,433,ls),
(76,390,o),
(64,375,o),
(34,375,cs),
(18,375,l),
(18,319,l),
(243,319,l),
(243,640,l),
(397,640,l),
(397,0,l),
(559,0,ls),
(638,0,o),
(674,-32,o),
(674,-140,c),
(749,-140,o),
(788,-100,o),
(788,-41,cs),
(788,36,o),
(704,68,o),
(597,68,cs)
);
}
);
width = 798;
}
);
note = uni10A2;
unicode = 4258;
}
{
glyphname = "Don-oldgeorgian";
layers = (
{
layerId = m001;
shapes = (
{
closed = 1;
nodes = (
(545,-10,o),
(627,111,o),
(627,298,cs),
(627,488,o),
(550,601,o),
(355,605,c),
(355,676,l),
(420,689,o),
(471,699,o),
(503,699,cs),
(549,699,o),
(562,679,o),
(565,649,c),
(582,651,o),
(597,668,o),
(597,685,cs),
(597,711,o),
(578,724,o),
(542,724,cs),
(500,724,o),
(444,715,o),
(361,698,cs),
(277,681,o),
(202,671,o),
(167,671,cs),
(137,671,o),
(124,684,o),
(122,714,c),
(102,710,o),
(89,697,o),
(89,683,cs),
(89,660,o),
(108,646,o),
(139,646,cs),
(181,646,o),
(243,656,o),
(330,671,c),
(330,605,l),
(152,599,o),
(58,487,o),
(58,299,cs),
(58,103,o),
(153,-10,o),
(343,-10,cs)
);
},
{
closed = 1;
nodes = (
(172,15,o),
(86,121,o),
(86,298,cs),
(86,475,o),
(172,580,o),
(344,580,cs),
(530,580,o),
(599,475,o),
(599,298,cs),
(599,122,o),
(524,15,o),
(343,15,cs)
);
}
);
width = 686;
},
{
layerId = m002;
shapes = (
{
closed = 1;
nodes = (
(568,-10,o),
(685,102,o),
(685,280,cs),
(685,441,o),
(585,544,o),
(418,560,c),
(418,649,l),
(468,661,o),
(507,666,o),
(536,666,cs),
(583,666,o),
(606,647,o),
(614,596,c),
(655,606,o),
(682,629,o),
(682,659,cs),
(682,704,o),
(649,726,o),
(584,726,cs),
(554,726,o),
(480,716,o),
(378,692,cs),
(307,675,o),
(263,672,o),
(205,672,cs),
(154,672,o),
(132,689,o),
(127,724,c),
(81,713,o),
(58,695,o),
(58,670,cs),
(58,630,o),
(91,611,o),
(157,611,cs),
(195,611,o),
(250,617,o),
(323,630,c),
(323,560,l),
(152,545,o),
(56,445,o),
(56,281,cs),
(56,95,o),
(170,-10,o),
(371,-10,cs)
);
},
{
closed = 1;
nodes = (
(233,44,o),
(167,118,o),
(167,280,cs),
(167,442,o),
(234,515,o),
(372,515,cs),
(508,515,o),
(574,442,o),
(574,280,cs),
(574,118,o),
(509,44,o),
(371,44,cs)
);
}
);
width = 743;
},
{
layerId = m003;
shapes = (
{
closed = 1;
nodes = (
(592,-13,o),
(732,93,o),
(732,282,cs),
(732,441,o),
(631,546,o),
(452,566,c),
(452,641,l),
(496,653,o),
(532,659,o),
(561,659,cs),
(604,659,o),
(627,634,o),
(627,597,c),
(700,597,o),
(737,618,o),
(737,659,cs),
(737,699,o),
(690,727,o),
(620,727,cs),
(552,727,o),
(481,706,o),
(410,687,cs),
(337,668,o),
(283,662,o),
(227,662,cs),
(181,662,o),
(160,687,o),
(160,724,c),
(86,724,o),
(50,703,o),
(50,661,cs),
(50,622,o),
(94,594,o),
(167,594,cs),
(227,594,o),
(283,602,o),
(335,613,c),
(335,566,l),
(153,547,o),
(55,447,o),
(55,283,cs),
(55,89,o),
(191,-13,o),
(394,-13,cs)
);
},
{
closed = 1;
nodes = (
(280,52,o),
(223,128,o),
(223,282,cs),
(223,436,o),
(280,509,o),
(395,509,cs),
(509,509,o),
(564,437,o),
(564,282,cs),
(564,127,o),
(508,52,o),
(394,52,cs)
);
}
);
width = 787;
},
{
layerId = m004;
shapes = (
{
closed = 1;
nodes = (
(639,-14,o),
(766,96,o),
(766,265,cs),
(766,413,o),
(665,516,o),
(481,536,c),
(481,622,l),
(504,626,o),
(525,627,o),
(544,628,cs),
(599,631,o),
(625,606,o),
(625,537,c),
(698,537,o),
(760,570,o),
(760,632,cs),
(760,689,o),
(716,728,o),
(648,728,cs),
(575,728,o),
(511,698,o),
(448,682,cs),
(364,661,o),
(311,652,o),
(257,652,cs),
(200,652,o),
(180,677,o),
(180,724,c),
(107,724,o),
(60,682,o),
(60,638,cs),
(60,572,o),
(109,549,o),
(155,549,cs),
(191,549,o),
(230,555,o),
(346,588,c),
(346,537,l),
(150,519,o),
(54,415,o),
(54,266,cs),
(54,96,o),
(171,-14,o),
(411,-14,cs)
);
},
{
closed = 1;
nodes = (
(304,59,o),
(264,134,o),
(264,265,cs),
(264,393,o),
(304,467,o),
(412,467,cs),
(518,467,o),
(556,393,o),
(556,265,cs),
(556,134,o),
(518,59,o),
(411,59,cs)
);
}
);
width = 820;
},
{
layerId = m005;
shapes = (
{
closed = 1;
nodes = (
(404,-10,o),
(485,103,o),
(485,298,cs),
(485,503,o),
(418,599,o),
(278,605,c),
(278,680,l),
(313,687,o),
(361,696,o),
(396,696,cs),
(424,696,o),
(437,682,o),
(442,649,c),
(459,656,o),
(471,668,o),
(471,685,cs),
(471,711,o),
(452,724,o),
(415,724,cs),
(387,724,o),
(345,715,o),
(290,704,cs),
(227,691,o),
(169,684,o),
(144,684,cs),
(114,684,o),
(91,694,o),
(89,724,c),
(69,718,o),
(59,707,o),
(59,693,cs),
(59,670,o),
(78,659,o),
(116,659,cs),
(161,659,o),
(202,666,o),
(253,675,c),
(253,605,l),
(114,599,o),
(44,492,o),
(44,299,cs),
(44,113,o),
(116,-10,o),
(264,-10,cs)
);
},
{
closed = 1;
nodes = (
(137,15,o),
(72,129,o),
(72,298,cs),
(72,476,o),
(131,580,o),
(265,580,cs),
(406,580,o),
(457,476,o),
(457,298,cs),
(457,123,o),
(392,15,o),
(264,15,cs)
);
}
);
width = 530;
},
{
layerId = m006;
shapes = (
{
closed = 1;
nodes = (
(465,-12,o),
(552,105,o),
(552,282,cs),
(552,447,o),
(475,557,o),
(336,573,c),
(336,652,l),
(369,661,o),
(397,666,o),
(411,666,cs),
(447,666,o),
(472,650,o),
(473,591,c),
(509,599,o),
(544,622,o),
(544,657,cs),
(544,702,o),
(512,726,o),
(459,726,cs),
(423,726,o),
(377,708,o),
(310,688,cs),
(259,673,o),
(217,670,o),
(185,670,cs),
(150,670,o),
(134,688,o),
(131,724,c),
(91,716,o),
(65,694,o),
(65,667,cs),
(65,630,o),
(88,606,o),
(140,606,cs),
(161,606,o),
(207,615,o),
(263,633,c),
(263,573,l),
(123,557,o),
(44,447,o),
(44,283,cs),
(44,105,o),
(127,-12,o),
(297,-12,cs)
);
},
{
closed = 1;
nodes = (
(189,41,o),
(144,129,o),
(144,282,cs),
(144,434,o),
(189,522,o),
(298,522,cs),
(411,522,o),
(452,434,o),
(452,282,cs),
(452,129,o),
(411,41,o),
(297,41,cs)
);
}
);
width = 597;
},
{
layerId = m007;
shapes = (
{
closed = 1;
nodes = (
(503,-13,o),
(601,103,o),
(601,281,cs),
(601,441,o),
(520,550,o),
(373,568,c),
(373,644,l),
(400,650,o),
(424,655,o),
(439,655,cs),
(484,655,o),
(506,637,o),
(506,583,c),
(556,586,o),
(603,610,o),
(603,655,cs),
(603,698,o),
(570,727,o),
(515,727,cs),
(470,727,o),
(416,709,o),
(353,690,cs),
(298,673,o),
(248,667,o),
(214,667,cs),
(174,667,o),
(154,685,o),
(152,724,c),
(95,720,o),
(60,693,o),
(60,662,cs),
(60,626,o),
(77,597,o),
(144,597,cs),
(167,597,o),
(222,605,o),
(276,620,c),
(276,569,l),
(123,551,o),
(45,442,o),
(45,282,cs),
(45,103,o),
(136,-13,o),
(323,-13,cs)
);
},
{
closed = 1;
nodes = (
(226,48,o),
(187,133,o),
(187,281,cs),
(187,426,o),
(226,510,o),
(324,510,cs),
(423,510,o),
(459,426,o),
(459,281,cs),
(459,133,o),
(423,48,o),
(323,48,cs)
);
}
);
width = 646;
},
{
layerId = m008;
shapes = (
{
closed = 1;
nodes = (
(533,-14,o),
(639,102,o),
(639,280,cs),
(639,437,o),
(554,545,o),
(401,566,c),
(401,638,l),
(424,642,o),
(444,647,o),
(461,647,cs),
(514,647,o),
(532,627,o),
(532,577,c),
(593,577,o),
(649,601,o),
(649,653,cs),
(649,695,o),
(615,728,o),
(558,728,cs),
(507,728,o),
(447,712,o),
(387,692,cs),
(328,672,o),
(272,665,o),
(235,665,cs),
(192,665,o),
(168,683,o),
(168,724,c),
(97,724,o),
(55,692,o),
(55,658,cs),
(55,624,o),
(69,590,o),
(146,590,cs),
(171,590,o),
(233,597,o),
(286,610,c),
(286,567,l),
(123,546,o),
(45,438,o),
(45,281,cs),
(45,102,o),
(142,-14,o),
(343,-14,cs)
);
},
{
closed = 1;
nodes = (
(254,54,o),
(221,136,o),
(221,280,cs),
(221,420,o),
(254,502,o),
(344,502,cs),
(432,502,o),
(464,420,o),
(464,280,cs),
(464,136,o),
(432,54,o),
(343,54,cs)
);
}
);
width = 684;
}
);
note = uni10A3;
unicode = 4259;
}
{
glyphname = "En-oldgeorgian";
kernLeft = "Gan-oldgeorgian";
layers = (
{
layerId = m001;
shapes = (
{
closed = 1;
nodes = (
(548,0,l),
(548,624,ls),
(548,685,o),
(558,694,o),
(604,694,cs),
(627,694,l),
(627,714,l),
(50,714,l),
(50,694,l),
(73,694,ls),
(119,694,o),
(129,685,o),
(129,624,cs),
(129,446,ls),
(129,385,o),
(119,376,o),
(73,376,cs),
(50,376,l),
(50,356,l),
(157,356,l),
(157,689,l),
(520,689,l),
(520,0,l)
);
}
);
width = 677;
},
{
layerId = m002;
shapes = (
{
closed = 1;
nodes = (
(590,0,l),
(590,610,ls),
(590,663,o),
(627,672,o),
(652,672,cs),
(666,672,l),
(666,714,l),
(38,714,l),
(38,672,l),
(52,672,ls),
(77,672,o),
(114,663,o),
(114,610,cs),
(114,428,ls),
(114,375,o),
(77,366,o),
(52,366,cs),
(38,366,l),
(38,324,l),
(214,324,l),
(214,660,l),
(489,660,l),
(489,0,l)
);
}
);
width = 706;
},
{
layerId = m003;
shapes = (
{
closed = 1;
nodes = (
(668,0,l),
(668,606,ls),
(668,653,o),
(690,661,o),
(719,661,cs),
(742,661,l),
(742,714,l),
(28,714,l),
(28,661,l),
(51,661,ls),
(80,661,o),
(102,653,o),
(102,606,cs),
(102,417,ls),
(102,370,o),
(80,362,o),
(51,362,cs),
(28,362,l),
(28,309,l),
(260,309,l),
(260,643,l),
(510,643,l),
(510,0,l)
);
}
);
width = 770;
},
{
layerId = m004;
shapes = (
{
closed = 1;
nodes = (
(688,0,l),
(688,599,ls),
(688,636,o),
(702,653,o),
(730,653,cs),
(755,653,l),
(755,714,l),
(21,714,l),
(21,653,l),
(46,653,ls),
(74,653,o),
(88,636,o),
(88,599,cs),
(88,413,ls),
(88,376,o),
(74,359,o),
(46,359,cs),
(21,359,l),
(21,298,l),
(288,298,l),
(288,638,l),
(488,638,l),
(488,0,l)
);
}
);
width = 786;
},
{
layerId = m005;
shapes = (
{
closed = 1;
nodes = (
(435,0,l),
(435,646,ls),
(435,683,o),
(441,694,o),
(481,694,cs),
(501,694,l),
(501,714,l),
(36,714,l),
(36,694,l),
(56,694,ls),
(96,694,o),
(102,683,o),
(102,646,cs),
(102,426,ls),
(102,389,o),
(96,378,o),
(56,378,cs),
(36,378,l),
(36,358,l),
(130,358,l),
(130,689,l),
(407,689,l),
(407,0,l)
);
}
);
width = 537;
},
{
layerId = m006;
shapes = (
{
closed = 1;
nodes = (
(514,0,l),
(514,608,ls),
(514,657,o),
(536,669,o),
(559,669,cs),
(580,669,l),
(580,714,l),
(45,714,l),
(45,669,l),
(66,669,ls),
(89,669,o),
(110,657,o),
(110,608,cs),
(110,442,ls),
(110,392,o),
(89,380,o),
(66,380,cs),
(45,380,l),
(45,335,l),
(202,335,l),
(202,659,l),
(422,659,l),
(422,0,l)
);
}
);
width = 615;
},
{
layerId = m007;
shapes = (
{
closed = 1;
nodes = (
(536,0,l),
(536,602,ls),
(536,649,o),
(555,663,o),
(579,663,cs),
(600,663,l),
(600,714,l),
(21,714,l),
(21,663,l),
(42,663,ls),
(66,663,o),
(85,649,o),
(85,602,cs),
(85,440,ls),
(85,392,o),
(66,378,o),
(42,378,cs),
(21,378,l),
(21,327,l),
(219,327,l),
(219,648,l),
(402,648,l),
(402,0,l)
);
}
);
width = 621;
},
{
layerId = m008;
shapes = (
{
closed = 1;
nodes = (
(564,0,l),
(564,600,ls),
(564,643,o),
(576,658,o),
(606,658,cs),
(622,658,l),
(622,714,l),
(18,714,l),
(18,658,l),
(34,658,ls),
(64,658,o),
(76,643,o),
(76,600,cs),
(76,433,ls),
(76,390,o),
(64,375,o),
(34,375,cs),
(18,375,l),
(18,319,l),
(243,319,l),
(243,640,l),
(397,640,l),
(397,0,l)
);
}
);
width = 640;
}
);
note = uni10A4;
unicode = 4260;
}
{
glyphname = "Vin-oldgeorgian";
kernLeft = "Gan-oldgeorgian";
kernRight = "Vin-oldgeorgian";
layers = (
{
layerId = m001;
shapes = (
{
closed = 1;
nodes = (
(548,365,l),
(548,624,ls),
(548,685,o),
(558,694,o),
(604,694,cs),
(627,694,l),
(627,714,l),
(50,714,l),
(50,694,l),
(73,694,ls),
(119,694,o),
(129,685,o),
(129,624,cs),
(129,446,ls),
(129,385,o),
(119,376,o),
(73,376,cs),
(50,376,l),
(50,356,l),
(157,356,l),
(157,689,l),
(520,689,l),
(520,0,l),
(548,0,l),
(548,340,l),
(583,340,ls),
(659,340,o),
(680,324,o),
(680,259,c),
(697,260,o),
(707,271,o),
(707,289,cs),
(707,334,o),
(680,365,o),
(587,365,cs)
);
}
);
width = 732;
},
{
layerId = m002;
shapes = (
{
closed = 1;
nodes = (
(590,409,l),
(590,610,ls),
(590,663,o),
(627,672,o),
(652,672,cs),
(666,672,l),
(666,714,l),
(38,714,l),
(38,672,l),
(52,672,ls),
(77,672,o),
(114,663,o),
(114,610,cs),
(114,428,ls),
(114,375,o),
(77,366,o),
(52,366,cs),
(38,366,l),
(38,324,l),
(214,324,l),
(214,660,l),
(489,660,l),
(489,0,l),
(590,0,l),
(590,355,l),
(598,355,ls),
(680,355,o),
(713,313,o),
(713,217,c),
(761,217,o),
(791,242,o),
(791,286,cs),
(791,370,o),
(729,409,o),
(642,409,cs)
);
}
);
width = 813;
},
{
layerId = m003;
shapes = (
{
closed = 1;
nodes = (
(668,414,l),
(668,606,ls),
(668,653,o),
(690,661,o),
(719,661,cs),
(742,661,l),
(742,714,l),
(28,714,l),
(28,661,l),
(51,661,ls),
(80,661,o),
(102,653,o),
(102,606,cs),
(102,417,ls),
(102,370,o),
(80,362,o),
(51,362,cs),
(28,362,l),
(28,309,l),
(260,309,l),
(260,643,l),
(510,643,l),
(510,0,l),
(668,0,l),
(668,352,l),
(682,352,ls),
(749,352,o),
(773,323,o),
(773,220,c),
(848,220,o),
(893,260,o),
(893,318,cs),
(893,385,o),
(812,414,o),
(716,414,cs)
);
}
);
width = 908;
},
{
layerId = m004;
shapes = (
{
closed = 1;
nodes = (
(688,416,l),
(688,599,ls),
(688,636,o),
(702,653,o),
(730,653,cs),
(755,653,l),
(755,714,l),
(21,714,l),
(21,653,l),
(46,653,ls),
(74,653,o),
(88,636,o),
(88,599,cs),
(88,413,ls),
(88,376,o),
(74,359,o),
(46,359,cs),
(21,359,l),
(21,298,l),
(288,298,l),
(288,638,l),
(488,638,l),
(488,0,l),
(688,0,l),
(688,340,l),
(713,340,ls),
(759,340,o),
(793,312,o),
(793,189,c),
(880,189,o),
(925,235,o),
(925,300,cs),
(925,384,o),
(863,416,o),
(728,416,cs)
);
}
);
width = 937;
},
{
layerId = m005;
shapes = (
{
closed = 1;
nodes = (
(435,385,l),
(435,646,ls),
(435,683,o),
(441,694,o),
(481,694,cs),
(501,694,l),
(501,714,l),
(36,714,l),
(36,694,l),
(56,694,ls),
(96,694,o),
(102,683,o),
(102,646,cs),
(102,426,ls),
(102,389,o),
(96,378,o),
(56,378,cs),
(36,378,l),
(36,358,l),
(130,358,l),
(130,689,l),
(407,689,l),
(407,0,l),
(435,0,l),
(435,360,l),
(467,360,ls),
(508,360,o),
(525,345,o),
(525,279,c),
(542,279,o),
(552,290,o),
(552,309,cs),
(552,368,o),
(516,385,o),
(472,385,cs)
);
}
);
width = 562;
},
{
layerId = m006;
shapes = (
{
closed = 1;
nodes = (
(494,411,l),
(494,608,ls),
(494,657,o),
(516,669,o),
(539,669,cs),
(560,669,l),
(560,714,l),
(25,714,l),
(25,669,l),
(46,669,ls),
(69,669,o),
(90,657,o),
(90,608,cs),
(90,442,ls),
(90,392,o),
(69,380,o),
(46,380,cs),
(25,380,l),
(25,335,l),
(182,335,l),
(182,659,l),
(402,659,l),
(402,0,l),
(494,0,l),
(494,360,l),
(519,360,ls),
(566,360,o),
(594,337,o),
(594,251,c),
(637,251,o),
(661,282,o),
(661,320,cs),
(661,389,o),
(600,411,o),
(519,411,cs)
);
}
);
width = 671;
},
{
layerId = m007;
shapes = (
{
closed = 1;
nodes = (
(536,420,l),
(536,602,ls),
(536,649,o),
(555,663,o),
(579,663,cs),
(600,663,l),
(600,714,l),
(21,714,l),
(21,663,l),
(42,663,ls),
(66,663,o),
(85,649,o),
(85,602,cs),
(85,440,ls),
(85,392,o),
(66,378,o),
(42,378,cs),
(21,378,l),
(21,327,l),
(219,327,l),
(219,648,l),
(402,648,l),
(402,0,l),
(536,0,l),
(536,360,l),
(557,360,ls),
(609,360,o),
(641,332,o),
(641,234,c),
(702,234,o),
(735,270,o),
(735,319,cs),
(735,393,o),
(661,420,o),
(552,420,cs)
);
}
);
width = 745;
},
{
layerId = m008;
shapes = (
{
closed = 1;
nodes = (
(564,428,l),
(564,600,ls),
(564,643,o),
(576,658,o),
(606,658,cs),
(622,658,l),
(622,714,l),
(18,714,l),
(18,658,l),
(34,658,ls),
(64,658,o),
(76,643,o),
(76,600,cs),
(76,433,ls),
(76,390,o),
(64,375,o),
(34,375,cs),
(18,375,l),
(18,319,l),
(243,319,l),
(243,640,l),
(397,640,l),
(397,0,l),
(564,0,l),
(564,360,l),
(582,360,ls),
(638,360,o),
(674,328,o),
(674,220,c),
(749,220,o),
(788,260,o),
(788,319,cs),
(788,396,o),
(704,428,o),
(573,428,cs)
);
}
);
width = 798;
}
);
note = uni10A5;
unicode = 4261;
}
{
glyphname = "Zen-oldgeorgian";
kernLeft = "Zen-oldgeorgian";
layers = (
{
layerId = m001;
shapes = (
{
closed = 1;
nodes = (
(581,-10,o),
(668,82,o),
(668,264,cs),
(668,459,o),
(594,542,o),
(454,542,cs),
(350,542,o),
(294,495,o),
(260,417,c),
(257,417,l),
(259,449,o),
(260,482,o),
(260,524,cs),
(260,714,l),
(24,714,l),
(24,689,l),
(232,689,l),
(232,256,ls),
(232,88,o),
(292,-10,o),
(449,-10,cs)
);
},
{
closed = 1;
nodes = (
(310,15,o),
(260,102,o),
(260,269,cs),
(260,437,o),
(325,517,o),
(448,517,cs),
(582,517,o),
(640,441,o),
(640,264,cs),
(640,111,o),
(578,15,o),
(449,15,cs)
);
}
);
width = 722;
},
{
layerId = m002;
shapes = (
{
closed = 1;
nodes = (
(577,-12,o),
(673,93,o),
(673,269,cs),
(673,445,o),
(581,546,o),
(427,546,cs),
(369,546,o),
(319,520,o),
(290,480,c),
(285,480,l),
(288,518,o),
(289,546,o),
(289,565,cs),
(289,714,l),
(20,714,l),
(20,660,l),
(188,660,l),
(188,269,ls),
(188,96,o),
(279,-12,o),
(424,-12,cs)
);
},
{
closed = 1;
nodes = (
(332,40,o),
(289,111,o),
(289,269,cs),
(289,412,o),
(335,494,o),
(425,494,cs),
(521,494,o),
(562,426,o),
(562,269,cs),
(562,112,o),
(520,40,o),
(426,40,cs)
);
}
);
width = 734;
},
{
layerId = m004;
shapes = (
{
closed = 1;
nodes = (
(732,-14,o),
(824,95,o),
(824,286,cs),
(824,454,o),
(749,550,o),
(594,550,cs),
(518,550,o),
(476,526,o),
(445,483,c),
(435,483,l),
(440,511,o),
(441,540,o),
(441,572,cs),
(441,714,l),
(10,714,l),
(10,645,l),
(241,645,l),
(241,271,ls),
(241,75,o),
(345,-14,o),
(517,-14,cs)
);
},
{
closed = 1;
nodes = (
(462,53,o),
(441,97,o),
(441,266,cs),
(441,404,o),
(471,454,o),
(527,454,cs),
(579,454,o),
(610,409,o),
(610,261,cs),
(610,113,o),
(574,53,o),
(517,53,cs)
);
}
);
width = 849;
},
{
layerId = m005;
shapes = (
{
closed = 1;
nodes = (
(430,-10,o),
(481,100,o),
(481,266,cs),
(481,455,o),
(430,546,o),
(318,546,cs),
(257,546,o),
(213,514,o),
(183,435,c),
(179,435,l),
(180,456,o),
(181,476,o),
(181,497,cs),
(181,714,l),
(18,714,l),
(18,689,l),
(153,689,l),
(153,259,ls),
(153,91,o),
(189,-10,o),
(307,-10,cs)
);
},
{
closed = 1;
nodes = (
(208,15,o),
(181,104,o),
(181,263,cs),
(181,445,o),
(228,521,o),
(316,521,cs),
(413,521,o),
(453,441,o),
(453,266,cs),
(453,125,o),
(418,15,o),
(307,15,cs)
);
}
);
width = 527;
},
{
layerId = m006;
shapes = (
{
closed = 1;
nodes = (
(493,-12,o),
(556,106,o),
(556,272,cs),
(556,448,o),
(497,548,o),
(380,548,cs),
(324,548,o),
(284,526,o),
(252,466,c),
(248,466,l),
(251,488,o),
(252,509,o),
(252,531,cs),
(252,714,l),
(14,714,l),
(14,665,l),
(159,665,l),
(159,264,ls),
(159,62,o),
(219,-12,o),
(356,-12,cs)
);
},
{
closed = 1;
nodes = (
(276,33,o),
(252,102,o),
(252,266,cs),
(252,431,o),
(287,491,o),
(357,491,cs),
(420,491,o),
(458,438,o),
(458,261,cs),
(458,108,o),
(425,33,o),
(352,33,cs)
);
}
);
width = 586;
},
{
layerId = m008;
shapes = (
{
closed = 1;
nodes = (
(571,-14,o),
(648,94,o),
(648,282,cs),
(648,452,o),
(586,550,o),
(468,550,cs),
(412,550,o),
(378,536,o),
(342,478,c),
(338,478,l),
(341,502,o),
(342,526,o),
(342,550,cs),
(342,714,l),
(10,714,l),
(10,650,l),
(175,650,l),
(175,269,ls),
(175,88,o),
(230,-14,o),
(407,-14,cs)
);
},
{
closed = 1;
nodes = (
(362,48,o),
(342,97,o),
(342,281,cs),
(342,397,o),
(363,464,o),
(402,464,cs),
(444,464,o),
(469,440,o),
(469,268,cs),
(469,102,o),
(439,48,o),
(402,48,cs)
);
}
);
width = 672;
}
);
note = uni10A6;
unicode = 4262;
}
{
glyphname = "Tan-oldgeorgian";
kernLeft = "On-oldgeorgian";
kernRight = "Vin-oldgeorgian";
layers = (
{
layerId = m001;
shapes = (
{
closed = 1;
nodes = (
(528,365,l),
(528,606,ls),
(528,683,o),
(534,694,o),
(584,694,cs),
(627,694,l),
(627,714,l),
(362,714,ls),
(163,714,o),
(61,569,o),
(61,342,cs),
(61,123,o),
(154,0,o),
(358,0,cs),
(627,0,l),
(627,20,l),
(584,20,ls),
(534,20,o),
(528,31,o),
(528,108,cs),
(528,340,l),
(563,340,ls),
(639,340,o),
(660,324,o),
(660,259,c),
(679,259,o),
(687,270,o),
(687,289,cs),
(687,335,o),
(660,365,o),
(570,365,cs)
);
},
{
closed = 1;
nodes = (
(372,25,ls),
(172,25,o),
(89,132,o),
(89,342,cs),
(89,552,o),
(174,689,o),
(371,689,cs),
(500,689,l),
(500,25,l)
);
}
);
width = 712;
},
{
layerId = m002;
shapes = (
{
closed = 1;
nodes = (
(594,409,l),
(594,604,ls),
(594,663,o),
(632,672,o),
(676,672,cs),
(689,672,l),
(689,714,l),
(383,714,ls),
(177,714,o),
(57,585,o),
(57,358,cs),
(57,139,o),
(166,0,o),
(383,0,cs),
(689,0,l),
(689,42,l),
(676,42,ls),
(631,42,o),
(594,51,o),
(594,114,cs),
(594,355,l),
(602,355,ls),
(684,355,o),
(717,313,o),
(717,217,c),
(765,217,o),
(795,242,o),
(795,286,cs),
(795,370,o),
(732,409,o),
(637,409,cs)
);
},
{
closed = 1;
nodes = (
(406,51,ls),
(247,51,o),
(168,160,o),
(168,358,cs),
(168,556,o),
(247,664,o),
(405,664,cs),
(493,664,l),
(493,51,l)
);
}
);
width = 815;
},
{
layerId = m003;
shapes = (
{
closed = 1;
nodes = (
(646,414,l),
(646,600,ls),
(646,653,o),
(669,661,o),
(697,661,cs),
(739,661,l),
(739,714,l),
(409,714,ls),
(188,714,o),
(55,597,o),
(55,370,cs),
(55,151,o),
(176,0,o),
(409,0,cs),
(739,0,l),
(739,53,l),
(697,53,ls),
(668,53,o),
(646,61,o),
(646,118,cs),
(646,352,l),
(651,352,ls),
(718,352,o),
(751,323,o),
(751,220,c),
(820,220,o),
(871,257,o),
(871,304,cs),
(871,376,o),
(810,414,o),
(701,414,cs)
);
},
{
closed = 1;
nodes = (
(432,62,ls),
(295,62,o),
(224,179,o),
(224,370,cs),
(224,561,o),
(295,653,o),
(431,653,cs),
(488,653,l),
(488,62,l)
);
}
);
width = 886;
},
{
layerId = m004;
shapes = (
{
closed = 1;
nodes = (
(683,416,l),
(683,599,ls),
(683,636,o),
(702,653,o),
(730,653,cs),
(775,653,l),
(775,714,l),
(427,714,ls),
(195,714,o),
(53,606,o),
(53,379,cs),
(53,160,o),
(183,0,o),
(427,0,cs),
(775,0,l),
(775,61,l),
(722,61,ls),
(698,61,o),
(683,85,o),
(683,115,cs),
(683,340,l),
(708,340,ls),
(754,340,o),
(788,312,o),
(788,189,c),
(875,189,o),
(920,235,o),
(920,300,cs),
(920,384,o),
(858,416,o),
(723,416,cs)
);
},
{
closed = 1;
nodes = (
(451,70,ls),
(330,70,o),
(265,193,o),
(265,379,cs),
(265,565,o),
(330,645,o),
(450,645,cs),
(484,645,l),
(484,70,l)
);
}
);
width = 932;
},
{
layerId = m005;
shapes = (
{
closed = 1;
nodes = (
(432,385,l),
(432,609,ls),
(432,686,o),
(440,694,o),
(493,694,cs),
(506,694,l),
(506,714,l),
(307,714,ls),
(147,714,o),
(65,576,o),
(65,343,cs),
(65,124,o),
(139,0,o),
(308,0,cs),
(506,0,l),
(506,20,l),
(494,20,ls),
(440,20,o),
(432,27,o),
(432,110,cs),
(432,360,l),
(464,360,ls),
(505,360,o),
(522,345,o),
(522,279,c),
(539,279,o),
(549,290,o),
(549,309,cs),
(549,368,o),
(513,385,o),
(469,385,cs)
);
},
{
closed = 1;
nodes = (
(308,25,ls),
(164,25,o),
(93,128,o),
(93,343,cs),
(93,557,o),
(164,689,o),
(307,689,cs),
(404,689,l),
(404,25,l)
);
}
);
width = 559;
},
{
layerId = m006;
shapes = (
{
closed = 1;
nodes = (
(504,407,l),
(504,605,ls),
(504,662,o),
(521,674,o),
(558,674,cs),
(579,674,l),
(579,714,l),
(331,714,ls),
(160,714,o),
(59,586,o),
(59,358,cs),
(59,139,o),
(150,0,o),
(331,0,cs),
(579,0,l),
(579,40,l),
(554,40,ls),
(520,40,o),
(504,54,o),
(504,112,cs),
(504,360,l),
(529,360,ls),
(575,360,o),
(601,338,o),
(601,255,c),
(641,255,o),
(663,282,o),
(663,317,cs),
(663,385,o),
(606,407,o),
(529,407,cs)
);
},
{
closed = 1;
nodes = (
(345,48,ls),
(224,48,o),
(163,158,o),
(163,358,cs),
(163,558,o),
(224,667,o),
(344,667,cs),
(407,667,l),
(407,48,l)
);
}
);
width = 672;
},
{
layerId = m007;
shapes = (
{
closed = 1;
nodes = (
(551,420,l),
(551,603,ls),
(551,649,o),
(569,663,o),
(597,663,cs),
(627,663,l),
(627,714,l),
(351,714,ls),
(167,714,o),
(55,595,o),
(55,368,cs),
(55,149,o),
(157,0,o),
(351,0,cs),
(627,0,l),
(627,51,l),
(592,51,ls),
(567,51,o),
(551,69,o),
(551,113,cs),
(551,360,l),
(572,360,ls),
(624,360,o),
(656,332,o),
(656,234,c),
(717,234,o),
(750,270,o),
(750,319,cs),
(750,393,o),
(676,420,o),
(567,420,cs)
);
},
{
closed = 1;
nodes = (
(370,60,ls),
(263,60,o),
(207,176,o),
(207,368,cs),
(207,561,o),
(263,655,o),
(370,655,cs),
(409,655,l),
(409,60,l)
);
}
);
width = 760;
},
{
layerId = m008;
shapes = (
{
closed = 1;
nodes = (
(580,428,l),
(580,601,ls),
(580,643,o),
(595,658,o),
(619,658,cs),
(656,658,l),
(656,714,l),
(366,714,ls),
(173,714,o),
(54,600,o),
(54,373,cs),
(54,154,o),
(162,0,o),
(366,0,cs),
(656,0,l),
(656,56,l),
(612,56,ls),
(592,56,o),
(580,77,o),
(580,114,cs),
(580,360,l),
(598,360,ls),
(654,360,o),
(690,328,o),
(690,220,c),
(765,220,o),
(804,260,o),
(804,319,cs),
(804,396,o),
(720,428,o),
(589,428,cs)
);
},
{
closed = 1;
nodes = (
(386,65,ls),
(286,65,o),
(231,184,o),
(231,373,cs),
(231,563,o),
(286,650,o),
(386,650,cs),
(413,650,l),
(413,65,l)
);
}
);
width = 814;
}
);
note = uni10A7;
unicode = 4263;
}
{
glyphname = "In-oldgeorgian";
kernLeft = "Zen-oldgeorgian";
layers = (
{
layerId = m001;
shapes = (
{
closed = 1;
nodes = (
(24,714,l),
(24,689,l),
(261,689,l),
(261,0,l),
(289,0,l),
(289,624,ls),
(289,685,o),
(299,694,o),
(345,694,cs),
(365,694,l),
(365,714,l)
);
}
);
width = 405;
},
{
layerId = m002;
shapes = (
{
closed = 1;
nodes = (
(20,714,l),
(20,660,l),
(279,660,l),
(279,0,l),
(380,0,l),
(380,610,ls),
(380,663,o),
(413,672,o),
(438,672,cs),
(451,672,l),
(451,714,l)
);
}
);
width = 487;
},
{
layerId = m003;
shapes = (
{
closed = 1;
nodes = (
(15,714,l),
(15,643,l),
(255,643,l),
(255,0,l),
(413,0,l),
(413,606,ls),
(413,653,o),
(435,661,o),
(464,661,cs),
(486,661,l),
(486,714,l)
);
}
);
width = 513;
},
{
layerId = m004;
shapes = (
{
closed = 1;
nodes = (
(10,714,l),
(10,638,l),
(243,638,l),
(243,0,l),
(443,0,l),
(443,599,ls),
(443,636,o),
(457,653,o),
(485,653,cs),
(510,653,l),
(510,714,l)
);
}
);
width = 544;
},
{
layerId = m005;
shapes = (
{
closed = 1;
nodes = (
(18,714,l),
(18,689,l),
(153,689,l),
(153,0,l),
(181,0,l),
(181,646,ls),
(181,683,o),
(187,694,o),
(227,694,cs),
(247,694,l),
(247,714,l)
);
}
);
width = 301;
},
{
layerId = m006;
shapes = (
{
closed = 1;
nodes = (
(14,714,l),
(14,665,l),
(159,665,l),
(159,0,l),
(251,0,l),
(251,608,ls),
(251,657,o),
(271,669,o),
(296,669,cs),
(317,669,l),
(317,714,l)
);
}
);
width = 356;
},
{
layerId = m007;
shapes = (
{
closed = 1;
nodes = (
(12,714,l),
(12,657,l),
(168,657,l),
(168,0,l),
(303,0,l),
(303,601,ls),
(303,649,o),
(319,663,o),
(346,663,cs),
(368,663,l),
(368,714,l)
);
}
);
width = 399;
},
{
layerId = m008;
shapes = (
{
closed = 1;
nodes = (
(10,714,l),
(10,650,l),
(175,650,l),
(175,0,l),
(344,0,l),
(344,600,ls),
(344,643,o),
(356,658,o),
(386,658,cs),
(402,658,l),
(402,714,l)
);
}
);
width = 428;
}
);
note = uni10A8;
unicode = 4264;
}
{
glyphname = "Kan-oldgeorgian";
kernLeft = "Kan-oldgeorgian";
layers = (
{
layerId = m001;
shapes = (
{
closed = 1;
nodes = (
(611,0,l),
(611,20,l),
(591,20,ls),
(545,20,o),
(535,29,o),
(535,90,cs),
(535,349,ls),
(535,495,o),
(461,581,o),
(331,581,cs),
(237,581,o),
(181,534,o),
(147,456,c),
(144,456,l),
(146,488,o),
(146,521,o),
(146,564,cs),
(146,624,ls),
(146,685,o),
(157,694,o),
(203,694,cs),
(223,694,l),
(223,714,l),
(40,714,l),
(40,694,l),
(63,694,ls),
(109,694,o),
(119,685,o),
(119,624,cs),
(119,349,ls),
(119,203,o),
(193,117,o),
(323,117,cs),
(417,117,o),
(473,164,o),
(507,242,c),
(510,242,l),
(508,210,o),
(507,177,o),
(507,135,cs),
(507,90,ls),
(507,29,o),
(497,20,o),
(451,20,cs),
(428,20,l),
(428,0,l)
);
},
{
closed = 1;
nodes = (
(215,142,o),
(147,221,o),
(147,349,cs),
(147,473,o),
(222,556,o),
(325,556,cs),
(439,556,o),
(507,477,o),
(507,349,cs),
(507,225,o),
(432,142,o),
(329,142,cs)
);
}
);
width = 651;
},
{
layerId = m002;
shapes = (
{
closed = 1;
nodes = (
(661,0,l),
(661,42,l),
(648,42,ls),
(623,42,o),
(590,51,o),
(590,104,cs),
(590,374,ls),
(590,477,o),
(486,566,o),
(362,566,cs),
(291,566,o),
(238,542,o),
(207,500,c),
(202,500,l),
(204,538,o),
(206,556,o),
(206,585,cs),
(206,610,ls),
(206,663,o),
(239,672,o),
(264,672,cs),
(277,672,l),
(277,714,l),
(30,714,l),
(30,672,l),
(43,672,ls),
(68,672,o),
(105,663,o),
(105,610,cs),
(105,335,ls),
(105,225,o),
(197,130,o),
(326,130,cs),
(403,130,o),
(457,152,o),
(488,196,c),
(493,196,l),
(489,162,o),
(489,144,o),
(489,126,cs),
(489,97,ls),
(489,44,o),
(452,42,o),
(427,42,cs),
(414,42,l),
(414,0,l)
);
},
{
closed = 1;
nodes = (
(255,182,o),
(206,258,o),
(206,345,cs),
(206,435,o),
(251,514,o),
(349,514,cs),
(438,514,o),
(489,441,o),
(489,350,cs),
(489,264,o),
(443,182,o),
(349,182,cs)
);
}
);
width = 682;
},
{
layerId = m004;
shapes = (
{
closed = 1;
nodes = (
(736,0,l),
(736,61,l),
(711,61,ls),
(683,61,o),
(669,78,o),
(669,115,cs),
(669,360,ls),
(669,482,o),
(594,571,o),
(439,571,cs),
(363,571,o),
(321,546,o),
(290,503,c),
(280,503,l),
(285,531,o),
(286,560,o),
(286,592,cs),
(286,599,ls),
(286,636,o),
(300,653,o),
(328,653,cs),
(353,653,l),
(353,714,l),
(20,714,l),
(20,653,l),
(43,653,ls),
(65,653,o),
(86,636,o),
(86,600,cs),
(86,360,ls),
(86,238,o),
(161,149,o),
(316,149,cs),
(392,149,o),
(434,174,o),
(465,217,c),
(475,217,l),
(470,189,o),
(469,160,o),
(469,128,cs),
(469,114,ls),
(469,78,o),
(448,61,o),
(426,61,cs),
(403,61,l),
(403,0,l)
);
},
{
closed = 1;
nodes = (
(317,245,o),
(286,286,o),
(286,360,cs),
(286,428,o),
(316,475,o),
(379,475,cs),
(438,475,o),
(469,434,o),
(469,360,cs),
(469,292,o),
(437,245,o),
(376,245,cs)
);
}
);
width = 756;
},
{
layerId = m005;
shapes = (
{
closed = 1;
nodes = (
(499,0,l),
(499,20,l),
(479,20,ls),
(439,20,o),
(433,31,o),
(433,68,cs),
(433,346,ls),
(433,484,o),
(382,572,o),
(275,572,cs),
(209,572,o),
(165,549,o),
(135,470,c),
(131,470,l),
(132,491,o),
(133,506,o),
(133,527,cs),
(133,646,ls),
(133,683,o),
(139,694,o),
(179,694,cs),
(199,694,l),
(199,714,l),
(39,714,l),
(39,694,l),
(59,694,ls),
(89,694,o),
(105,683,o),
(105,646,cs),
(105,346,ls),
(105,208,o),
(156,120,o),
(263,120,cs),
(329,120,o),
(373,143,o),
(403,222,c),
(407,222,l),
(406,201,o),
(405,186,o),
(405,165,cs),
(405,68,ls),
(405,31,o),
(389,20,o),
(359,20,cs),
(339,20,l),
(339,0,l)
);
},
{
closed = 1;
nodes = (
(173,145,o),
(133,222,o),
(133,346,cs),
(133,478,o),
(180,547,o),
(268,547,cs),
(365,547,o),
(405,470,o),
(405,346,cs),
(405,214,o),
(358,145,o),
(270,145,cs)
);
}
);
width = 515;
},
{
layerId = m006;
shapes = (
{
closed = 1;
nodes = (
(559,0,l),
(559,45,l),
(538,45,ls),
(513,45,o),
(493,57,o),
(493,106,cs),
(493,355,ls),
(493,486,o),
(435,574,o),
(319,574,cs),
(263,574,o),
(222,554,o),
(189,499,c),
(185,499,l),
(188,521,o),
(189,536,o),
(189,557,cs),
(189,608,ls),
(189,657,o),
(209,669,o),
(234,669,cs),
(255,669,l),
(255,714,l),
(31,714,l),
(31,669,l),
(52,669,ls),
(73,669,o),
(96,657,o),
(96,608,cs),
(96,345,ls),
(96,202,o),
(154,117,o),
(270,117,cs),
(326,117,o),
(367,137,o),
(400,192,c),
(404,192,l),
(402,170,o),
(401,156,o),
(401,134,cs),
(401,106,ls),
(401,57,o),
(377,45,o),
(355,45,cs),
(335,45,l),
(335,0,l)
);
},
{
closed = 1;
nodes = (
(229,175,o),
(189,240,o),
(189,350,cs),
(189,461,o),
(224,516,o),
(296,516,cs),
(361,516,o),
(401,469,o),
(401,350,cs),
(401,247,o),
(366,175,o),
(294,175,cs)
);
}
);
width = 567;
},
{
layerId = m008;
shapes = (
{
closed = 1;
nodes = (
(617,0,l),
(617,56,l),
(601,56,ls),
(571,56,o),
(559,71,o),
(559,114,cs),
(559,345,ls),
(559,482,o),
(501,575,o),
(383,575,cs),
(327,575,o),
(293,561,o),
(253,503,c),
(249,503,l),
(252,527,o),
(253,551,o),
(253,575,cs),
(253,600,ls),
(253,643,o),
(265,658,o),
(295,658,cs),
(311,658,l),
(311,714,l),
(30,714,l),
(30,658,l),
(44,658,ls),
(68,658,o),
(86,643,o),
(86,601,cs),
(86,345,ls),
(86,208,o),
(143,115,o),
(261,115,cs),
(317,115,o),
(351,129,o),
(392,187,c),
(396,187,l),
(393,163,o),
(392,139,o),
(392,115,cs),
(392,101,ls),
(392,71,o),
(374,56,o),
(350,56,cs),
(336,56,l),
(336,0,l)
);
},
{
closed = 1;
nodes = (
(278,201,o),
(253,230,o),
(253,345,cs),
(253,417,o),
(274,489,o),
(319,489,cs),
(367,489,o),
(392,460,o),
(392,345,cs),
(392,273,o),
(371,201,o),
(326,201,cs)
);
}
);
width = 637;
}
);
note = uni10A9;
unicode = 4265;
}
{
glyphname = "Las-oldgeorgian";
kernLeft = "Gan-oldgeorgian";
layers = (
{
layerId = m001;
shapes = (
{
closed = 1;
nodes = (
(775,-10,o),
(862,82,o),
(862,264,cs),
(862,459,o),
(788,542,o),
(648,542,cs),
(544,542,o),
(488,495,o),
(454,417,c),
(451,417,l),
(453,449,o),
(454,482,o),
(454,524,cs),
(454,624,ls),
(454,685,o),
(464,694,o),
(510,694,cs),
(530,694,l),
(530,714,l),
(50,714,l),
(50,694,l),
(73,694,ls),
(119,694,o),
(129,685,o),
(129,624,cs),
(129,446,ls),
(129,385,o),
(119,376,o),
(73,376,cs),
(50,376,l),
(50,356,l),
(157,356,l),
(157,689,l),
(426,689,l),
(426,256,ls),
(426,88,o),
(486,-10,o),
(643,-10,cs)
);
},
{
closed = 1;
nodes = (
(504,15,o),
(454,102,o),
(454,269,cs),
(454,437,o),
(519,517,o),
(642,517,cs),
(776,517,o),
(834,441,o),
(834,264,cs),
(834,111,o),
(772,15,o),
(643,15,cs)
);
}
);
width = 916;
},
{
layerId = m002;
shapes = (
{
closed = 1;
nodes = (
(818,-12,o),
(914,91,o),
(914,269,cs),
(914,455,o),
(822,546,o),
(668,546,cs),
(610,546,o),
(560,520,o),
(531,480,c),
(526,480,l),
(529,518,o),
(530,546,o),
(530,565,cs),
(530,610,ls),
(530,663,o),
(567,672,o),
(592,672,cs),
(606,672,l),
(606,714,l),
(38,714,l),
(38,672,l),
(52,672,ls),
(77,672,o),
(114,663,o),
(114,610,cs),
(114,428,ls),
(114,375,o),
(77,366,o),
(52,366,cs),
(38,366,l),
(38,324,l),
(214,324,l),
(214,660,l),
(429,660,l),
(429,269,ls),
(429,94,o),
(520,-12,o),
(665,-12,cs)
);
},
{
closed = 1;
nodes = (
(572,42,o),
(530,110,o),
(530,269,cs),
(530,412,o),
(576,492,o),
(666,492,cs),
(762,492,o),
(803,426,o),
(803,269,cs),
(803,110,o),
(762,42,o),
(667,42,cs)
);
}
);
width = 975;
},
{
layerId = m004;
shapes = (
{
closed = 1;
nodes = (
(939,-14,o),
(1031,95,o),
(1031,286,cs),
(1031,454,o),
(956,550,o),
(801,550,c),
(725,550,o),
(683,526,o),
(652,483,c),
(642,483,l),
(647,511,o),
(648,540,o),
(648,572,cs),
(648,599,ls),
(648,636,o),
(662,653,o),
(690,653,cs),
(715,653,l),
(715,714,l),
(21,714,l),
(21,653,l),
(46,653,ls),
(74,653,o),
(88,636,o),
(88,599,cs),
(88,413,ls),
(88,376,o),
(74,359,o),
(46,359,cs),
(21,359,l),
(21,298,l),
(288,298,l),
(288,638,l),
(448,638,l),
(448,271,ls),
(448,75,o),
(552,-14,o),
(724,-14,cs)
);
},
{
closed = 1;
nodes = (
(669,53,o),
(648,97,o),
(648,266,cs),
(648,404,o),
(678,454,o),
(734,454,c),
(786,454,o),
(817,409,o),
(817,261,cs),
(817,113,o),
(781,53,o),
(724,53,cs)
);
}
);
width = 1056;
},
{
layerId = m005;
shapes = (
{
closed = 1;
nodes = (
(614,-10,o),
(665,100,o),
(665,266,cs),
(665,455,o),
(614,546,o),
(502,546,cs),
(441,546,o),
(397,514,o),
(367,435,c),
(363,435,l),
(364,456,o),
(365,476,o),
(365,497,cs),
(365,646,ls),
(365,683,o),
(371,694,o),
(411,694,cs),
(431,694,l),
(431,714,l),
(36,714,l),
(36,694,l),
(56,694,ls),
(96,694,o),
(102,683,o),
(102,646,cs),
(102,426,ls),
(102,389,o),
(96,378,o),
(56,378,cs),
(36,378,l),
(36,358,l),
(130,358,l),
(130,689,l),
(337,689,l),
(337,259,ls),
(337,91,o),
(373,-10,o),
(491,-10,cs)
);
},
{
closed = 1;
nodes = (
(392,15,o),
(365,104,o),
(365,263,cs),
(365,445,o),
(412,521,o),
(500,521,cs),
(597,521,o),
(637,441,o),
(637,266,cs),
(637,125,o),
(602,15,o),
(491,15,cs)
);
}
);
width = 701;
},
{
layerId = m006;
shapes = (
{
closed = 1;
nodes = (
(686,-12,o),
(749,106,o),
(749,272,cs),
(749,447,o),
(690,548,o),
(573,548,cs),
(517,548,o),
(477,525,o),
(445,465,c),
(441,465,l),
(443,487,o),
(444,509,o),
(444,530,cs),
(444,608,ls),
(444,657,o),
(466,669,o),
(489,669,cs),
(510,669,l),
(510,714,l),
(25,714,l),
(25,669,l),
(46,669,ls),
(69,669,o),
(90,657,o),
(90,608,cs),
(90,442,ls),
(90,392,o),
(69,380,o),
(46,380,cs),
(25,380,l),
(25,335,l),
(182,335,l),
(182,659,l),
(352,659,l),
(352,264,ls),
(352,62,o),
(412,-12,o),
(549,-12,cs)
);
},
{
closed = 1;
nodes = (
(469,33,o),
(444,102,o),
(444,266,cs),
(444,430,o),
(480,490,o),
(551,490,cs),
(613,490,o),
(651,438,o),
(651,261,cs),
(651,108,o),
(618,33,o),
(544,33,cs)
);
}
);
width = 780;
},
{
layerId = m008;
shapes = (
{
closed = 1;
nodes = (
(743,-14,o),
(820,94,o),
(820,282,cs),
(820,452,o),
(758,550,o),
(640,550,cs),
(584,550,o),
(550,536,o),
(514,478,c),
(510,478,l),
(513,502,o),
(514,526,o),
(514,550,cs),
(514,600,ls),
(514,643,o),
(526,658,o),
(556,658,cs),
(572,658,l),
(572,714,l),
(18,714,l),
(18,658,l),
(34,658,ls),
(64,658,o),
(76,643,o),
(76,600,cs),
(76,433,ls),
(76,390,o),
(64,375,o),
(34,375,cs),
(18,375,l),
(18,319,l),
(243,319,l),
(243,640,l),
(347,640,l),
(347,269,ls),
(347,88,o),
(402,-14,o),
(579,-14,cs)
);
},
{
closed = 1;
nodes = (
(534,48,o),
(514,97,o),
(514,281,cs),
(514,397,o),
(535,464,o),
(579,464,cs),
(616,464,o),
(641,440,o),
(641,268,cs),
(641,102,o),
(611,48,o),
(574,48,cs)
);
}
);
width = 844;
}
);
note = uni10AA;
unicode = 4266;
}
{
glyphname = "Man-oldgeorgian";
kernRight = "Vin-oldgeorgian";
layers = (
{
layerId = m001;
shapes = (
{
closed = 1;
nodes = (
(407,-10,o),
(449,73,o),
(449,212,cs),
(449,391,l),
(545,391,l),
(545,416,l),
(449,416,l),
(449,624,ls),
(449,685,o),
(459,694,o),
(505,694,cs),
(525,694,l),
(525,714,l),
(85,714,l),
(85,689,l),
(421,689,l),
(421,416,l),
(290,416,ls),
(144,416,o),
(46,343,o),
(46,205,cs),
(46,62,o),
(118,-10,o),
(252,-10,cs)
);
},
{
closed = 1;
nodes = (
(130,15,o),
(74,84,o),
(74,206,cs),
(74,331,o),
(162,391,o),
(290,391,cs),
(421,391,l),
(421,211,ls),
(421,90,o),
(388,15,o),
(253,15,cs)
);
}
);
userData = {
com.schriftgestaltung.Glyphs.glyph.rightMetricsKey = "En-oldgeorgian";
};
width = 595;
},
{
layerId = m002;
shapes = (
{
closed = 1;
nodes = (
(433,-12,o),
(511,66,o),
(511,225,cs),
(511,390,l),
(602,390,l),
(602,444,l),
(511,444,l),
(511,610,ls),
(511,663,o),
(544,672,o),
(569,672,cs),
(582,672,l),
(582,714,l),
(67,714,l),
(67,653,l),
(410,653,l),
(410,444,l),
(298,444,ls),
(116,444,o),
(38,378,o),
(38,220,cs),
(38,70,o),
(127,-12,o),
(277,-12,cs)
);
},
{
closed = 1;
nodes = (
(190,42,o),
(146,99,o),
(146,214,cs),
(146,335,o),
(194,390,o),
(298,390,cs),
(410,390,l),
(410,225,ls),
(410,102,o),
(365,42,o),
(273,42,cs)
);
}
);
userData = {
com.schriftgestaltung.Glyphs.glyph.rightMetricsKey = "En-oldgeorgian";
};
width = 642;
},
{
layerId = m004;
shapes = (
{
closed = 1;
nodes = (
(532,-14,o),
(624,87,o),
(624,239,cs),
(624,380,l),
(711,380,l),
(711,452,l),
(624,452,l),
(624,599,ls),
(624,636,o),
(638,653,o),
(666,653,cs),
(691,653,l),
(691,714,l),
(100,714,l),
(100,638,l),
(430,638,l),
(430,452,l),
(352,452,ls),
(149,452,o),
(45,353,o),
(45,218,cs),
(45,74,o),
(144,-14,o),
(342,-14,cs)
);
},
{
closed = 1;
nodes = (
(280,62,o),
(252,94,o),
(252,218,cs),
(252,328,o),
(285,380,o),
(365,380,cs),
(430,380,l),
(430,207,ls),
(430,120,o),
(404,62,o),
(346,62,cs)
);
}
);
userData = {
com.schriftgestaltung.Glyphs.glyph.rightMetricsKey = "En-oldgeorgian";
};
width = 742;
},
{
layerId = m005;
shapes = (
{
closed = 1;
nodes = (
(305,-10,o),
(369,55,o),
(369,214,cs),
(369,396,l),
(455,396,l),
(455,421,l),
(369,421,l),
(369,646,ls),
(369,683,o),
(375,694,o),
(415,694,cs),
(435,694,l),
(435,714,l),
(81,714,l),
(81,689,l),
(341,689,l),
(341,421,l),
(230,421,ls),
(100,421,o),
(48,325,o),
(48,207,cs),
(48,90,o),
(100,-10,o),
(212,-10,cs)
);
},
{
closed = 1;
nodes = (
(111,15,o),
(76,116,o),
(76,207,cs),
(76,299,o),
(111,396,o),
(229,396,cs),
(341,396,l),
(341,205,ls),
(341,68,o),
(289,15,o),
(211,15,cs)
);
}
);
userData = {
com.schriftgestaltung.Glyphs.glyph.rightMetricsKey = "En-oldgeorgian";
};
width = 491;
},
{
layerId = m006;
shapes = (
{
closed = 1;
nodes = (
(361,-12,o),
(439,53,o),
(439,216,cs),
(439,387,l),
(525,387,l),
(525,436,l),
(439,436,l),
(439,608,ls),
(439,657,o),
(459,669,o),
(484,669,cs),
(505,669,l),
(505,714,l),
(89,714,l),
(89,665,l),
(347,665,l),
(347,436,l),
(269,436,ls),
(105,436,o),
(45,360,o),
(45,216,cs),
(45,86,o),
(98,-12,o),
(239,-12,cs)
);
},
{
closed = 1;
nodes = (
(162,43,o),
(136,114,o),
(136,216,cs),
(136,325,o),
(168,387,o),
(265,387,cs),
(347,387,l),
(347,213,ls),
(347,82,o),
(309,43,o),
(239,43,cs)
);
}
);
userData = {
com.schriftgestaltung.Glyphs.glyph.rightMetricsKey = "En-oldgeorgian";
};
width = 560;
},
{
layerId = m008;
shapes = (
{
closed = 1;
nodes = (
(431,-14,o),
(526,50,o),
(526,218,cs),
(526,381,l),
(613,381,l),
(613,447,l),
(526,447,l),
(526,619,ls),
(526,648,o),
(542,658,o),
(567,658,cs),
(583,658,l),
(583,714,l),
(79,714,l),
(79,650,l),
(359,650,l),
(359,447,l),
(301,447,ls),
(116,447,o),
(42,387,o),
(42,223,cs),
(42,79,o),
(106,-14,o),
(277,-14,cs)
);
},
{
closed = 1;
nodes = (
(234,60,o),
(209,110,o),
(209,225,cs),
(209,343,o),
(235,381,o),
(303,381,cs),
(359,381,l),
(359,218,ls),
(359,97,o),
(336,60,o),
(279,60,cs)
);
}
);
userData = {
com.schriftgestaltung.Glyphs.glyph.rightMetricsKey = "En-oldgeorgian";
};
width = 631;
}
);
note = uni10AB;
unicode = 4267;
}
{
glyphname = "Nar-oldgeorgian";
kernLeft = "Nar-oldgeorgian";
layers = (
{
layerId = m001;
shapes = (
{
closed = 1;
nodes = (
(278,0,l),
(278,20,l),
(233,20,ls),
(183,20,o),
(177,31,o),
(177,108,cs),
(177,269,ls),
(177,382,o),
(241,473,o),
(354,473,cs),
(453,473,o),
(521,422,o),
(521,278,cs),
(521,0,l),
(648,0,l),
(648,20,l),
(605,20,ls),
(555,20,o),
(549,31,o),
(549,108,cs),
(549,278,ls),
(549,437,o),
(466,498,o),
(352,498,cs),
(274,498,o),
(207,451,o),
(177,383,c),
(174,383,l),
(176,415,o),
(177,448,o),
(177,480,cs),
(177,689,l),
(521,689,l),
(521,714,l),
(50,714,l),
(50,694,l),
(93,694,ls),
(143,694,o),
(149,683,o),
(149,606,cs),
(149,108,ls),
(149,31,o),
(143,20,o),
(93,20,cs),
(50,20,l),
(50,0,l)
);
}
);
userData = {
com.schriftgestaltung.Glyphs.glyph.rightMetricsKey = "En-oldgeorgian";
};
width = 698;
},
{
layerId = m002;
shapes = (
{
closed = 1;
nodes = (
(329,0,l),
(329,42,l),
(316,42,ls),
(271,42,o),
(234,51,o),
(234,114,cs),
(234,261,ls),
(234,369,o),
(286,416,o),
(368,416,cs),
(447,416,o),
(489,367,o),
(489,261,cs),
(489,0,l),
(685,0,l),
(685,42,l),
(672,42,ls),
(628,42,o),
(590,50,o),
(590,109,cs),
(590,261,ls),
(590,398,o),
(508,476,o),
(388,476,cs),
(318,476,o),
(254,448,o),
(235,405,c),
(230,405,l),
(232,442,o),
(234,471,o),
(234,490,cs),
(234,660,l),
(573,660,l),
(573,714,l),
(38,714,l),
(38,672,l),
(51,672,ls),
(111,672,o),
(133,650,o),
(133,600,cs),
(133,114,ls),
(133,51,o),
(96,42,o),
(51,42,cs),
(38,42,l),
(38,0,l)
);
}
);
userData = {
com.schriftgestaltung.Glyphs.glyph.rightMetricsKey = "En-oldgeorgian";
};
width = 725;
},
{
layerId = m003;
shapes = (
{
closed = 1;
nodes = (
(358,0,l),
(358,52,l),
(333,52,ls),
(299,52,o),
(274,68,o),
(274,112,cs),
(274,272,ls),
(274,348,o),
(314,408,o),
(388,408,cs),
(458,408,o),
(493,370,o),
(493,268,cs),
(493,0,l),
(744,0,l),
(744,52,l),
(710,52,ls),
(677,52,o),
(651,67,o),
(651,111,cs),
(651,260,ls),
(651,409,o),
(578,480,o),
(434,480,cs),
(356,480,o),
(304,452,o),
(277,411,c),
(269,411,l),
(273,444,o),
(274,473,o),
(274,498,cs),
(274,643,l),
(623,643,l),
(623,714,l),
(30,714,l),
(30,662,l),
(52,662,ls),
(100,662,o),
(116,639,o),
(116,604,cs),
(116,112,ls),
(116,68,o),
(91,52,o),
(57,52,cs),
(23,52,l),
(23,0,l)
);
}
);
userData = {
com.schriftgestaltung.Glyphs.glyph.rightMetricsKey = "En-oldgeorgian";
};
width = 772;
},
{
layerId = m004;
shapes = (
{
closed = 1;
nodes = (
(386,0,l),
(386,61,l),
(349,61,ls),
(325,61,o),
(313,84,o),
(313,111,cs),
(313,282,ls),
(313,330,o),
(341,401,o),
(407,401,cs),
(467,401,o),
(496,372,o),
(496,274,cs),
(496,0,l),
(788,0,l),
(788,61,l),
(735,61,ls),
(712,61,o),
(696,83,o),
(696,113,cs),
(696,259,ls),
(696,419,o),
(633,485,o),
(477,485,cs),
(392,485,o),
(352,454,o),
(317,417,c),
(307,417,l),
(312,445,o),
(313,474,o),
(313,506,cs),
(313,638,l),
(670,638,l),
(670,714,l),
(35,714,l),
(35,654,l),
(65,654,ls),
(101,654,o),
(113,630,o),
(113,609,cs),
(113,111,ls),
(113,84,o),
(97,61,o),
(74,61,cs),
(21,61,l),
(21,0,l)
);
}
);
userData = {
com.schriftgestaltung.Glyphs.glyph.rightMetricsKey = "En-oldgeorgian";
};
width = 819;
},
{
layerId = m005;
shapes = (
{
closed = 1;
nodes = (
(219,0,l),
(219,20,l),
(194,20,ls),
(144,20,o),
(138,31,o),
(138,108,cs),
(138,290,ls),
(138,377,o),
(200,446,o),
(283,446,cs),
(365,446,o),
(416,401,o),
(416,286,cs),
(416,0,l),
(517,0,l),
(517,20,l),
(498,20,ls),
(448,20,o),
(442,31,o),
(442,108,cs),
(442,298,ls),
(442,413,o),
(384,471,o),
(285,471,cs),
(233,471,o),
(173,445,o),
(140,379,c),
(136,379,l),
(137,400,o),
(138,420,o),
(138,441,cs),
(138,689,l),
(416,689,l),
(416,714,l),
(40,714,l),
(40,694,l),
(60,694,ls),
(106,694,o),
(110,683,o),
(110,609,cs),
(110,108,ls),
(110,31,o),
(104,20,o),
(54,20,cs),
(37,20,l),
(37,0,l)
);
}
);
userData = {
com.schriftgestaltung.Glyphs.glyph.rightMetricsKey = "En-oldgeorgian";
};
width = 553;
},
{
layerId = m006;
shapes = (
{
closed = 1;
nodes = (
(264,0,l),
(264,39,l),
(244,39,ls),
(208,39,o),
(194,53,o),
(194,110,cs),
(194,286,ls),
(194,387,o),
(248,424,o),
(299,424,cs),
(369,424,o),
(408,388,o),
(408,284,cs),
(408,0,l),
(575,0,l),
(575,39,l),
(551,39,ls),
(516,39,o),
(500,52,o),
(500,109,cs),
(500,294,ls),
(500,416,o),
(423,474,o),
(329,474,cs),
(260,474,o),
(218,435,o),
(195,397,c),
(191,397,l),
(193,419,o),
(194,440,o),
(194,461,cs),
(194,671,l),
(491,671,l),
(491,714,l),
(37,714,l),
(37,679,l),
(52,679,ls),
(91,679,o),
(103,663,o),
(103,594,cs),
(103,110,ls),
(103,53,o),
(87,39,o),
(52,39,cs),
(28,39,l),
(28,0,l)
);
}
);
userData = {
com.schriftgestaltung.Glyphs.glyph.rightMetricsKey = "En-oldgeorgian";
};
width = 610;
},
{
layerId = m007;
shapes = (
{
closed = 1;
nodes = (
(295,0,l),
(295,47,l),
(268,47,ls),
(240,47,o),
(229,65,o),
(229,111,cs),
(229,291,ls),
(229,365,o),
(269,405,o),
(318,405,cs),
(378,405,o),
(407,369,o),
(407,288,cs),
(407,0,l),
(617,0,l),
(617,47,l),
(587,47,ls),
(555,47,o),
(541,64,o),
(541,111,cs),
(541,294,ls),
(541,422,o),
(467,479,o),
(367,479,cs),
(306,479,o),
(260,449,o),
(231,405,c),
(227,405,l),
(230,427,o),
(231,450,o),
(231,473,cs),
(231,657,l),
(524,657,l),
(524,714,l),
(27,714,l),
(27,662,l),
(48,662,ls),
(82,662,o),
(96,651,o),
(96,591,cs),
(96,111,ls),
(96,65,o),
(82,47,o),
(54,47,cs),
(20,47,l),
(20,0,l)
);
}
);
userData = {
com.schriftgestaltung.Glyphs.glyph.rightMetricsKey = "En-oldgeorgian";
};
width = 638;
},
{
layerId = m008;
shapes = (
{
closed = 1;
nodes = (
(322,0,l),
(322,56,l),
(291,56,ls),
(271,56,o),
(262,76,o),
(262,111,cs),
(262,296,ls),
(262,345,o),
(285,388,o),
(334,388,cs),
(384,388,o),
(405,352,o),
(405,292,cs),
(405,0,l),
(651,0,l),
(651,56,l),
(617,56,ls),
(588,56,o),
(575,75,o),
(575,112,cs),
(575,294,ls),
(575,428,o),
(508,484,o),
(403,484,cs),
(348,484,o),
(300,460,o),
(264,412,c),
(260,412,l),
(263,436,o),
(264,460,o),
(264,484,cs),
(264,650,l),
(555,650,l),
(555,714,l),
(24,714,l),
(24,658,l),
(50,658,ls),
(80,658,o),
(94,651,o),
(94,599,cs),
(94,111,ls),
(94,76,o),
(81,56,o),
(62,56,cs),
(18,56,l),
(18,0,l)
);
}
);
userData = {
com.schriftgestaltung.Glyphs.glyph.rightMetricsKey = "En-oldgeorgian";
};
width = 669;
}
);
note = uni10AC;
unicode = 4268;
}
{
glyphname = "On-oldgeorgian";
kernLeft = "On-oldgeorgian";
layers = (
{
layerId = m001;
shapes = (
{
closed = 1;
nodes = (
(720,114,o),
(715,113,o),
(713,112,c),
(714,107,o),
(715,102,o),
(715,97,cs),
(715,57,o),
(688,15,o),
(642,15,cs),
(600,15,o),
(562,37,o),
(550,77,c),
(603,141,o),
(627,238,o),
(627,358,cs),
(627,590,o),
(547,724,o),
(344,724,cs),
(157,724,o),
(58,592,o),
(58,359,cs),
(58,125,o),
(153,-10,o),
(343,-10,cs),
(425,-10,o),
(488,14,o),
(533,58,c),
(548,17,o),
(594,-10,o),
(639,-10,cs),
(691,-10,o),
(741,26,o),
(741,87,cs),
(741,103,o),
(735,114,o),
(723,114,cs)
);
},
{
closed = 1;
nodes = (
(172,15,o),
(86,143,o),
(86,358,cs),
(86,573,o),
(172,699,o),
(344,699,cs),
(530,699,o),
(599,573,o),
(599,358,cs),
(599,145,o),
(524,15,o),
(343,15,cs)
);
}
);
width = 756;
},
{
layerId = m002;
shapes = (
{
closed = 1;
nodes = (
(737,174,o),
(731,170,o),
(726,167,c),
(733,153,o),
(737,139,o),
(737,125,cs),
(737,87,o),
(729,42,o),
(663,42,cs),
(637,42,o),
(615,49,o),
(591,73,c),
(651,136,o),
(685,232,o),
(685,358,cs),
(685,589,o),
(567,726,o),
(372,726,cs),
(168,726,o),
(56,592,o),
(56,359,cs),
(56,121,o),
(170,-12,o),
(371,-12,cs),
(444,-12,o),
(506,7,o),
(556,43,c),
(582,12,o),
(617,-12,o),
(679,-12,cs),
(763,-12,o),
(814,41,o),
(814,109,cs),
(814,151,o),
(792,174,o),
(754,174,cs)
);
},
{
closed = 1;
nodes = (
(234,42,o),
(167,141,o),
(167,358,cs),
(167,576,o),
(234,672,o),
(372,672,cs),
(509,672,o),
(574,575,o),
(574,358,cs),
(574,140,o),
(508,42,o),
(371,42,cs)
);
}
);
width = 812;
},
{
layerId = m004;
shapes = (
{
closed = 1;
nodes = (
(821,219,o),
(801,213,o),
(791,205,c),
(806,186,o),
(809,170,o),
(809,145,cs),
(809,110,o),
(788,81,o),
(747,81,cs),
(722,81,o),
(701,90,o),
(682,103,c),
(736,167,o),
(766,254,o),
(766,358,cs),
(766,580,o),
(639,728,o),
(412,728,cs),
(171,728,o),
(54,580,o),
(54,359,cs),
(54,137,o),
(171,-14,o),
(411,-14,cs),
(494,-14,o),
(565,8,o),
(622,48,c),
(654,19,o),
(706,-14,o),
(777,-14,cs),
(845,-14,o),
(930,30,o),
(931,109,cs),
(932,176,o),
(904,219,o),
(855,219,cs)
);
},
{
closed = 1;
nodes = (
(304,59,o),
(264,172,o),
(264,358,cs),
(264,544,o),
(304,655,o),
(412,655,cs),
(518,655,o),
(556,544,o),
(556,358,cs),
(556,172,o),
(518,59,o),
(411,59,cs)
);
}
);
width = 910;
},
{
layerId = m005;
shapes = (
{
closed = 1;
nodes = (
(540,94,o),
(535,93,o),
(533,92,c),
(534,87,o),
(535,82,o),
(535,67,cs),
(535,37,o),
(515,15,o),
(482,15,cs),
(457,15,o),
(436,30,o),
(416,69,c),
(465,138,o),
(485,244,o),
(485,358,cs),
(485,610,o),
(414,724,o),
(265,724,cs),
(118,724,o),
(44,596,o),
(44,359,cs),
(44,137,o),
(116,-10,o),
(264,-10,cs),
(321,-10,o),
(365,11,o),
(398,47,c),
(420,11,o),
(448,-10,o),
(479,-10,cs),
(511,-10,o),
(561,6,o),
(561,67,cs),
(561,83,o),
(555,94,o),
(543,94,cs)
);
},
{
closed = 1;
nodes = (
(137,15,o),
(72,153,o),
(72,358,cs),
(72,574,o),
(131,699,o),
(265,699,cs),
(406,699,o),
(457,574,o),
(457,358,cs),
(457,146,o),
(391,15,o),
(264,15,cs)
);
}
);
width = 580;
},
{
layerId = m006;
shapes = (
{
closed = 1;
nodes = (
(604,175,o),
(590,171,o),
(583,165,c),
(592,151,o),
(594,139,o),
(594,120,cs),
(594,86,o),
(573,55,o),
(536,55,cs),
(515,55,o),
(495,64,o),
(477,80,c),
(526,147,o),
(552,256,o),
(552,358,cs),
(552,581,o),
(469,726,o),
(298,726,cs),
(127,726,o),
(44,581,o),
(44,359,cs),
(44,135,o),
(127,-12,o),
(297,-12,cs),
(355,-12,o),
(402,6,o),
(439,38,c),
(468,10,o),
(509,-11,o),
(551,-11,cs),
(613,-11,o),
(672,31,o),
(672,96,cs),
(672,143,o),
(650,175,o),
(615,175,cs)
);
},
{
closed = 1;
nodes = (
(189,41,o),
(144,158,o),
(144,358,cs),
(144,557,o),
(189,674,o),
(298,674,cs),
(409,674,o),
(452,557,o),
(452,358,cs),
(452,158,o),
(411,41,o),
(297,41,cs)
);
}
);
width = 675;
},
{
layerId = m008;
shapes = (
{
closed = 1;
nodes = (
(682,219,o),
(662,213,o),
(652,205,c),
(667,186,o),
(670,170,o),
(670,145,cs),
(670,110,o),
(648,81,o),
(608,81,cs),
(590,81,o),
(575,84,o),
(560,90,c),
(615,161,o),
(639,260,o),
(639,358,cs),
(639,583,o),
(542,728,o),
(344,728,cs),
(142,728,o),
(45,583,o),
(45,359,cs),
(45,133,o),
(142,-14,o),
(343,-14,cs),
(407,-14,o),
(459,3,o),
(501,32,c),
(539,7,o),
(582,-14,o),
(632,-14,cs),
(700,-14,o),
(782,30,o),
(782,109,cs),
(782,176,o),
(755,219,o),
(716,219,cs)
);
},
{
closed = 1;
nodes = (
(254,54,o),
(221,165,o),
(221,358,cs),
(221,550,o),
(254,660,o),
(344,660,cs),
(432,660,o),
(464,550,o),
(464,358,cs),
(464,165,o),
(432,54,o),
(343,54,cs)
);
}
);
width = 764;
}
);
note = uni10AD;
unicode = 4269;
}
{
glyphname = "Par-oldgeorgian";
kernLeft = "Zen-oldgeorgian";
layers = (
{
layerId = m001;
shapes = (
{
closed = 1;
nodes = (
(572,714,l),
(572,694,l),
(595,694,ls),
(641,694,o),
(651,685,o),
(651,624,cs),
(651,219,ls),
(651,106,o),
(589,15,o),
(448,15,cs),
(324,15,o),
(248,76,o),
(248,210,cs),
(248,714,l),
(24,714,l),
(24,689,l),
(220,689,l),
(220,214,ls),
(220,51,o),
(312,-10,o),
(450,-10,cs),
(605,-10,o),
(679,88,o),
(679,218,cs),
(679,624,ls),
(679,685,o),
(689,694,o),
(735,694,cs),
(755,694,l),
(755,714,l)
);
}
);
width = 762;
},
{
layerId = m002;
shapes = (
{
closed = 1;
nodes = (
(528,714,l),
(528,672,l),
(541,672,ls),
(566,672,o),
(603,663,o),
(603,610,cs),
(603,206,ls),
(603,106,o),
(545,48,o),
(446,48,cs),
(343,48,o),
(289,103,o),
(289,210,cs),
(289,714,l),
(20,714,l),
(20,660,l),
(188,660,l),
(188,216,ls),
(188,61,o),
(274,-12,o),
(450,-12,cs),
(612,-12,o),
(704,65,o),
(704,204,cs),
(704,610,ls),
(704,663,o),
(737,672,o),
(762,672,cs),
(775,672,l),
(775,714,l)
);
}
);
width = 804;
},
{
layerId = m004;
shapes = (
{
closed = 1;
nodes = (
(570,714,l),
(570,653,l),
(593,653,ls),
(615,653,o),
(636,636,o),
(636,600,cs),
(636,188,ls),
(636,102,o),
(597,62,o),
(537,62,cs),
(470,62,o),
(435,109,o),
(435,191,cs),
(435,714,l),
(10,714,l),
(10,638,l),
(241,638,l),
(241,221,ls),
(241,76,o),
(347,-14,o),
(536,-14,cs),
(719,-14,o),
(830,65,o),
(830,220,cs),
(830,599,ls),
(830,636,o),
(850,653,o),
(878,653,cs),
(903,653,l),
(903,714,l)
);
}
);
width = 934;
},
{
layerId = m005;
shapes = (
{
closed = 1;
nodes = (
(402,714,l),
(402,694,l),
(422,694,ls),
(452,694,o),
(468,683,o),
(468,646,cs),
(468,202,ls),
(468,114,o),
(429,15,o),
(317,15,cs),
(229,15,o),
(171,74,o),
(171,210,cs),
(171,714,l),
(18,714,l),
(18,689,l),
(143,689,l),
(143,214,ls),
(143,55,o),
(213,-10,o),
(316,-10,cs),
(439,-10,o),
(496,89,o),
(496,200,cs),
(496,646,ls),
(496,683,o),
(502,694,o),
(542,694,cs),
(562,694,l),
(562,714,l)
);
}
);
width = 580;
},
{
layerId = m006;
shapes = (
{
closed = 1;
nodes = (
(422,714,l),
(422,669,l),
(442,669,ls),
(464,669,o),
(487,657,o),
(487,608,cs),
(487,215,ls),
(487,118,o),
(451,43,o),
(367,43,cs),
(290,43,o),
(247,90,o),
(247,216,cs),
(247,714,l),
(14,714,l),
(14,665,l),
(155,665,l),
(155,215,ls),
(155,53,o),
(237,-12,o),
(366,-12,cs),
(518,-12,o),
(579,83,o),
(579,205,cs),
(579,608,ls),
(579,657,o),
(599,669,o),
(625,669,cs),
(646,669,l),
(646,714,l)
);
}
);
width = 670;
},
{
layerId = m008;
shapes = (
{
closed = 1;
nodes = (
(460,714,l),
(460,658,l),
(474,658,ls),
(498,658,o),
(516,643,o),
(516,601,cs),
(516,216,ls),
(516,107,o),
(483,60,o),
(432,60,cs),
(368,60,o),
(342,95,o),
(342,210,cs),
(342,714,l),
(10,714,l),
(10,650,l),
(175,650,l),
(175,218,ls),
(175,50,o),
(273,-14,o),
(433,-14,cs),
(616,-14,o),
(683,76,o),
(683,214,cs),
(683,600,ls),
(683,643,o),
(695,658,o),
(725,658,cs),
(741,658,l),
(741,714,l)
);
}
);
width = 761;
}
);
note = uni10AE;
unicode = 4270;
}
{
glyphname = "Zhar-oldgeorgian";
layers = (
{
layerId = m001;
shapes = (
{
closed = 1;
nodes = (
(518,624,ls),
(518,685,o),
(528,694,o),
(574,694,cs),
(594,694,l),
(594,714,l),
(411,714,l),
(411,694,l),
(434,694,ls),
(480,694,o),
(490,685,o),
(490,624,cs),
(490,467,ls),
(490,354,o),
(433,263,o),
(291,263,cs),
(167,263,o),
(109,342,o),
(109,477,cs),
(109,619,o),
(174,690,o),
(256,690,c),
(256,714,l),
(12,714,l),
(12,689,l),
(175,689,l),
(115,655,o),
(81,585,o),
(81,477,cs),
(81,315,o),
(155,238,o),
(290,238,cs),
(395,238,o),
(456,281,o),
(490,349,c),
(493,349,l),
(491,317,o),
(490,284,o),
(490,252,cs),
(490,90,ls),
(490,29,o),
(480,20,o),
(434,20,cs),
(411,20,l),
(411,0,l),
(594,0,l),
(594,20,l),
(574,20,ls),
(528,20,o),
(518,29,o),
(518,90,cs)
);
}
);
width = 633;
},
{
layerId = m002;
shapes = (
{
closed = 1;
nodes = (
(636,610,ls),
(636,663,o),
(669,672,o),
(694,672,cs),
(707,672,l),
(707,714,l),
(460,714,l),
(460,672,l),
(473,672,ls),
(498,672,o),
(535,663,o),
(535,610,cs),
(535,476,ls),
(535,365,o),
(480,312,o),
(371,312,cs),
(275,312,o),
(227,371,o),
(227,489,cs),
(227,577,o),
(248,672,o),
(310,672,c),
(310,714,l),
(20,714,l),
(20,660,l),
(186,660,l),
(140,618,o),
(116,561,o),
(116,488,cs),
(116,338,o),
(205,258,o),
(359,258,cs),
(440,258,o),
(499,282,o),
(534,329,c),
(539,329,l),
(537,290,o),
(535,262,o),
(535,244,cs),
(535,104,ls),
(535,51,o),
(498,42,o),
(473,42,cs),
(460,42,l),
(460,0,l),
(707,0,l),
(707,42,l),
(694,42,ls),
(669,42,o),
(636,51,o),
(636,104,cs)
);
}
);
width = 739;
},
{
layerId = m003;
shapes = (
{
closed = 1;
nodes = (
(663,606,ls),
(663,653,o),
(685,661,o),
(714,661,cs),
(736,661,l),
(736,714,l),
(434,714,l),
(434,661,l),
(456,661,ls),
(485,661,o),
(505,653,o),
(505,606,cs),
(505,464,ls),
(505,363,o),
(466,312,o),
(387,312,cs),
(305,312,o),
(268,358,o),
(268,473,cs),
(268,606,o),
(297,643,o),
(347,661,c),
(347,714,l),
(15,714,l),
(15,643,l),
(184,643,l),
(129,606,o),
(100,537,o),
(100,456,cs),
(100,312,o),
(184,228,o),
(328,228,cs),
(414,228,o),
(471,253,o),
(506,308,c),
(513,308,l),
(508,261,o),
(505,224,o),
(505,196,cs),
(505,108,ls),
(505,61,o),
(485,53,o),
(456,53,cs),
(434,53,l),
(434,0,l),
(736,0,l),
(736,53,l),
(714,53,ls),
(685,53,o),
(663,61,o),
(663,108,cs)
);
}
);
width = 748;
},
{
layerId = m004;
shapes = (
{
closed = 1;
nodes = (
(776,599,ls),
(776,636,o),
(788,653,o),
(818,653,cs),
(843,653,l),
(843,714,l),
(510,714,l),
(510,653,l),
(533,653,ls),
(555,653,o),
(576,636,o),
(576,600,cs),
(576,415,ls),
(576,357,o),
(524,288,o),
(443,288,cs),
(353,288,o),
(323,348,o),
(323,466,cs),
(323,594,o),
(343,654,o),
(403,654,c),
(403,714,l),
(10,714,l),
(10,638,l),
(197,638,l),
(149,596,o),
(123,539,o),
(123,463,cs),
(123,295,o),
(230,212,o),
(402,212,cs),
(497,212,o),
(537,243,o),
(572,280,c),
(582,280,l),
(578,256,o),
(576,232,o),
(576,206,cs),
(576,114,ls),
(576,78,o),
(555,61,o),
(533,61,cs),
(510,61,l),
(510,0,l),
(843,0,l),
(843,61,l),
(818,61,ls),
(788,61,o),
(776,78,o),
(776,115,cs)
);
}
);
width = 871;
},
{
layerId = m005;
shapes = (
{
closed = 1;
nodes = (
(426,646,ls),
(426,683,o),
(432,694,o),
(472,694,cs),
(492,694,l),
(492,714,l),
(332,714,l),
(332,694,l),
(352,694,ls),
(382,694,o),
(398,683,o),
(398,646,cs),
(398,399,ls),
(398,332,o),
(336,263,o),
(247,263,cs),
(138,263,o),
(96,337,o),
(96,477,cs),
(96,619,o),
(130,690,o),
(225,690,c),
(225,714,l),
(18,714,l),
(18,689,l),
(142,689,l),
(89,654,o),
(68,584,o),
(68,477,cs),
(68,312,o),
(125,238,o),
(245,238,cs),
(303,238,o),
(363,264,o),
(396,330,c),
(400,330,l),
(399,309,o),
(398,289,o),
(398,268,cs),
(398,68,ls),
(398,31,o),
(382,20,o),
(352,20,cs),
(332,20,l),
(332,0,l),
(492,0,l),
(492,20,l),
(472,20,ls),
(432,20,o),
(426,31,o),
(426,68,cs)
);
}
);
width = 526;
},
{
layerId = m006;
shapes = (
{
closed = 1;
nodes = (
(512,608,ls),
(512,657,o),
(531,669,o),
(556,669,cs),
(578,669,l),
(578,714,l),
(353,714,l),
(353,669,l),
(374,669,ls),
(395,669,o),
(418,657,o),
(418,608,cs),
(418,409,ls),
(418,353,o),
(367,293,o),
(286,293,cs),
(181,293,o),
(152,353,o),
(152,476,cs),
(152,607,o),
(177,672,o),
(243,672,c),
(243,714,l),
(-15,714,l),
(-15,665,l),
(119,665,l),
(80,627,o),
(59,564,o),
(59,476,cs),
(59,314,o),
(136,236,o),
(261,236,cs),
(325,236,o),
(383,261,o),
(417,319,c),
(421,319,l),
(419,296,o),
(418,274,o),
(418,252,cs),
(418,106,ls),
(418,57,o),
(395,45,o),
(374,45,cs),
(353,45,l),
(353,0,l),
(578,0,l),
(578,45,l),
(556,45,ls),
(531,45,o),
(512,57,o),
(512,106,cs)
);
}
);
width = 604;
},
{
layerId = m007;
shapes = (
{
closed = 1;
nodes = (
(583,601,ls),
(583,649,o),
(598,663,o),
(625,663,cs),
(647,663,l),
(647,714,l),
(382,714,l),
(382,663,l),
(403,663,ls),
(426,663,o),
(446,649,o),
(446,602,cs),
(446,414,ls),
(446,364,o),
(407,303,o),
(333,303,cs),
(237,303,o),
(215,357,o),
(215,475,cs),
(215,603,o),
(234,664,o),
(291,664,c),
(291,714,l),
(-1,714,l),
(-1,657,l),
(137,657,l),
(98,618,o),
(78,557,o),
(78,474,cs),
(78,312,o),
(163,232,o),
(299,232,cs),
(358,232,o),
(410,257,o),
(445,310,c),
(449,310,l),
(447,286,o),
(446,263,o),
(446,240,cs),
(446,112,ls),
(446,65,o),
(426,51,o),
(403,51,cs),
(382,51,l),
(382,0,l),
(647,0,l),
(647,51,l),
(625,51,ls),
(598,51,o),
(583,65,o),
(583,113,cs)
);
}
);
width = 671;
},
{
layerId = m008;
shapes = (
{
closed = 1;
nodes = (
(637,600,ls),
(637,643,o),
(646,658,o),
(676,658,cs),
(692,658,l),
(692,714,l),
(411,714,l),
(411,658,l),
(425,658,ls),
(449,658,o),
(467,643,o),
(467,601,cs),
(467,418,ls),
(467,372,o),
(438,311,o),
(370,311,cs),
(280,311,o),
(263,360,o),
(263,474,cs),
(263,599,o),
(279,658,o),
(329,658,c),
(329,714,l),
(10,714,l),
(10,650,l),
(150,650,l),
(112,610,o),
(93,551,o),
(93,472,cs),
(93,310,o),
(184,230,o),
(328,230,cs),
(383,230,o),
(431,254,o),
(467,302,c),
(471,302,l),
(468,278,o),
(467,254,o),
(467,230,cs),
(467,113,ls),
(467,71,o),
(449,56,o),
(425,56,cs),
(411,56,l),
(411,0,l),
(692,0,l),
(692,56,l),
(676,56,ls),
(649,56,o),
(637,71,o),
(637,114,cs)
);
}
);
width = 723;
}
);
note = uni10AF;
unicode = 4271;
}
{
glyphname = "Rae-oldgeorgian";
kernRight = "Vin-oldgeorgian";
layers = (
{
layerId = m001;
shapes = (
{
closed = 1;
nodes = (
(379,-10,o),
(453,65,o),
(453,214,cs),
(453,293,ls),
(453,408,o),
(523,477,o),
(608,477,cs),
(684,477,o),
(747,430,o),
(747,338,cs),
(747,288,o),
(733,245,o),
(707,213,c),
(710,211,o),
(715,210,o),
(720,210,cs),
(753,210,o),
(775,281,o),
(775,338,cs),
(775,445,o),
(697,502,o),
(613,502,cs),
(555,502,o),
(483,474,o),
(453,396,c),
(450,396,l),
(452,428,o),
(453,461,o),
(453,493,cs),
(453,624,ls),
(453,685,o),
(463,694,o),
(509,694,cs),
(529,694,l),
(529,714,l),
(346,714,l),
(346,694,l),
(369,694,ls),
(415,694,o),
(425,685,o),
(425,624,cs),
(425,210,ls),
(425,76,o),
(359,15,o),
(259,15,cs),
(161,15,o),
(90,86,o),
(90,200,cs),
(90,252,o),
(104,316,o),
(130,348,c),
(126,350,o),
(122,351,o),
(117,351,cs),
(81,351,o),
(62,255,o),
(62,204,cs),
(62,63,o),
(147,-10,o),
(256,-10,cs)
);
}
);
userData = {
com.schriftgestaltung.Glyphs.glyph.rightMetricsKey = "San-oldgeorgian";
};
width = 837;
},
{
associatedMasterId = m001;
layerId = "D0107968-9ECA-4230-8658-DF1C8119AFFA";
name = "Jan 6 17, 15:47";
shapes = (
{
closed = 1;
nodes = (
(349,-10,o),
(431,51,o),
(431,214,c),
(431,304,l),
(403,304,l),
(403,210,ls),
(403,76,o),
(337,15,o),
(243,15,cs),
(142,15,o),
(90,106,o),
(90,228,cs),
(90,271,o),
(103,320,o),
(126,362,c),
(114,367,o),
(97,366,o),
(89,349,cs),
(77,323,o),
(62,271,o),
(62,228,cs),
(62,88,o),
(126,-10,o),
(241,-10,cs)
);
},
{
closed = 1;
nodes = (
(431,606,l),
(431,624,l),
(431,685,o),
(441,694,o),
(487,694,c),
(507,694,l),
(507,714,l),
(324,714,l),
(324,694,l),
(347,694,l),
(393,694,o),
(403,685,o),
(403,624,c),
(403,606,l)
);
},
{
closed = 1;
nodes = (
(403,617,l),
(403,227,l),
(431,227,l),
(431,240,l),
(431,323,o),
(488,414,o),
(605,414,c),
(694,414,o),
(752,337,o),
(752,220,c),
(752,98,o),
(699,33,o),
(605,20,c),
(605,12,o),
(608,-8,o),
(647,3,cs),
(717,23,o),
(780,79,o),
(780,220,c),
(780,362,o),
(706,439,o),
(605,439,c),
(526,439,o),
(455,395,o),
(431,327,c),
(428,327,l),
(430,359,o),
(431,392,o),
(431,424,c),
(431,617,l)
);
}
);
userData = {
com.schriftgestaltung.Glyphs.glyph.rightMetricsKey = "San-oldgeorgian";
};
width = 845;
},
{
associatedMasterId = m001;
layerId = "14714D3B-613F-45E8-A119-51D7D347C0C2";
name = "Jan 6 17, 15:47.background";
shapes = (
{
closed = 1;
nodes = (
(379,-10,o),
(461,51,o),
(461,214,cs),
(461,340,l),
(496,340,ls),
(572,340,o),
(593,315,o),
(593,259,c),
(612,259,o),
(620,270,o),
(620,289,cs),
(620,331,o),
(593,365,o),
(506,365,cs),
(461,365,l),
(461,714,l),
(433,714,l),
(433,210,ls),
(433,76,o),
(367,15,o),
(253,15,cs),
(122,15,o),
(70,106,o),
(70,219,cs),
(70,346,l),
(42,346,l),
(42,218,ls),
(42,88,o),
(106,-10,o),
(251,-10,cs)
);
}
);
width = 0;
},
{
layerId = m002;
shapes = (
{
closed = 1;
nodes = (
(416,-12,o),
(496,68,o),
(496,223,cs),
(496,301,ls),
(496,405,o),
(548,446,o),
(610,446,cs),
(669,446,o),
(705,407,o),
(705,331,cs),
(705,279,o),
(691,243,o),
(664,211,c),
(680,206,o),
(694,204,o),
(707,204,cs),
(768,204,o),
(803,270,o),
(803,339,cs),
(803,437,o),
(726,506,o),
(629,506,cs),
(576,506,o),
(522,478,o),
(497,435,c),
(492,435,l),
(494,472,o),
(496,501,o),
(496,520,cs),
(496,610,ls),
(496,663,o),
(529,672,o),
(554,672,cs),
(567,672,l),
(567,714,l),
(320,714,l),
(320,672,l),
(333,672,ls),
(358,672,o),
(395,663,o),
(395,610,cs),
(395,220,ls),
(395,107,o),
(350,42,o),
(273,42,cs),
(192,42,o),
(151,99,o),
(151,212,cs),
(151,281,o),
(165,317,o),
(192,352,c),
(176,357,o),
(162,359,o),
(149,359,cs),
(85,359,o),
(50,283,o),
(50,216,cs),
(50,74,o),
(138,-12,o),
(273,-12,cs)
);
}
);
userData = {
com.schriftgestaltung.Glyphs.glyph.rightMetricsKey = "San-oldgeorgian";
};
width = 853;
},
{
layerId = m004;
shapes = (
{
closed = 1;
nodes = (
(500,-14,o),
(608,80,o),
(608,225,cs),
(608,315,ls),
(608,366,o),
(633,401,o),
(674,401,cs),
(715,401,o),
(742,371,o),
(742,318,cs),
(742,277,o),
(736,250,o),
(712,203,c),
(740,189,o),
(767,177,o),
(806,177,cs),
(874,177,o),
(931,229,o),
(931,319,cs),
(931,419,o),
(852,487,o),
(750,487,cs),
(691,487,o),
(647,467,o),
(612,430,c),
(602,430,l),
(607,458,o),
(608,487,o),
(608,519,cs),
(608,599,ls),
(608,636,o),
(622,653,o),
(650,653,cs),
(675,653,l),
(675,714,l),
(342,714,l),
(342,653,l),
(365,653,ls),
(387,653,o),
(408,636,o),
(408,600,cs),
(408,195,ls),
(408,113,o),
(370,62,o),
(323,62,cs),
(271,62,o),
(234,109,o),
(234,195,cs),
(234,257,o),
(256,314,o),
(294,361,c),
(266,375,o),
(229,387,o),
(190,387,cs),
(97,387,o),
(40,315,o),
(40,225,cs),
(40,79,o),
(147,-14,o),
(324,-14,cs)
);
}
);
userData = {
com.schriftgestaltung.Glyphs.glyph.rightMetricsKey = "San-oldgeorgian";
};
width = 971;
},
{
layerId = m005;
shapes = (
{
closed = 1;
nodes = (
(310,-10,o),
(375,45,o),
(375,204,cs),
(375,320,ls),
(375,407,o),
(407,476,o),
(494,476,cs),
(550,476,o),
(596,438,o),
(596,354,cs),
(596,297,o),
(588,263,o),
(558,224,c),
(561,222,o),
(565,222,o),
(569,222,cs),
(606,222,o),
(624,298,o),
(624,353,cs),
(624,448,o),
(571,501,o),
(496,501,cs),
(440,501,o),
(394,470,o),
(377,419,c),
(373,419,l),
(374,440,o),
(375,460,o),
(375,481,cs),
(375,646,ls),
(375,683,o),
(381,694,o),
(415,694,cs),
(435,694,l),
(435,714,l),
(281,714,l),
(281,694,l),
(301,694,ls),
(331,694,o),
(347,683,o),
(347,646,cs),
(347,200,ls),
(347,64,o),
(294,15,o),
(216,15,cs),
(134,15,o),
(90,94,o),
(90,202,cs),
(90,260,o),
(103,315,o),
(140,354,c),
(136,357,o),
(132,358,o),
(128,358,cs),
(87,358,o),
(62,267,o),
(62,200,cs),
(62,69,o),
(124,-10,o),
(217,-10,cs)
);
}
);
userData = {
com.schriftgestaltung.Glyphs.glyph.rightMetricsKey = "San-oldgeorgian";
};
width = 692;
},
{
layerId = m006;
shapes = (
{
closed = 1;
nodes = (
(360,-12,o),
(443,53,o),
(443,206,cs),
(443,328,ls),
(443,419,o),
(479,456,o),
(530,456,cs),
(585,456,o),
(609,411,o),
(609,348,cs),
(609,297,o),
(598,261,o),
(570,218,c),
(581,213,o),
(593,210,o),
(605,210,cs),
(663,210,o),
(700,275,o),
(700,353,cs),
(700,447,o),
(638,506,o),
(554,506,cs),
(500,506,o),
(468,481,o),
(445,443,c),
(441,443,l),
(443,465,o),
(444,486,o),
(444,507,cs),
(444,608,ls),
(444,657,o),
(463,669,o),
(488,669,cs),
(509,669,l),
(509,714,l),
(285,714,l),
(285,669,l),
(306,669,ls),
(328,669,o),
(351,657,o),
(351,608,cs),
(351,200,ls),
(351,83,o),
(308,43,o),
(246,43,cs),
(168,43,o),
(141,118,o),
(141,206,cs),
(141,266,o),
(152,308,o),
(180,351,c),
(169,356,o),
(157,359,o),
(145,359,cs),
(76,359,o),
(50,275,o),
(50,197,cs),
(50,84,o),
(108,-12,o),
(246,-12,cs)
);
}
);
userData = {
com.schriftgestaltung.Glyphs.glyph.rightMetricsKey = "San-oldgeorgian";
};
width = 762;
},
{
layerId = m008;
shapes = (
{
closed = 1;
nodes = (
(433,-14,o),
(532,50,o),
(532,218,cs),
(532,329,ls),
(532,378,o),
(550,411,o),
(587,411,cs),
(627,411,o),
(643,381,o),
(643,327,cs),
(643,289,o),
(635,255,o),
(610,215,c),
(631,204,o),
(656,199,o),
(681,199,cs),
(761,199,o),
(810,252,o),
(810,353,cs),
(810,450,o),
(740,507,o),
(653,507,cs),
(598,507,o),
(561,483,o),
(532,445,c),
(528,445,l),
(531,469,o),
(532,493,o),
(532,517,cs),
(532,600,ls),
(532,643,o),
(544,658,o),
(574,658,cs),
(590,658,l),
(590,714,l),
(309,714,l),
(309,658,l),
(323,658,ls),
(347,658,o),
(365,643,o),
(365,601,c),
(365,210,l),
(365,95,o),
(339,60,o),
(293,60,cs),
(244,60,o),
(221,107,o),
(221,216,cs),
(221,263,o),
(229,307,o),
(254,347,c),
(233,358,o),
(208,363,o),
(183,363,cs),
(96,363,o),
(54,303,o),
(54,214,cs),
(54,76,o),
(111,-14,o),
(292,-14,cs)
);
}
);
userData = {
com.schriftgestaltung.Glyphs.glyph.rightMetricsKey = "San-oldgeorgian";
};
width = 861;
}
);
note = uni10B0;
unicode = 4272;
}
{
glyphname = "San-oldgeorgian";
kernLeft = "Kan-oldgeorgian";
layers = (
{
layerId = m001;
shapes = (
{
closed = 1;
nodes = (
(416,-10,o),
(501,63,o),
(501,204,cs),
(501,255,o),
(482,351,o),
(446,351,cs),
(441,351,o),
(437,350,o),
(433,348,c),
(459,316,o),
(473,252,o),
(473,200,cs),
(473,86,o),
(402,15,o),
(304,15,cs),
(204,15,o),
(138,81,o),
(138,215,cs),
(138,714,l),
(13,714,l),
(13,694,l),
(55,694,ls),
(102,694,o),
(110,683,o),
(110,606,cs),
(110,214,ls),
(110,65,o),
(184,-10,o),
(307,-10,cs)
);
}
);
width = 563;
},
{
layerId = m002;
shapes = (
{
closed = 1;
nodes = (
(468,-12,o),
(556,74,o),
(556,216,cs),
(556,283,o),
(521,359,o),
(457,359,cs),
(444,359,o),
(430,357,o),
(414,352,c),
(441,317,o),
(455,281,o),
(455,212,cs),
(455,99,o),
(414,42,o),
(333,42,cs),
(256,42,o),
(211,107,o),
(211,220,cs),
(211,714,l),
(15,714,l),
(15,672,l),
(28,672,ls),
(79,672,o),
(110,659,o),
(110,604,cs),
(110,223,ls),
(110,68,o),
(200,-12,o),
(333,-12,cs)
);
}
);
width = 606;
},
{
layerId = m003;
shapes = (
{
closed = 1;
nodes = (
(527,-13,o),
(625,76,o),
(625,221,cs),
(625,301,o),
(578,375,o),
(497,375,cs),
(469,375,o),
(443,367,o),
(420,357,c),
(453,315,o),
(471,268,o),
(471,203,cs),
(471,105,o),
(432,53,o),
(368,53,cs),
(308,53,o),
(268,110,o),
(268,206,cs),
(268,714,l),
(16,714,l),
(16,661,l),
(59,661,ls),
(96,661,o),
(110,642,o),
(110,600,cs),
(110,224,ls),
(110,75,o),
(207,-13,o),
(368,-13,cs)
);
}
);
width = 670;
},
{
layerId = m004;
shapes = (
{
closed = 1;
nodes = (
(575,-14,o),
(682,79,o),
(682,225,cs),
(682,315,o),
(625,387,o),
(532,387,cs),
(493,387,o),
(456,375,o),
(428,361,c),
(466,314,o),
(488,257,o),
(488,195,cs),
(488,109,o),
(451,62,o),
(402,62,cs),
(352,62,o),
(314,113,o),
(314,195,cs),
(314,714,l),
(28,714,l),
(28,654,l),
(70,654,ls),
(107,654,o),
(120,640,o),
(120,593,cs),
(120,224,ls),
(120,79,o),
(222,-14,o),
(401,-14,cs)
);
}
);
width = 722;
},
{
layerId = m005;
shapes = (
{
closed = 1;
nodes = (
(334,-10,o),
(396,69,o),
(396,200,cs),
(396,267,o),
(371,358,o),
(330,358,cs),
(326,358,o),
(322,357,o),
(318,354,c),
(355,315,o),
(368,260,o),
(368,202,cs),
(368,94,o),
(324,15,o),
(242,15,cs),
(164,15,o),
(111,64,o),
(111,200,cs),
(111,714,l),
(10,714,l),
(10,694,l),
(33,694,ls),
(79,694,o),
(83,683,o),
(83,609,cs),
(83,204,ls),
(83,45,o),
(148,-10,o),
(241,-10,cs)
);
}
);
width = 464;
},
{
layerId = m006;
shapes = (
{
closed = 1;
nodes = (
(432,-12,o),
(490,84,o),
(490,197,cs),
(490,275,o),
(464,359,o),
(395,359,cs),
(383,359,o),
(371,356,o),
(360,351,c),
(388,308,o),
(399,266,o),
(399,206,cs),
(399,118,o),
(372,43,o),
(294,43,cs),
(232,43,o),
(189,83,o),
(189,200,cs),
(189,714,l),
(22,714,l),
(22,673,l),
(45,673,ls),
(88,673,o),
(97,665,o),
(97,600,cs),
(97,206,ls),
(97,53,o),
(180,-12,o),
(294,-12,cs)
);
}
);
width = 552;
},
{
layerId = m007;
shapes = (
{
closed = 1;
nodes = (
(474,-13,o),
(531,79,o),
(531,207,cs),
(531,291,o),
(496,361,o),
(416,361,cs),
(396,361,o),
(378,357,o),
(361,349,c),
(387,307,o),
(396,264,o),
(396,212,cs),
(396,112,o),
(372,53,o),
(310,53,cs),
(257,53,o),
(224,90,o),
(224,206,cs),
(224,714,l),
(13,714,l),
(13,665,l),
(36,665,ls),
(78,665,o),
(89,658,o),
(89,599,cs),
(89,213,ls),
(89,51,o),
(182,-13,o),
(310,-13,cs)
);
}
);
width = 588;
},
{
layerId = m008;
shapes = (
{
closed = 1;
nodes = (
(514,-14,o),
(571,76,o),
(571,214,cs),
(571,303,o),
(529,363,o),
(442,363,cs),
(417,363,o),
(392,358,o),
(371,347,c),
(396,307,o),
(404,263,o),
(404,216,cs),
(404,107,o),
(381,60,o),
(332,60,cs),
(286,60,o),
(260,95,o),
(260,210,cs),
(260,714,l),
(14,714,l),
(14,658,l),
(38,658,ls),
(78,658,o),
(92,653,o),
(92,599,cs),
(92,218,ls),
(92,50,o),
(192,-14,o),
(333,-14,cs)
);
}
);
width = 622;
}
);
note = uni10B1;
unicode = 4273;
}
{
glyphname = "Tar-oldgeorgian";
kernLeft = "Tar-oldgeorgian";
layers = (
{
layerId = m001;
shapes = (
{
closed = 1;
nodes = (
(472,-81,o),
(480,-70,o),
(480,-51,cs),
(480,-10,o),
(453,25,o),
(364,25,cs),
(177,25,l),
(177,284,l),
(277,284,ls),
(452,284,o),
(511,383,o),
(511,509,cs),
(511,639,o),
(449,714,o),
(299,714,cs),
(50,714,l),
(50,694,l),
(93,694,ls),
(143,694,o),
(149,683,o),
(149,606,cs),
(149,0,l),
(356,0,ls),
(434,0,o),
(453,-25,o),
(453,-81,c)
);
},
{
closed = 1;
nodes = (
(177,689,l),
(299,689,ls),
(430,689,o),
(483,624,o),
(483,509,cs),
(483,401,o),
(438,309,o),
(276,309,cs),
(177,309,l)
);
}
);
width = 562;
},
{
layerId = m002;
shapes = (
{
closed = 1;
nodes = (
(499,-95,o),
(526,-73,o),
(526,-34,cs),
(526,25,o),
(479,54,o),
(385,54,cs),
(211,54,l),
(211,278,l),
(274,278,ls),
(444,278,o),
(542,360,o),
(542,505,cs),
(542,640,o),
(458,714,o),
(296,714,cs),
(15,714,l),
(15,672,l),
(28,672,ls),
(79,672,o),
(110,659,o),
(110,604,cs),
(110,0,l),
(331,0,ls),
(417,0,o),
(448,-16,o),
(448,-95,c)
);
},
{
closed = 1;
nodes = (
(211,666,l),
(279,666,ls),
(388,666,o),
(434,618,o),
(434,501,cs),
(434,376,o),
(387,325,o),
(264,325,cs),
(211,325,l)
);
}
);
width = 604;
},
{
layerId = m003;
shapes = (
{
closed = 1;
nodes = (
(523,-128,o),
(566,-93,o),
(566,-37,cs),
(566,27,o),
(507,61,o),
(396,61,cs),
(263,61,l),
(263,273,l),
(297,273,ls),
(467,273,o),
(592,345,o),
(592,502,cs),
(592,639,o),
(496,714,o),
(319,714,cs),
(11,714,l),
(11,661,l),
(54,661,ls),
(91,661,o),
(105,643,o),
(105,600,cs),
(105,0,l),
(330,0,ls),
(422,0,o),
(456,-36,o),
(456,-128,c)
);
},
{
closed = 1;
nodes = (
(263,655,l),
(302,655,ls),
(388,655,o),
(424,609,o),
(424,498,cs),
(424,377,o),
(385,331,o),
(287,331,cs),
(263,331,l)
);
}
);
width = 622;
},
{
layerId = m004;
shapes = (
{
closed = 1;
nodes = (
(565,-151,o),
(610,-105,o),
(610,-40,cs),
(610,44,o),
(548,76,o),
(413,76,cs),
(313,76,l),
(313,269,l),
(335,269,ls),
(572,269,o),
(660,367,o),
(660,500,cs),
(660,643,o),
(565,714,o),
(357,714,cs),
(21,714,l),
(21,653,l),
(66,653,ls),
(88,653,o),
(113,646,o),
(113,597,cs),
(113,0,l),
(368,0,ls),
(414,0,o),
(478,-28,o),
(478,-151,c)
);
},
{
closed = 1;
nodes = (
(312,647,l),
(340,647,ls),
(416,647,o),
(452,599,o),
(452,496,cs),
(452,381,o),
(413,335,o),
(326,335,cs),
(312,335,l)
);
}
);
width = 663;
},
{
layerId = m005;
shapes = (
{
closed = 1;
nodes = (
(364,-81,o),
(374,-70,o),
(374,-51,cs),
(374,8,o),
(338,25,o),
(294,25,cs),
(137,25,l),
(137,284,l),
(207,284,ls),
(349,284,o),
(393,399,o),
(393,509,cs),
(393,647,o),
(339,714,o),
(217,714,cs),
(36,714,l),
(36,694,l),
(53,694,ls),
(103,694,o),
(109,683,o),
(109,606,cs),
(109,0,l),
(289,0,ls),
(330,0,o),
(347,-15,o),
(347,-81,c)
);
},
{
closed = 1;
nodes = (
(137,689,l),
(217,689,ls),
(325,689,o),
(365,629,o),
(365,509,cs),
(365,420,o),
(333,309,o),
(210,309,cs),
(137,309,l)
);
}
);
width = 453;
},
{
layerId = m006;
shapes = (
{
closed = 1;
nodes = (
(411,-109,o),
(435,-78,o),
(435,-40,cs),
(435,29,o),
(379,51,o),
(298,51,cs),
(195,51,l),
(195,278,l),
(241,278,ls),
(404,278,o),
(462,384,o),
(462,506,cs),
(462,637,o),
(398,714,o),
(259,714,cs),
(28,714,l),
(28,673,l),
(44,673,ls),
(77,673,o),
(102,664,o),
(102,605,cs),
(102,0,l),
(293,0,ls),
(340,0,o),
(368,-23,o),
(368,-109,c)
);
},
{
closed = 1;
nodes = (
(195,667,l),
(245,667,ls),
(331,667,o),
(365,614,o),
(365,502,cs),
(365,374,o),
(327,324,o),
(234,324,cs),
(195,324,l)
);
}
);
width = 515;
},
{
layerId = m007;
shapes = (
{
closed = 1;
nodes = (
(448,-126,o),
(480,-90,o),
(480,-41,cs),
(480,33,o),
(420,60,o),
(311,60,cs),
(233,60,l),
(233,274,l),
(264,274,ls),
(445,274,o),
(513,377,o),
(513,503,cs),
(513,640,o),
(440,714,o),
(282,714,cs),
(23,714,l),
(23,665,l),
(51,665,ls),
(76,665,o),
(98,657,o),
(98,601,cs),
(98,0,l),
(303,0,ls),
(354,0,o),
(387,-28,o),
(387,-126,c)
);
},
{
closed = 1;
nodes = (
(232,659,l),
(268,659,ls),
(341,659,o),
(372,608,o),
(372,499,cs),
(372,377,o),
(338,328,o),
(256,328,cs),
(232,328,l)
);
}
);
width = 554;
},
{
layerId = m008;
shapes = (
{
closed = 1;
nodes = (
(476,-140,o),
(515,-100,o),
(515,-41,cs),
(515,36,o),
(451,68,o),
(320,68,cs),
(262,68,l),
(262,271,l),
(280,271,ls),
(477,271,o),
(551,371,o),
(551,501,cs),
(551,642,o),
(472,714,o),
(298,714,cs),
(18,714,l),
(18,658,l),
(55,658,ls),
(74,658,o),
(94,651,o),
(94,599,cs),
(94,0,l),
(309,0,ls),
(365,0,o),
(401,-32,o),
(401,-140,c)
);
},
{
closed = 1;
nodes = (
(261,652,l),
(284,652,ls),
(347,652,o),
(377,603,o),
(377,497,cs),
(377,379,o),
(345,332,o),
(272,332,cs),
(261,332,l)
);
}
);
width = 583;
}
);
note = uni10B2;
unicode = 4274;
}
{
glyphname = "Un-oldgeorgian";
kernLeft = "On-oldgeorgian";
layers = (
{
layerId = m001;
shapes = (
{
closed = 1;
nodes = (
(589,-160,o),
(657,-116,o),
(657,0,cs),
(657,63,o),
(629,114,o),
(587,137,c),
(615,196,o),
(627,271,o),
(627,358,cs),
(627,590,o),
(547,724,o),
(344,724,cs),
(157,724,o),
(58,592,o),
(58,359,cs),
(58,125,o),
(153,-10,o),
(343,-10,cs),
(456,-10,o),
(531,35,o),
(576,114,c),
(607,92,o),
(629,49,o),
(629,0,cs),
(629,-97,o),
(576,-137,o),
(521,-137,cs),
(486,-137,o),
(444,-126,o),
(444,-84,c),
(428,-84,o),
(418,-93,o),
(418,-106,cs),
(418,-140,o),
(462,-160,o),
(517,-160,cs)
);
},
{
closed = 1;
nodes = (
(172,15,o),
(86,143,o),
(86,358,cs),
(86,573,o),
(172,699,o),
(344,699,cs),
(530,699,o),
(599,573,o),
(599,358,cs),
(599,145,o),
(524,15,o),
(343,15,cs)
);
}
);
width = 686;
},
{
layerId = m002;
shapes = (
{
closed = 1;
nodes = (
(650,-174,o),
(713,-120,o),
(713,-40,cs),
(713,24,o),
(675,75,o),
(605,92,c),
(658,158,o),
(685,247,o),
(685,358,cs),
(685,589,o),
(567,726,o),
(372,726,cs),
(168,726,o),
(56,592,o),
(56,359,cs),
(56,123,o),
(170,-13,o),
(371,-13,cs),
(447,-13,o),
(509,9,o),
(559,48,c),
(598,38,o),
(622,4,o),
(622,-46,cs),
(622,-88,o),
(599,-114,o),
(558,-114,cs),
(528,-114,o),
(505,-101,o),
(487,-74,c),
(475,-80,o),
(467,-97,o),
(467,-114,cs),
(467,-148,o),
(508,-174,o),
(567,-174,cs)
);
},
{
closed = 1;
nodes = (
(234,41,o),
(167,143,o),
(167,358,cs),
(167,576,o),
(234,672,o),
(372,672,cs),
(509,672,o),
(574,575,o),
(574,358,cs),
(574,142,o),
(508,41,o),
(371,41,cs)
);
}
);
width = 746;
},
{
layerId = m004;
shapes = (
{
closed = 1;
nodes = (
(706,-185,o),
(791,-137,o),
(791,-27,cs),
(791,50,o),
(753,99,o),
(698,121,c),
(743,182,o),
(766,263,o),
(766,358,cs),
(766,580,o),
(639,728,o),
(412,728,cs),
(171,728,o),
(54,580,o),
(54,359,cs),
(54,137,o),
(171,-14,o),
(411,-14,cs),
(505,-14,o),
(582,15,o),
(640,60,c),
(656,49,o),
(664,23,o),
(664,-20,cs),
(664,-71,o),
(628,-91,o),
(606,-91,cs),
(575,-91,o),
(565,-77,o),
(560,-68,c),
(514,-68,o),
(500,-88,o),
(500,-118,cs),
(500,-137,o),
(524,-185,o),
(613,-185,cs)
);
},
{
closed = 1;
nodes = (
(304,59,o),
(264,172,o),
(264,358,cs),
(264,544,o),
(304,655,o),
(412,655,cs),
(518,655,o),
(556,544,o),
(556,358,cs),
(556,172,o),
(518,59,o),
(411,59,cs)
);
}
);
width = 820;
},
{
layerId = m005;
shapes = (
{
closed = 1;
nodes = (
(456,-160,o),
(504,-117,o),
(504,-34,cs),
(504,29,o),
(475,70,o),
(428,89,c),
(465,152,o),
(485,243,o),
(485,358,cs),
(485,610,o),
(414,724,o),
(265,724,cs),
(118,724,o),
(44,596,o),
(44,359,cs),
(44,137,o),
(116,-10,o),
(264,-10,cs),
(327,-10,o),
(378,17,o),
(415,68,c),
(452,52,o),
(474,18,o),
(474,-33,cs),
(474,-101,o),
(440,-135,o),
(386,-135,cs),
(345,-135,o),
(324,-119,o),
(324,-78,c),
(309,-78,o),
(299,-86,o),
(299,-108,cs),
(299,-136,o),
(330,-160,o),
(386,-160,cs)
);
},
{
closed = 1;
nodes = (
(137,15,o),
(72,153,o),
(72,358,cs),
(72,574,o),
(131,699,o),
(265,699,cs),
(406,699,o),
(457,574,o),
(457,358,cs),
(457,146,o),
(392,15,o),
(264,15,cs)
);
}
);
width = 530;
},
{
layerId = m006;
shapes = (
{
closed = 1;
nodes = (
(519,-171,o),
(571,-122,o),
(571,-43,cs),
(571,15,o),
(542,65,o),
(487,93,c),
(529,157,o),
(552,248,o),
(552,358,cs),
(552,581,o),
(469,726,o),
(298,726,cs),
(127,726,o),
(44,581,o),
(44,359,cs),
(44,137,o),
(127,-11,o),
(297,-11,cs),
(361,-11,o),
(414,13,o),
(454,55,c),
(480,34,o),
(491,3,o),
(491,-42,cs),
(491,-97,o),
(466,-125,o),
(431,-125,cs),
(399,-125,o),
(383,-113,o),
(375,-78,c),
(340,-78,o),
(320,-94,o),
(320,-112,cs),
(320,-150,o),
(364,-171,o),
(434,-171,cs)
);
},
{
closed = 1;
nodes = (
(189,42,o),
(144,160,o),
(144,358,cs),
(144,557,o),
(189,674,o),
(298,674,cs),
(409,674,o),
(452,557,o),
(452,358,cs),
(452,160,o),
(411,42,o),
(297,42,cs)
);
}
);
width = 597;
},
{
layerId = m008;
shapes = (
{
closed = 1;
nodes = (
(594,-189,o),
(667,-130,o),
(667,-38,cs),
(667,35,o),
(632,79,o),
(571,99,c),
(616,163,o),
(639,250,o),
(639,358,cs),
(639,583,o),
(539,728,o),
(344,728,cs),
(142,728,o),
(45,583,o),
(45,359,cs),
(45,133,o),
(142,-14,o),
(343,-14,cs),
(407,-14,o),
(462,3,o),
(506,34,c),
(517,18,o),
(524,-6,o),
(524,-33,cs),
(524,-93,o),
(492,-111,o),
(462,-111,cs),
(432,-111,o),
(420,-99,o),
(410,-63,c),
(350,-63,o),
(327,-88,o),
(327,-110,cs),
(327,-164,o),
(383,-189,o),
(477,-189,cs)
);
},
{
closed = 1;
nodes = (
(254,54,o),
(221,165,o),
(221,358,cs),
(221,550,o),
(254,660,o),
(344,660,cs),
(432,660,o),
(464,550,o),
(464,358,cs),
(464,165,o),
(432,54,o),
(343,54,cs)
);
}
);
width = 684;
}
);
note = uni10B3;
unicode = 4275;
}
{
glyphname = "Phar-oldgeorgian";
layers = (
{
layerId = m001;
shapes = (
{
closed = 1;
nodes = (
(362,0,l),
(362,238,l),
(549,248,o),
(639,324,o),
(639,477,cs),
(639,632,o),
(544,724,o),
(349,724,cs),
(153,724,o),
(57,631,o),
(57,477,cs),
(57,326,o),
(145,248,o),
(334,238,c),
(334,0,l)
);
},
{
closed = 1;
nodes = (
(164,273,o),
(85,342,o),
(85,477,cs),
(85,618,o),
(166,699,o),
(334,699,c),
(334,263,l)
);
},
{
closed = 1;
nodes = (
(362,699,l),
(527,692,o),
(611,620,o),
(611,477,cs),
(611,344,o),
(536,273,o),
(362,263,c)
);
}
);
width = 696;
},
{
layerId = m002;
shapes = (
{
closed = 1;
nodes = (
(439,0,l),
(439,194,l),
(626,208,o),
(735,308,o),
(735,462,cs),
(735,628,o),
(609,726,o),
(397,726,cs),
(177,726,o),
(56,633,o),
(56,463,cs),
(56,307,o),
(158,209,o),
(343,194,c),
(343,0,l)
);
},
{
closed = 1;
nodes = (
(226,261,o),
(167,332,o),
(167,462,cs),
(167,594,o),
(226,664,o),
(343,672,c),
(343,249,l)
);
},
{
closed = 1;
nodes = (
(439,672,l),
(562,662,o),
(624,596,o),
(624,462,cs),
(624,329,o),
(563,261,o),
(439,249,c)
);
}
);
width = 793;
},
{
layerId = m003;
shapes = (
{
closed = 1;
nodes = (
(498,0,l),
(498,190,l),
(691,200,o),
(801,296,o),
(801,461,cs),
(801,637,o),
(671,727,o),
(422,727,cs),
(176,727,o),
(49,637,o),
(49,461,cs),
(49,298,o),
(164,198,o),
(352,190,c),
(352,0,l)
);
},
{
closed = 1;
nodes = (
(254,255,o),
(211,322,o),
(211,463,cs),
(211,591,o),
(255,660,o),
(352,668,c),
(352,249,l)
);
},
{
closed = 1;
nodes = (
(498,668,l),
(598,659,o),
(639,600,o),
(639,463,cs),
(639,326,o),
(616,264,o),
(498,249,c)
);
}
);
width = 851;
},
{
layerId = m004;
shapes = (
{
closed = 1;
nodes = (
(523,0,l),
(523,163,l),
(730,173,o),
(836,295,o),
(836,440,cs),
(836,613,o),
(739,728,o),
(436,728,cs),
(133,728,o),
(28,611,o),
(28,440,cs),
(28,296,o),
(132,173,o),
(340,163,c),
(340,0,l)
);
},
{
closed = 1;
nodes = (
(241,239,o),
(210,311,o),
(210,436,cs),
(210,557,o),
(240,646,o),
(340,661,c),
(340,229,l)
);
},
{
closed = 1;
nodes = (
(523,661,l),
(621,651,o),
(653,562,o),
(653,436,cs),
(653,316,o),
(621,239,o),
(523,229,c)
);
}
);
width = 864;
},
{
layerId = m005;
shapes = (
{
closed = 1;
nodes = (
(280,0,l),
(280,228,l),
(424,238,o),
(496,330,o),
(496,480,cs),
(496,634,o),
(410,724,o),
(267,724,cs),
(123,724,o),
(36,636,o),
(36,474,cs),
(36,322,o),
(108,238,o),
(252,228,c),
(252,0,l)
);
},
{
closed = 1;
nodes = (
(128,263,o),
(64,336,o),
(64,475,cs),
(64,611,o),
(126,689,o),
(252,699,c),
(252,253,l)
);
},
{
closed = 1;
nodes = (
(280,699,l),
(402,689,o),
(468,618,o),
(468,481,cs),
(468,339,o),
(405,263,o),
(280,253,c)
);
}
);
width = 532;
},
{
layerId = m006;
shapes = (
{
closed = 1;
nodes = (
(354,0,l),
(354,225,l),
(509,238,o),
(589,328,o),
(589,479,cs),
(589,640,o),
(503,726,o),
(311,726,cs),
(116,726,o),
(31,632,o),
(31,479,cs),
(31,327,o),
(107,238,o),
(267,225,c),
(267,0,l)
);
},
{
closed = 1;
nodes = (
(164,283,o),
(120,348,o),
(120,478,cs),
(120,589,o),
(161,667,o),
(267,681,c),
(267,270,l)
);
},
{
closed = 1;
nodes = (
(354,681,l),
(456,668,o),
(499,599,o),
(499,478,cs),
(499,351,o),
(458,283,o),
(354,270,c)
);
}
);
width = 620;
},
{
layerId = m007;
shapes = (
{
closed = 1;
nodes = (
(399,0,l),
(399,221,l),
(561,238,o),
(647,327,o),
(647,476,cs),
(647,642,o),
(553,727,o),
(338,727,cs),
(116,727,o),
(27,634,o),
(27,476,cs),
(27,326,o),
(110,238,o),
(275,221,c),
(275,0,l)
);
},
{
closed = 1;
nodes = (
(185,292,o),
(152,346,o),
(152,474,cs),
(152,582,o),
(183,654,o),
(275,673,c),
(275,275,l)
);
},
{
closed = 1;
nodes = (
(399,673,l),
(488,656,o),
(521,589,o),
(521,474,cs),
(521,350,o),
(489,292,o),
(399,275,c)
);
}
);
width = 674;
},
{
layerId = m008;
shapes = (
{
closed = 1;
nodes = (
(435,0,l),
(435,218,l),
(603,238,o),
(692,326,o),
(692,474,cs),
(692,645,o),
(591,728,o),
(359,728,cs),
(117,728,o),
(24,639,o),
(24,474,cs),
(24,324,o),
(112,238,o),
(282,218,c),
(282,0,l)
);
},
{
closed = 1;
nodes = (
(202,299,o),
(176,344,o),
(176,471,cs),
(176,579,o),
(201,643,o),
(282,667,c),
(282,279,l)
);
},
{
closed = 1;
nodes = (
(435,667,l),
(513,647,o),
(539,584,o),
(539,471,cs),
(539,349,o),
(513,299,o),
(435,279,c)
);
}
);
width = 716;
}
);
note = uni10B4;
unicode = 4276;
}
{
glyphname = "Khar-oldgeorgian";
layers = (
{
layerId = m001;
shapes = (
{
closed = 1;
nodes = (
(459,494,o),
(406,485,o),
(308,467,c),
(308,624,ls),
(308,685,o),
(318,694,o),
(364,694,cs),
(384,694,l),
(384,714,l),
(201,714,l),
(201,694,l),
(224,694,ls),
(270,694,o),
(280,685,o),
(280,624,cs),
(280,461,l),
(208,449,o),
(143,442,o),
(121,442,cs),
(91,442,o),
(78,454,o),
(76,484,c),
(55,478,o),
(44,467,o),
(44,453,cs),
(44,430,o),
(63,416,o),
(93,416,cs),
(124,416,o),
(225,429,o),
(280,439,c),
(280,0,l),
(308,0,l),
(308,445,l),
(374,458,o),
(424,468,o),
(471,468,cs),
(502,468,o),
(513,449,o),
(518,419,c),
(537,425,o),
(549,438,o),
(549,455,cs),
(549,481,o),
(530,494,o),
(501,494,cs)
);
}
);
width = 593;
},
{
layerId = m002;
shapes = (
{
closed = 1;
nodes = (
(482,473,o),
(440,466,o),
(365,451,c),
(365,610,ls),
(365,663,o),
(398,672,o),
(423,672,cs),
(436,672,l),
(436,714,l),
(189,714,l),
(189,672,l),
(202,672,ls),
(227,672,o),
(264,663,o),
(264,610,cs),
(264,430,l),
(231,424,o),
(193,421,o),
(167,421,cs),
(120,421,o),
(97,441,o),
(89,494,c),
(46,484,o),
(20,459,o),
(20,430,cs),
(20,383,o),
(53,360,o),
(119,360,cs),
(147,360,o),
(201,367,o),
(264,381,c),
(264,0,l),
(365,0,l),
(365,401,l),
(407,409,o),
(433,413,o),
(462,413,cs),
(511,413,o),
(533,385,o),
(540,313,c),
(583,326,o),
(608,354,o),
(608,391,cs),
(608,446,o),
(575,473,o),
(510,473,cs)
);
}
);
width = 628;
},
{
layerId = m003;
shapes = (
{
closed = 1;
nodes = (
(499,473,o),
(456,466,o),
(408,456,c),
(408,606,ls),
(408,653,o),
(430,661,o),
(459,661,cs),
(481,661,l),
(481,714,l),
(179,714,l),
(179,661,l),
(201,661,ls),
(230,661,o),
(250,653,o),
(250,606,cs),
(250,429,l),
(226,424,o),
(201,421,o),
(180,421,cs),
(134,421,o),
(115,446,o),
(115,516,c),
(55,516,o),
(15,484,o),
(15,437,cs),
(15,387,o),
(57,353,o),
(121,353,cs),
(168,353,o),
(211,359,o),
(250,368,c),
(250,0,l),
(408,0,l),
(408,395,l),
(431,402,o),
(456,405,o),
(477,405,cs),
(521,405,o),
(543,379,o),
(543,308,c),
(610,308,o),
(643,334,o),
(643,387,cs),
(643,438,o),
(602,473,o),
(537,473,cs)
);
}
);
width = 658;
},
{
layerId = m004;
shapes = (
{
closed = 1;
nodes = (
(562,514,o),
(517,502,o),
(473,486,c),
(473,599,ls),
(473,636,o),
(487,653,o),
(515,653,cs),
(540,653,l),
(540,714,l),
(207,714,l),
(207,653,l),
(230,653,ls),
(252,653,o),
(273,636,o),
(273,600,cs),
(273,448,l),
(256,444,o),
(237,442,o),
(221,442,cs),
(172,442,o),
(152,467,o),
(152,514,c),
(70,514,o),
(24,472,o),
(24,428,cs),
(24,362,o),
(73,339,o),
(119,339,cs),
(151,339,o),
(205,348,o),
(273,370,c),
(273,0,l),
(473,0,l),
(473,413,l),
(486,416,o),
(496,418,o),
(508,418,cs),
(563,418,o),
(596,392,o),
(596,323,c),
(669,323,o),
(724,356,o),
(724,418,cs),
(724,475,o),
(680,514,o),
(612,514,cs)
);
}
);
width = 748;
},
{
layerId = m005;
shapes = (
{
closed = 1;
nodes = (
(357,524,o),
(288,509,o),
(253,501,c),
(253,646,ls),
(253,683,o),
(259,694,o),
(299,694,cs),
(319,694,l),
(319,714,l),
(159,714,l),
(159,694,l),
(179,694,ls),
(209,694,o),
(225,683,o),
(225,646,cs),
(225,496,l),
(179,487,o),
(139,483,o),
(120,483,cs),
(90,483,o),
(67,494,o),
(65,524,c),
(46,518,o),
(35,507,o),
(35,493,cs),
(35,470,o),
(54,459,o),
(92,459,cs),
(128,459,o),
(194,470,o),
(225,476,c),
(225,0,l),
(253,0,l),
(253,482,l),
(307,494,o),
(339,500,o),
(367,500,cs),
(404,500,o),
(413,479,o),
(418,449,c),
(436,455,o),
(447,468,o),
(447,485,cs),
(447,511,o),
(428,524,o),
(391,524,cs)
);
}
);
width = 482;
},
{
layerId = m006;
shapes = (
{
closed = 1;
nodes = (
(384,510,o),
(350,502,o),
(303,484,c),
(303,608,ls),
(303,657,o),
(323,669,o),
(348,669,cs),
(369,669,l),
(369,714,l),
(144,714,l),
(144,669,l),
(165,669,ls),
(187,669,o),
(210,657,o),
(210,608,cs),
(210,463,l),
(184,455,o),
(158,451,o),
(136,451,cs),
(103,451,o),
(87,473,o),
(85,510,c),
(44,502,o),
(19,480,o),
(19,453,cs),
(19,415,o),
(42,392,o),
(93,392,cs),
(113,392,o),
(157,401,o),
(210,417,c),
(210,0,l),
(303,0,l),
(303,438,l),
(332,446,o),
(356,449,o),
(370,449,cs),
(401,449,o),
(426,433,o),
(427,375,c),
(462,382,o),
(497,405,o),
(497,441,cs),
(497,484,o),
(465,510,o),
(413,510,cs)
);
}
);
width = 516;
},
{
layerId = m007;
shapes = (
{
closed = 1;
nodes = (
(439,518,o),
(400,510,o),
(354,493,c),
(354,601,ls),
(354,649,o),
(369,663,o),
(396,663,cs),
(418,663,l),
(418,714,l),
(154,714,l),
(154,663,l),
(175,663,ls),
(197,663,o),
(217,649,o),
(217,602,cs),
(217,465,l),
(201,460,o),
(185,458,o),
(162,458,cs),
(128,458,o),
(111,478,o),
(110,518,c),
(52,514,o),
(18,487,o),
(18,456,cs),
(18,419,o),
(36,390,o),
(101,390,cs),
(122,390,o),
(168,397,o),
(217,410,c),
(217,0,l),
(354,0,l),
(354,438,l),
(372,442,o),
(392,445,o),
(412,445,cs),
(443,445,o),
(464,427,o),
(464,373,c),
(514,377,o),
(561,400,o),
(561,445,cs),
(561,488,o),
(528,518,o),
(473,518,cs)
);
}
);
width = 579;
},
{
layerId = m008;
shapes = (
{
closed = 1;
nodes = (
(481,524,o),
(438,516,o),
(393,501,c),
(393,600,ls),
(393,643,o),
(402,658,o),
(432,658,cs),
(448,658,l),
(448,714,l),
(167,714,l),
(167,658,l),
(181,658,ls),
(205,658,o),
(223,643,o),
(223,601,cs),
(223,467,l),
(213,465,o),
(204,463,o),
(182,463,cs),
(147,463,o),
(129,483,o),
(129,524,c),
(58,524,o),
(16,492,o),
(16,458,cs),
(16,424,o),
(30,390,o),
(107,390,cs),
(128,390,o),
(176,395,o),
(223,405,c),
(223,0,l),
(393,0,l),
(393,439,l),
(403,440,o),
(420,443,o),
(444,443,cs),
(475,443,o),
(493,423,o),
(493,373,c),
(554,373,o),
(610,397,o),
(610,449,cs),
(610,491,o),
(576,524,o),
(519,524,cs)
);
}
);
width = 626;
}
);
note = uni10B5;
unicode = 4277;
}
{
glyphname = "Ghan-oldgeorgian";
layers = (
{
layerId = m001;
shapes = (
{
closed = 1;
nodes = (
(604,20,o),
(594,29,o),
(594,90,cs),
(594,500,ls),
(594,663,o),
(502,724,o),
(364,724,cs),
(209,724,o),
(135,626,o),
(135,496,cs),
(135,90,ls),
(135,29,o),
(125,20,o),
(79,20,cs),
(56,20,l),
(56,0,l),
(239,0,l),
(239,20,l),
(219,20,ls),
(173,20,o),
(163,29,o),
(163,90,cs),
(163,495,ls),
(163,608,o),
(225,699,o),
(366,699,cs),
(490,699,o),
(566,638,o),
(566,504,cs),
(566,90,ls),
(566,29,o),
(556,20,o),
(510,20,cs),
(487,20,l),
(487,0,l),
(670,0,l),
(670,20,l),
(650,20,ls)
);
}
);
width = 729;
},
{
layerId = m002;
shapes = (
{
closed = 1;
nodes = (
(671,42,o),
(638,51,o),
(638,104,cs),
(638,510,ls),
(638,646,o),
(546,724,o),
(384,724,cs),
(207,724,o),
(122,650,o),
(122,498,cs),
(122,104,ls),
(122,51,o),
(85,42,o),
(60,42,cs),
(47,42,l),
(47,0,l),
(294,0,l),
(294,42,l),
(281,42,ls),
(256,42,o),
(223,51,o),
(223,104,cs),
(223,504,ls),
(223,610,o),
(279,670,o),
(380,670,cs),
(478,670,o),
(537,608,o),
(537,508,cs),
(537,104,ls),
(537,51,o),
(500,42,o),
(475,42,cs),
(462,42,l),
(462,0,l),
(709,0,l),
(709,42,l),
(696,42,ls)
);
}
);
width = 751;
},
{
layerId = m003;
shapes = (
{
closed = 1;
nodes = (
(686,52,o),
(666,60,o),
(666,107,cs),
(666,499,ls),
(666,651,o),
(571,727,o),
(380,727,cs),
(198,727,o),
(100,646,o),
(100,499,cs),
(100,107,ls),
(100,60,o),
(80,52,o),
(51,52,cs),
(29,52,l),
(29,-1,l),
(318,-1,l),
(318,52,l),
(306,52,ls),
(280,52,o),
(258,60,o),
(258,107,cs),
(258,507,ls),
(258,604,o),
(303,656,o),
(383,656,cs),
(468,656,o),
(508,608,o),
(508,507,cs),
(508,107,ls),
(508,60,o),
(486,52,o),
(460,52,cs),
(448,52,l),
(448,-1,l),
(737,-1,l),
(737,52,l),
(715,52,ls)
);
}
);
width = 766;
},
{
layerId = m004;
shapes = (
{
closed = 1;
nodes = (
(705,61,o),
(684,78,o),
(684,114,cs),
(684,493,ls),
(684,638,o),
(578,728,o),
(389,728,cs),
(206,728,o),
(95,649,o),
(95,494,cs),
(95,114,ls),
(95,78,o),
(74,61,o),
(52,61,cs),
(29,61,l),
(29,0,l),
(346,0,l),
(346,61,l),
(331,61,ls),
(303,61,o),
(289,78,o),
(289,115,cs),
(289,526,ls),
(289,612,o),
(328,652,o),
(389,652,cs),
(455,652,o),
(490,605,o),
(490,523,cs),
(490,115,ls),
(490,78,o),
(476,61,o),
(448,61,cs),
(433,61,l),
(433,0,l),
(750,0,l),
(750,61,l),
(727,61,ls)
);
}
);
width = 779;
},
{
layerId = m005;
shapes = (
{
closed = 1;
nodes = (
(463,20,o),
(457,31,o),
(457,68,cs),
(457,500,ls),
(457,659,o),
(387,724,o),
(284,724,cs),
(161,724,o),
(104,625,o),
(104,514,cs),
(104,68,ls),
(104,31,o),
(88,20,o),
(58,20,cs),
(38,20,l),
(38,0,l),
(198,0,l),
(198,20,l),
(178,20,ls),
(138,20,o),
(132,31,o),
(132,68,cs),
(132,512,ls),
(132,600,o),
(171,699,o),
(283,699,cs),
(371,699,o),
(429,640,o),
(429,504,cs),
(429,68,ls),
(429,31,o),
(413,20,o),
(383,20,cs),
(363,20,l),
(363,0,l),
(523,0,l),
(523,20,l),
(503,20,ls)
);
}
);
width = 561;
},
{
layerId = m006;
shapes = (
{
closed = 1;
nodes = (
(548,45,o),
(525,57,o),
(525,106,cs),
(525,501,ls),
(525,662,o),
(443,726,o),
(313,726,cs),
(162,726,o),
(101,631,o),
(101,510,cs),
(101,106,ls),
(101,57,o),
(78,45,o),
(57,45,cs),
(36,45,l),
(36,0,l),
(256,0,l),
(256,45,l),
(238,45,ls),
(213,45,o),
(193,57,o),
(193,106,cs),
(193,508,ls),
(193,604,o),
(229,672,o),
(314,672,cs),
(391,672,o),
(434,631,o),
(434,506,cs),
(434,106,ls),
(434,57,o),
(414,45,o),
(389,45,cs),
(371,45,l),
(371,0,l),
(591,0,l),
(591,45,l),
(570,45,ls)
);
}
);
width = 627;
},
{
layerId = m007;
shapes = (
{
closed = 1;
nodes = (
(591,50,o),
(570,65,o),
(570,112,cs),
(570,500,ls),
(570,663,o),
(479,727,o),
(332,727,cs),
(163,727,o),
(100,635,o),
(100,506,cs),
(100,112,ls),
(100,65,o),
(79,50,o),
(57,50,cs),
(36,50,l),
(36,0,l),
(290,0,l),
(290,50,l),
(275,50,ls),
(248,50,o),
(233,65,o),
(233,113,cs),
(233,504,ls),
(233,605,o),
(268,662,o),
(333,662,cs),
(403,662,o),
(437,624,o),
(437,507,cs),
(437,113,ls),
(437,65,o),
(422,50,o),
(395,50,cs),
(381,50,l),
(381,0,l),
(634,0,l),
(634,50,l),
(613,50,ls)
);
}
);
width = 670;
},
{
layerId = m008;
shapes = (
{
closed = 1;
nodes = (
(605,55,o),
(586,70,o),
(586,112,cs),
(586,500,ls),
(586,664,o),
(487,728,o),
(327,728,cs),
(144,728,o),
(78,638,o),
(78,504,cs),
(78,112,ls),
(78,70,o),
(60,55,o),
(36,55,cs),
(22,55,l),
(22,-1,l),
(290,-1,l),
(290,55,l),
(284,55,ls),
(254,55,o),
(245,70,o),
(245,113,cs),
(245,502,ls),
(245,607,o),
(278,654,o),
(329,654,cs),
(393,654,o),
(419,619,o),
(419,508,cs),
(419,92,ls),
(419,65,o),
(405,55,o),
(381,55,cs),
(375,55,l),
(375,-1,l),
(643,-1,l),
(643,55,l),
(629,55,ls)
);
}
);
width = 664;
}
);
note = uni10B6;
unicode = 4278;
}
{
glyphname = "Qar-oldgeorgian";
kernLeft = "Qar-oldgeorgian";
layers = (
{
layerId = m001;
shapes = (
{
closed = 1;
nodes = (
(578,0,l),
(578,20,l),
(555,20,ls),
(509,20,o),
(499,29,o),
(499,90,cs),
(499,624,ls),
(499,685,o),
(509,694,o),
(555,694,cs),
(575,694,l),
(575,714,l),
(392,714,l),
(392,694,l),
(415,694,ls),
(461,694,o),
(471,685,o),
(471,624,cs),
(471,467,ls),
(471,354,o),
(414,263,o),
(267,263,cs),
(148,263,o),
(90,340,o),
(90,477,cs),
(90,619,o),
(148,701,o),
(237,701,c),
(237,707,o),
(235,721,o),
(215,721,cs),
(118,721,o),
(62,608,o),
(62,477,cs),
(62,315,o),
(136,238,o),
(267,238,cs),
(376,238,o),
(437,282,o),
(471,350,c),
(474,350,l),
(472,318,o),
(471,285,o),
(471,253,cs),
(471,90,ls),
(471,29,o),
(461,20,o),
(415,20,cs),
(395,20,l),
(395,0,l)
);
}
);
userData = {
com.schriftgestaltung.Glyphs.glyph.leftMetricsKey = "Ban-oldgeorgian";
};
width = 639;
},
{
layerId = m002;
shapes = (
{
closed = 1;
nodes = (
(650,0,l),
(650,42,l),
(637,42,ls),
(612,42,o),
(575,51,o),
(575,104,cs),
(575,610,ls),
(575,663,o),
(608,672,o),
(633,672,cs),
(646,672,l),
(646,714,l),
(399,714,l),
(399,672,l),
(412,672,ls),
(437,672,o),
(474,663,o),
(474,610,cs),
(474,476,ls),
(474,365,o),
(419,312,o),
(310,312,cs),
(214,312,o),
(166,372,o),
(166,497,cs),
(166,584,o),
(185,661,o),
(269,679,c),
(269,695,o),
(261,726,o),
(207,726,cs),
(127,726,o),
(55,645,o),
(55,496,cs),
(55,338,o),
(147,258,o),
(298,258,cs),
(384,258,o),
(449,286,o),
(473,329,c),
(478,329,l),
(475,290,o),
(474,262,o),
(474,244,cs),
(474,104,ls),
(474,51,o),
(441,42,o),
(416,42,cs),
(403,42,l),
(403,0,l)
);
}
);
userData = {
com.schriftgestaltung.Glyphs.glyph.leftMetricsKey = "Ban-oldgeorgian";
};
width = 696;
},
{
layerId = m003;
shapes = (
{
closed = 1;
nodes = (
(673,-1,l),
(673,52,l),
(661,52,ls),
(635,52,o),
(613,60,o),
(613,107,cs),
(613,606,ls),
(613,653,o),
(635,661,o),
(664,661,cs),
(686,661,l),
(686,714,l),
(384,714,l),
(384,661,l),
(406,661,ls),
(435,661,o),
(454,653,o),
(454,606,cs),
(454,464,ls),
(454,363,o),
(416,312,o),
(337,312,cs),
(254,312,o),
(218,358,o),
(218,473,cs),
(218,609,o),
(249,661,o),
(317,661,c),
(317,679,o),
(317,722,o),
(259,722,cs),
(141,722,o),
(50,640,o),
(50,473,cs),
(50,315,o),
(131,228,o),
(278,228,cs),
(363,228,o),
(419,251,o),
(456,308,c),
(463,308,l),
(458,247,o),
(455,207,o),
(455,187,cs),
(455,107,ls),
(455,60,o),
(435,52,o),
(406,52,cs),
(384,52,l),
(384,-1,l)
);
}
);
userData = {
com.schriftgestaltung.Glyphs.glyph.leftMetricsKey = "Ban-oldgeorgian";
};
width = 724;
},
{
layerId = m004;
shapes = (
{
closed = 1;
nodes = (
(752,0,l),
(752,61,l),
(737,61,ls),
(709,61,o),
(695,78,o),
(695,115,cs),
(695,599,ls),
(695,636,o),
(709,653,o),
(737,653,cs),
(762,653,l),
(762,714,l),
(429,714,l),
(429,653,l),
(452,653,ls),
(474,653,o),
(495,636,o),
(495,600,cs),
(495,415,ls),
(495,357,o),
(443,288,o),
(362,288,cs),
(272,288,o),
(242,348,o),
(242,469,cs),
(242,597,o),
(272,657,o),
(332,657,c),
(332,677,o),
(332,727,o),
(259,727,cs),
(138,727,o),
(42,635,o),
(42,466,cs),
(42,295,o),
(144,212,o),
(321,212,cs),
(410,212,o),
(456,243,o),
(491,280,c),
(501,280,l),
(496,252,o),
(495,223,o),
(495,191,cs),
(495,114,ls),
(495,78,o),
(474,61,o),
(452,61,cs),
(429,61,l),
(429,0,l)
);
}
);
userData = {
com.schriftgestaltung.Glyphs.glyph.leftMetricsKey = "Ban-oldgeorgian";
};
width = 803;
},
{
layerId = m005;
shapes = (
{
closed = 1;
nodes = (
(472,0,l),
(472,20,l),
(452,20,ls),
(412,20,o),
(406,31,o),
(406,68,cs),
(406,646,ls),
(406,683,o),
(412,694,o),
(446,694,cs),
(466,694,l),
(466,714,l),
(312,714,l),
(312,694,l),
(332,694,ls),
(362,694,o),
(378,683,o),
(378,646,cs),
(378,399,ls),
(378,332,o),
(316,263,o),
(227,263,cs),
(118,263,o),
(76,337,o),
(76,477,cs),
(76,619,o),
(126,695,o),
(205,695,c),
(205,703,o),
(203,724,o),
(174,718,cs),
(100,703,o),
(48,636,o),
(48,477,cs),
(48,312,o),
(105,238,o),
(225,238,cs),
(283,238,o),
(343,264,o),
(376,330,c),
(380,330,l),
(379,309,o),
(378,289,o),
(378,268,cs),
(378,68,ls),
(378,31,o),
(362,20,o),
(332,20,cs),
(312,20,l),
(312,0,l)
);
}
);
userData = {
com.schriftgestaltung.Glyphs.glyph.leftMetricsKey = "Ban-oldgeorgian";
};
width = 516;
},
{
layerId = m006;
shapes = (
{
closed = 1;
nodes = (
(558,0,l),
(558,45,l),
(540,45,ls),
(515,45,o),
(496,57,o),
(496,106,cs),
(496,608,ls),
(496,657,o),
(514,669,o),
(539,669,cs),
(561,669,l),
(561,714,l),
(337,714,l),
(337,669,l),
(358,669,ls),
(379,669,o),
(402,657,o),
(402,608,cs),
(402,409,ls),
(402,353,o),
(351,293,o),
(266,293,cs),
(165,293,o),
(135,353,o),
(135,478,cs),
(135,610,o),
(172,668,o),
(234,677,c),
(234,691,o),
(233,722,o),
(195,722,cs),
(115,722,o),
(42,639,o),
(42,478,cs),
(42,314,o),
(120,236,o),
(239,236,cs),
(309,236,o),
(367,261,o),
(401,319,c),
(405,319,l),
(403,296,o),
(402,274,o),
(402,252,cs),
(402,106,ls),
(402,57,o),
(381,45,o),
(359,45,cs),
(339,45,l),
(339,0,l)
);
}
);
userData = {
com.schriftgestaltung.Glyphs.glyph.leftMetricsKey = "Ban-oldgeorgian";
};
width = 593;
},
{
layerId = m007;
shapes = (
{
closed = 1;
nodes = (
(598,0,l),
(598,50,l),
(584,50,ls),
(557,50,o),
(542,65,o),
(542,113,cs),
(542,601,ls),
(542,649,o),
(557,663,o),
(584,663,cs),
(607,663,l),
(607,714,l),
(342,714,l),
(342,663,l),
(363,663,ls),
(386,663,o),
(406,649,o),
(406,602,cs),
(406,414,ls),
(406,364,o),
(367,303,o),
(286,303,cs),
(197,303,o),
(174,357,o),
(174,479,cs),
(174,607,o),
(202,666,o),
(260,668,c),
(260,686,o),
(256,724,o),
(205,724,cs),
(112,724,o),
(38,640,o),
(38,481,cs),
(38,312,o),
(123,232,o),
(243,232,cs),
(317,232,o),
(370,257,o),
(405,310,c),
(409,310,l),
(407,286,o),
(406,263,o),
(406,240,cs),
(406,112,ls),
(406,65,o),
(387,50,o),
(365,50,cs),
(344,50,l),
(344,0,l)
);
}
);
userData = {
com.schriftgestaltung.Glyphs.glyph.leftMetricsKey = "Ban-oldgeorgian";
};
width = 639;
},
{
layerId = m008;
shapes = (
{
closed = 1;
nodes = (
(621,-1,l),
(621,55,l),
(615,55,ls),
(585,55,o),
(575,70,o),
(575,113,cs),
(575,600,ls),
(575,643,o),
(587,658,o),
(617,658,cs),
(633,658,l),
(633,714,l),
(352,714,l),
(352,658,l),
(366,658,ls),
(390,658,o),
(408,643,o),
(408,601,cs),
(408,418,ls),
(408,372,o),
(379,311,o),
(300,311,cs),
(221,311,o),
(204,360,o),
(204,474,cs),
(204,599,o),
(225,648,o),
(280,658,c),
(280,683,o),
(271,720,o),
(214,720,cs),
(116,720,o),
(34,638,o),
(34,486,cs),
(34,314,o),
(125,230,o),
(247,230,cs),
(324,230,o),
(372,254,o),
(408,302,c),
(412,302,l),
(409,278,o),
(408,254,o),
(408,230,cs),
(408,112,ls),
(408,70,o),
(389,55,o),
(365,55,cs),
(351,55,l),
(351,-1,l)
);
}
);
userData = {
com.schriftgestaltung.Glyphs.glyph.leftMetricsKey = "Ban-oldgeorgian";
};
width = 672;
}
);
note = uni10B7;
unicode = 4279;
}
{
glyphname = "Shin-oldgeorgian";
layers = (
{
layerId = m001;
shapes = (
{
closed = 1;
nodes = (
(386,694,l),
(409,694,ls),
(455,694,o),
(465,685,o),
(465,624,cs),
(465,537,ls),
(465,424,o),
(415,333,o),
(302,333,cs),
(203,333,o),
(141,394,o),
(141,488,cs),
(141,714,l),
(24,714,l),
(24,694,l),
(57,694,ls),
(107,694,o),
(113,683,o),
(113,606,cs),
(113,488,ls),
(113,369,o),
(190,308,o),
(304,308,cs),
(382,308,o),
(435,345,o),
(465,413,c),
(468,413,l),
(466,381,o),
(465,348,o),
(465,316,cs),
(465,210,ls),
(465,76,o),
(406,15,o),
(304,15,cs),
(187,15,o),
(141,101,o),
(141,164,cs),
(141,188,o),
(144,198,o),
(147,207,c),
(144,208,o),
(141,209,o),
(138,209,cs),
(123,209,o),
(113,192,o),
(113,164,cs),
(113,79,o),
(178,-10,o),
(303,-10,cs),
(419,-10,o),
(493,51,o),
(493,214,cs),
(493,624,ls),
(493,685,o),
(503,694,o),
(549,694,cs),
(569,694,l),
(569,714,l),
(386,714,l)
);
}
);
width = 603;
},
{
layerId = m002;
shapes = (
{
closed = 1;
nodes = (
(390,672,l),
(403,672,ls),
(428,672,o),
(465,663,o),
(465,610,cs),
(465,533,ls),
(465,424,o),
(417,372,o),
(319,372,cs),
(237,372,o),
(191,424,o),
(191,533,cs),
(191,714,l),
(20,714,l),
(20,672,l),
(28,672,ls),
(71,672,o),
(90,643,o),
(90,604,cs),
(90,533,ls),
(90,397,o),
(168,318,o),
(303,318,cs),
(379,318,o),
(433,342,o),
(464,389,c),
(469,389,l),
(466,360,o),
(465,332,o),
(465,304,cs),
(465,216,ls),
(465,107,o),
(417,42,o),
(328,42,cs),
(246,42,o),
(201,89,o),
(201,180,cs),
(201,213,o),
(205,226,o),
(210,234,c),
(196,239,o),
(183,241,o),
(170,241,cs),
(128,241,o),
(94,215,o),
(94,157,cs),
(94,61,o),
(172,-12,o),
(332,-12,cs),
(486,-12,o),
(566,68,o),
(566,213,cs),
(566,610,ls),
(566,663,o),
(599,672,o),
(624,672,cs),
(637,672,l),
(637,714,l),
(390,714,l)
);
}
);
width = 667;
},
{
layerId = m003;
shapes = (
{
closed = 1;
nodes = (
(425,661,l),
(447,661,ls),
(476,661,o),
(496,653,o),
(496,606,cs),
(496,544,ls),
(496,443,o),
(457,392,o),
(378,392,cs),
(292,392,o),
(258,440,o),
(258,550,cs),
(258,714,l),
(16,714,l),
(16,661,l),
(49,661,ls),
(86,661,o),
(100,642,o),
(100,600,cs),
(100,547,ls),
(100,389,o),
(176,308,o),
(319,308,cs),
(404,308,o),
(460,332,o),
(497,388,c),
(504,388,l),
(499,327,o),
(496,287,o),
(496,267,cs),
(496,210,ls),
(496,111,o),
(457,58,o),
(377,58,cs),
(295,58,o),
(258,105,o),
(258,180,cs),
(258,193,o),
(261,210,o),
(264,222,c),
(239,240,o),
(215,247,o),
(193,247,cs),
(140,247,o),
(100,205,o),
(100,155,cs),
(100,65,o),
(190,-13,o),
(380,-13,cs),
(559,-13,o),
(654,67,o),
(654,218,cs),
(654,606,ls),
(654,653,o),
(676,661,o),
(705,661,cs),
(727,661,l),
(727,714,l),
(425,714,l)
);
}
);
width = 744;
},
{
layerId = m004;
shapes = (
{
closed = 1;
nodes = (
(431,653,l),
(454,653,ls),
(476,653,o),
(497,636,o),
(497,600,cs),
(497,485,ls),
(497,437,o),
(459,366,o),
(378,366,cs),
(333,366,o),
(304,385,o),
(304,513,cs),
(304,714,l),
(36,714,l),
(36,654,l),
(56,654,ls),
(92,654,o),
(104,630,o),
(104,609,cs),
(104,508,ls),
(104,348,o),
(167,282,o),
(323,282,cs),
(418,282,o),
(458,313,o),
(493,350,c),
(503,350,l),
(498,322,o),
(497,293,o),
(497,261,cs),
(497,191,ls),
(497,109,o),
(462,62,o),
(403,62,cs),
(342,62,o),
(304,102,o),
(304,168,cs),
(304,181,o),
(306,201,o),
(311,210,c),
(293,218,o),
(269,222,o),
(244,222,cs),
(178,222,o),
(104,193,o),
(104,130,cs),
(104,45,o),
(214,-14,o),
(404,-14,cs),
(592,-14,o),
(697,76,o),
(697,221,cs),
(697,599,ls),
(697,636,o),
(711,653,o),
(739,653,cs),
(764,653,l),
(764,714,l),
(431,714,l)
);
}
);
width = 789;
},
{
layerId = m005;
shapes = (
{
closed = 1;
nodes = (
(318,694,l),
(338,694,ls),
(368,694,o),
(384,683,o),
(384,646,cs),
(384,459,ls),
(384,392,o),
(322,323,o),
(233,323,cs),
(157,323,o),
(118,368,o),
(118,473,cs),
(118,714,l),
(20,714,l),
(20,694,l),
(40,694,ls),
(86,694,o),
(90,683,o),
(90,609,cs),
(90,461,ls),
(90,356,o),
(138,298,o),
(231,298,cs),
(289,298,o),
(349,324,o),
(382,390,c),
(386,390,l),
(385,369,o),
(384,349,o),
(384,328,cs),
(384,200,ls),
(384,64,o),
(332,15,o),
(253,15,cs),
(153,15,o),
(118,94,o),
(118,162,cs),
(118,176,o),
(119,190,o),
(124,204,c),
(121,205,o),
(118,206,o),
(115,206,cs),
(98,206,o),
(90,183,o),
(90,155,cs),
(90,74,o),
(142,-10,o),
(254,-10,cs),
(348,-10,o),
(412,45,o),
(412,204,cs),
(412,646,ls),
(412,683,o),
(418,694,o),
(458,694,cs),
(478,694,l),
(478,714,l),
(318,714,l)
);
}
);
width = 492;
},
{
layerId = m006;
shapes = (
{
closed = 1;
nodes = (
(325,669,l),
(346,669,ls),
(368,669,o),
(391,657,o),
(391,608,cs),
(391,459,ls),
(391,403,o),
(344,349,o),
(274,349,cs),
(210,349,o),
(183,385,o),
(183,469,cs),
(183,714,l),
(22,714,l),
(22,673,l),
(37,673,ls),
(74,673,o),
(89,657,o),
(89,593,cs),
(89,461,ls),
(89,343,o),
(146,286,o),
(245,286,cs),
(301,286,o),
(356,311,o),
(390,369,c),
(394,369,l),
(392,346,o),
(391,324,o),
(391,302,cs),
(391,187,ls),
(391,80,o),
(355,43,o),
(287,43,cs),
(218,43,o),
(183,93,o),
(183,150,cs),
(183,175,o),
(186,195,o),
(190,203,c),
(176,211,o),
(163,214,o),
(150,214,cs),
(116,214,o),
(89,187,o),
(89,139,cs),
(89,66,o),
(161,-12,o),
(287,-12,cs),
(407,-12,o),
(484,49,o),
(484,193,cs),
(484,608,ls),
(484,657,o),
(504,669,o),
(529,669,cs),
(550,669,l),
(550,714,l),
(325,714,l)
);
}
);
width = 565;
},
{
layerId = m007;
shapes = (
{
closed = 1;
nodes = (
(330,663,l),
(351,663,ls),
(373,663,o),
(394,649,o),
(394,602,cs),
(394,467,ls),
(394,416,o),
(356,366,o),
(300,366,cs),
(244,366,o),
(224,402,o),
(224,473,cs),
(224,714,l),
(18,714,l),
(18,665,l),
(34,665,ls),
(67,665,o),
(87,648,o),
(87,591,cs),
(87,469,ls),
(87,341,o),
(150,285,o),
(252,285,cs),
(307,285,o),
(358,309,o),
(394,362,c),
(398,362,l),
(395,339,o),
(394,316,o),
(394,292,cs),
(394,174,ls),
(394,93,o),
(367,52,o),
(308,52,cs),
(251,52,o),
(224,100,o),
(224,148,cs),
(224,175,o),
(228,195,o),
(232,200,c),
(211,213,o),
(190,219,o),
(170,219,cs),
(124,219,o),
(87,188,o),
(87,137,cs),
(87,70,o),
(146,-13,o),
(306,-13,cs),
(444,-13,o),
(530,54,o),
(530,188,cs),
(530,601,ls),
(530,649,o),
(545,663,o),
(572,663,cs),
(594,663,l),
(594,714,l),
(330,714,l)
);
}
);
width = 609;
},
{
layerId = m008;
shapes = (
{
closed = 1;
nodes = (
(341,658,l),
(355,658,ls),
(379,658,o),
(397,643,o),
(397,601,cs),
(397,478,ls),
(397,432,o),
(366,386,o),
(321,386,cs),
(271,386,o),
(256,422,o),
(256,482,cs),
(256,714,l),
(16,714,l),
(16,658,l),
(32,658,ls),
(62,658,o),
(86,641,o),
(86,589,cs),
(86,480,ls),
(86,346,o),
(153,290,o),
(258,290,cs),
(313,290,o),
(361,314,o),
(397,362,c),
(401,362,l),
(398,338,o),
(397,314,o),
(397,290,cs),
(397,176,ls),
(397,95,o),
(378,60,o),
(324,60,cs),
(281,60,o),
(256,105,o),
(256,152,cs),
(256,184,o),
(263,194,o),
(266,200,c),
(246,215,o),
(218,223,o),
(191,223,cs),
(138,223,o),
(86,194,o),
(86,132,cs),
(86,66,o),
(148,-14,o),
(322,-14,cs),
(473,-14,o),
(567,50,o),
(567,214,cs),
(567,600,ls),
(567,643,o),
(576,658,o),
(606,658,cs),
(622,658,l),
(622,714,l),
(341,714,l)
);
}
);
width = 645;
}
);
note = uni10B8;
unicode = 4280;
}
{
glyphname = "Chin-oldgeorgian";
kernLeft = "Nar-oldgeorgian";
layers = (
{
layerId = m001;
shapes = (
{
closed = 1;
nodes = (
(558,20,o),
(552,31,o),
(552,108,cs),
(552,436,l),
(167,436,l),
(167,624,ls),
(167,685,o),
(177,694,o),
(223,694,cs),
(243,694,l),
(243,714,l),
(60,714,l),
(60,694,l),
(83,694,ls),
(129,694,o),
(139,685,o),
(139,624,cs),
(139,108,ls),
(139,31,o),
(133,20,o),
(83,20,cs),
(40,20,l),
(40,0,l),
(268,0,l),
(268,20,l),
(223,20,ls),
(173,20,o),
(167,31,o),
(167,108,cs),
(167,411,l),
(524,411,l),
(524,0,l),
(651,0,l),
(651,20,l),
(608,20,ls)
);
}
);
width = 687;
},
{
layerId = m002;
shapes = (
{
closed = 1;
nodes = (
(638,42,o),
(600,50,o),
(600,109,cs),
(600,448,l),
(224,448,l),
(224,610,ls),
(224,663,o),
(257,672,o),
(282,672,cs),
(295,672,l),
(295,714,l),
(48,714,l),
(48,672,l),
(61,672,ls),
(86,672,o),
(123,663,o),
(123,610,cs),
(123,114,ls),
(123,51,o),
(86,42,o),
(51,42,cs),
(38,42,l),
(38,0,l),
(319,0,l),
(319,42,l),
(306,42,ls),
(261,42,o),
(224,51,o),
(224,114,cs),
(224,398,l),
(499,398,l),
(499,0,l),
(695,0,l),
(695,42,l),
(682,42,ls)
);
}
);
width = 716;
},
{
layerId = m003;
shapes = (
{
closed = 1;
nodes = (
(692,52,o),
(668,59,o),
(668,112,cs),
(668,442,l),
(279,442,l),
(279,606,ls),
(279,653,o),
(299,661,o),
(328,661,cs),
(350,661,l),
(350,714,l),
(61,714,l),
(61,661,l),
(73,661,ls),
(99,661,o),
(121,653,o),
(121,606,cs),
(121,117,ls),
(121,60,o),
(98,52,o),
(70,52,cs),
(38,52,l),
(38,-1,l),
(373,-1,l),
(373,52,l),
(330,52,ls),
(302,52,o),
(279,60,o),
(279,117,cs),
(279,381,l),
(510,381,l),
(510,-1,l),
(761,-1,l),
(761,52,l),
(719,52,ls)
);
}
);
width = 794;
},
{
layerId = m004;
shapes = (
{
closed = 1;
nodes = (
(713,61,o),
(697,83,o),
(697,113,cs),
(697,450,l),
(314,450,l),
(314,600,ls),
(314,636,o),
(335,653,o),
(357,653,cs),
(380,653,l),
(380,714,l),
(57,714,l),
(57,653,l),
(72,653,ls),
(100,653,o),
(114,636,o),
(114,599,cs),
(114,111,ls),
(114,84,o),
(98,61,o),
(75,61,cs),
(32,61,l),
(32,0,l),
(387,0,l),
(387,61,l),
(350,61,ls),
(326,61,o),
(314,84,o),
(314,111,cs),
(314,381,l),
(497,381,l),
(497,0,l),
(789,0,l),
(789,61,l),
(736,61,ls)
);
}
);
width = 801;
},
{
layerId = m005;
shapes = (
{
closed = 1;
nodes = (
(460,20,o),
(454,31,o),
(454,108,cs),
(454,426,l),
(140,426,l),
(140,646,ls),
(140,683,o),
(156,694,o),
(186,694,cs),
(206,694,l),
(206,714,l),
(46,714,l),
(46,694,l),
(66,694,ls),
(106,694,o),
(112,683,o),
(112,646,cs),
(112,108,ls),
(112,31,o),
(106,20,o),
(56,20,cs),
(39,20,l),
(39,0,l),
(221,0,l),
(221,20,l),
(196,20,ls),
(146,20,o),
(140,31,o),
(140,108,cs),
(140,401,l),
(426,401,l),
(426,0,l),
(529,0,l),
(529,20,l),
(510,20,ls)
);
}
);
width = 564;
},
{
layerId = m006;
shapes = (
{
closed = 1;
nodes = (
(532,44,o),
(516,57,o),
(516,114,cs),
(516,427,l),
(201,427,l),
(201,608,ls),
(201,657,o),
(224,669,o),
(245,669,cs),
(266,669,l),
(266,714,l),
(47,714,l),
(47,669,l),
(65,669,ls),
(90,669,o),
(109,657,o),
(109,608,cs),
(109,116,ls),
(109,58,o),
(93,44,o),
(58,44,cs),
(39,44,l),
(39,0,l),
(270,0,l),
(270,44,l),
(250,44,ls),
(215,44,o),
(201,58,o),
(201,116,cs),
(201,380,l),
(425,380,l),
(425,0,l),
(592,0,l),
(592,44,l),
(567,44,ls)
);
}
);
width = 616;
},
{
layerId = m007;
shapes = (
{
closed = 1;
nodes = (
(554,48,o),
(537,65,o),
(537,110,cs),
(537,440,l),
(223,440,l),
(223,602,ls),
(223,649,o),
(243,663,o),
(266,663,cs),
(287,663,l),
(287,714,l),
(31,714,l),
(31,663,l),
(47,663,ls),
(74,663,o),
(89,649,o),
(89,601,cs),
(89,111,ls),
(89,66,o),
(73,48,o),
(46,48,cs),
(23,48,l),
(23,0,l),
(287,0,l),
(287,48,l),
(263,48,ls),
(236,48,o),
(223,66,o),
(223,111,cs),
(223,384,l),
(404,384,l),
(404,0,l),
(613,0,l),
(613,48,l),
(580,48,ls)
);
}
);
width = 629;
},
{
layerId = m008;
shapes = (
{
closed = 1;
nodes = (
(579,55,o),
(566,74,o),
(566,111,cs),
(566,438,l),
(252,438,l),
(252,601,ls),
(252,643,o),
(271,658,o),
(295,658,cs),
(309,658,l),
(309,714,l),
(33,714,l),
(33,658,l),
(45,658,ls),
(75,658,o),
(84,643,o),
(84,600,cs),
(84,110,ls),
(84,75,o),
(71,55,o),
(48,55,cs),
(18,55,l),
(18,-1,l),
(312,-1,l),
(312,55,l),
(281,55,ls),
(261,55,o),
(252,75,o),
(252,110,cs),
(252,374,l),
(398,374,l),
(398,-1,l),
(642,-1,l),
(642,55,l),
(598,55,ls)
);
}
);
width = 656;
}
);
note = uni10B9;
unicode = 4281;
}
{
glyphname = "Can-oldgeorgian";
kernLeft = "On-oldgeorgian";
layers = (
{
layerId = m001;
shapes = (
{
closed = 1;
nodes = (
(340,-135,o),
(387,-124,o),
(438,-74,cs),
(484,-29,o),
(510,36,o),
(510,86,cs),
(510,96,o),
(506,106,o),
(497,111,c),
(473,59,o),
(422,15,o),
(323,15,cs),
(162,15,o),
(85,147,o),
(85,358,cs),
(85,566,o),
(166,699,o),
(318,699,cs),
(457,699,o),
(495,650,o),
(495,568,c),
(509,568,o),
(516,583,o),
(516,610,cs),
(516,666,o),
(464,724,o),
(324,724,cs),
(149,724,o),
(57,588,o),
(57,358,cs),
(57,131,o),
(145,-10,o),
(324,-10,cs),
(399,-10,o),
(450,16,o),
(479,41,c),
(450,-49,o),
(374,-106,o),
(328,-106,cs),
(308,-106,o),
(299,-101,o),
(291,-90,c),
(286,-97,o),
(283,-103,o),
(283,-112,cs),
(283,-129,o),
(301,-135,o),
(319,-135,cs)
);
}
);
width = 550;
},
{
layerId = m002;
shapes = (
{
closed = 1;
nodes = (
(419,-177,o),
(468,-130,o),
(517,-54,cs),
(560,12,o),
(576,68,o),
(576,102,cs),
(576,120,o),
(570,133,o),
(557,141,c),
(510,77,o),
(450,50,o),
(376,50,cs),
(243,50,o),
(168,158,o),
(168,358,cs),
(168,573,o),
(235,673,o),
(376,673,cs),
(448,673,o),
(493,622,o),
(493,542,c),
(544,542,o),
(580,571,o),
(580,612,cs),
(580,681,o),
(505,726,o),
(378,726,cs),
(172,726,o),
(57,579,o),
(57,358,cs),
(57,128,o),
(169,-10,o),
(361,-10,cs),
(409,-10,o),
(454,-1,o),
(491,17,c),
(452,-47,o),
(408,-78,o),
(370,-78,cs),
(355,-78,o),
(339,-72,o),
(322,-61,c),
(313,-79,o),
(308,-98,o),
(308,-116,cs),
(308,-151,o),
(334,-177,o),
(363,-177,cs)
);
}
);
width = 614;
},
{
layerId = m003;
shapes = (
{
closed = 1;
nodes = (
(431,-195,o),
(480,-178,o),
(531,-115,cs),
(591,-40,o),
(627,42,o),
(627,122,cs),
(627,139,o),
(620,157,o),
(610,165,c),
(563,102,o),
(501,72,o),
(425,72,cs),
(284,72,o),
(223,155,o),
(223,358,cs),
(223,572,o),
(275,663,o),
(393,663,cs),
(462,663,o),
(503,608,o),
(503,524,c),
(581,524,o),
(628,558,o),
(628,611,cs),
(628,683,o),
(541,727,o),
(400,727,cs),
(183,727,o),
(55,588,o),
(55,358,cs),
(55,126,o),
(180,-8,o),
(401,-8,cs),
(451,-8,o),
(495,6,o),
(531,24,c),
(505,-48,o),
(446,-87,o),
(383,-87,cs),
(360,-87,o),
(343,-79,o),
(331,-63,c),
(325,-71,o),
(320,-98,o),
(320,-115,cs),
(320,-164,o),
(350,-195,o),
(399,-195,cs)
);
}
);
width = 668;
},
{
layerId = m004;
shapes = (
{
closed = 1;
nodes = (
(433,-205,o),
(501,-183,o),
(545,-137,cs),
(624,-55,o),
(665,54,o),
(665,137,cs),
(665,152,o),
(659,174,o),
(650,183,c),
(616,138,o),
(559,80,o),
(452,80,cs),
(313,80,o),
(264,155,o),
(264,358,cs),
(264,546,o),
(297,656,o),
(406,656,cs),
(486,656,o),
(511,574,o),
(511,506,c),
(615,506,o),
(664,550,o),
(664,605,cs),
(664,671,o),
(582,728,o),
(417,728,cs),
(178,728,o),
(54,574,o),
(54,358,cs),
(54,137,o),
(175,-10,o),
(418,-10,cs),
(475,-10,o),
(524,0,o),
(559,13,c),
(516,-60,o),
(452,-77,o),
(420,-77,cs),
(389,-77,o),
(357,-69,o),
(333,-54,c),
(312,-80,o),
(301,-101,o),
(301,-129,cs),
(301,-178,o),
(335,-205,o),
(391,-205,cs)
);
}
);
width = 708;
},
{
layerId = m005;
shapes = (
{
closed = 1;
nodes = (
(267,-128,o),
(301,-115,o),
(339,-66,cs),
(375,-20,o),
(399,34,o),
(399,84,cs),
(399,99,o),
(394,107,o),
(386,112,c),
(364,55,o),
(328,15,o),
(254,15,cs),
(131,15,o),
(72,162,o),
(72,358,cs),
(72,553,o),
(130,699,o),
(256,699,cs),
(345,699,o),
(382,650,o),
(382,566,c),
(395,566,o),
(403,582,o),
(403,612,cs),
(403,671,o),
(348,724,o),
(257,724,cs),
(118,724,o),
(44,583,o),
(44,358,cs),
(44,137,o),
(117,-10,o),
(254,-10,cs),
(299,-10,o),
(338,6,o),
(365,29,c),
(337,-47,o),
(287,-100,o),
(250,-100,cs),
(237,-100,o),
(229,-96,o),
(221,-86,c),
(215,-93,o),
(213,-99,o),
(213,-108,cs),
(213,-119,o),
(223,-128,o),
(241,-128,cs)
);
}
);
width = 427;
},
{
layerId = m006;
shapes = (
{
closed = 1;
nodes = (
(301,-158,o),
(350,-146,o),
(395,-94,cs),
(444,-37,o),
(466,33,o),
(466,104,cs),
(466,119,o),
(461,132,o),
(453,139,c),
(424,89,o),
(385,47,o),
(306,47,cs),
(191,47,o),
(144,162,o),
(144,358,cs),
(144,553,o),
(186,675,o),
(291,675,cs),
(369,675,o),
(395,610,o),
(395,544,c),
(440,544,o),
(468,570,o),
(468,610,cs),
(468,672,o),
(407,726,o),
(300,726,cs),
(131,726,o),
(44,580,o),
(44,358,cs),
(44,137,o),
(129,-10,o),
(290,-10,cs),
(335,-10,o),
(371,0,o),
(398,13,c),
(374,-48,o),
(331,-83,o),
(287,-83,cs),
(267,-83,o),
(247,-76,o),
(232,-62,c),
(221,-78,o),
(216,-93,o),
(216,-110,cs),
(216,-142,o),
(244,-158,o),
(278,-158,cs)
);
}
);
width = 498;
},
{
layerId = m007;
shapes = (
{
closed = 1;
nodes = (
(331,-189,o),
(388,-171,o),
(440,-106,cs),
(492,-41,o),
(516,40,o),
(516,117,cs),
(516,132,o),
(511,149,o),
(503,158,c),
(474,110,o),
(431,60,o),
(347,60,cs),
(231,60,o),
(187,159,o),
(187,358,cs),
(187,551,o),
(221,667,o),
(318,667,cs),
(390,667,o),
(412,595,o),
(412,529,c),
(481,529,o),
(517,563,o),
(517,608,cs),
(517,674,o),
(452,727,o),
(327,727,cs),
(141,727,o),
(45,578,o),
(45,358,cs),
(45,137,o),
(138,-10,o),
(323,-10,cs),
(367,-10,o),
(403,-2,o),
(430,10,c),
(404,-57,o),
(361,-90,o),
(319,-90,cs),
(296,-90,o),
(272,-83,o),
(255,-68,c),
(238,-90,o),
(230,-108,o),
(230,-131,cs),
(230,-166,o),
(257,-189,o),
(301,-189,cs)
);
}
);
width = 551;
},
{
layerId = m008;
shapes = (
{
closed = 1;
nodes = (
(355,-214,o),
(419,-191,o),
(475,-116,cs),
(528,-45,o),
(555,45,o),
(555,128,cs),
(555,143,o),
(550,163,o),
(542,172,c),
(514,126,o),
(467,71,o),
(378,71,cs),
(261,71,o),
(221,157,o),
(221,358,cs),
(221,552,o),
(248,661,o),
(339,661,cs),
(406,661,o),
(426,587,o),
(426,520,c),
(513,520,o),
(554,559,o),
(554,610,cs),
(554,675,o),
(486,728,o),
(348,728,cs),
(149,728,o),
(45,579,o),
(45,358,cs),
(45,137,o),
(146,-10,o),
(349,-10,cs),
(391,-10,o),
(430,0,o),
(457,12,c),
(429,-59,o),
(383,-96,o),
(343,-96,cs),
(318,-96,o),
(292,-88,o),
(273,-73,c),
(252,-99,o),
(241,-120,o),
(241,-148,cs),
(241,-186,o),
(267,-214,o),
(319,-214,cs)
);
}
);
width = 591;
}
);
note = uni10BA;
unicode = 4282;
}
{
glyphname = "Jil-oldgeorgian";
layers = (
{
layerId = m001;
shapes = (
{
closed = 1;
nodes = (
(378,-10,o),
(449,73,o),
(449,207,cs),
(449,401,l),
(698,401,l),
(698,0,l),
(825,0,l),
(825,20,l),
(782,20,ls),
(732,20,o),
(726,31,o),
(726,108,cs),
(726,426,l),
(449,426,l),
(449,624,ls),
(449,685,o),
(459,694,o),
(505,694,cs),
(525,694,l),
(525,714,l),
(342,714,l),
(342,694,l),
(365,694,ls),
(411,694,o),
(421,685,o),
(421,624,cs),
(421,426,l),
(270,426,ls),
(114,426,o),
(46,338,o),
(46,206,cs),
(46,57,o),
(138,-10,o),
(252,-10,cs)
);
},
{
closed = 1;
nodes = (
(150,15,o),
(74,76,o),
(74,207,cs),
(74,326,o),
(136,401,o),
(270,401,cs),
(421,401,l),
(421,212,ls),
(421,90,o),
(368,15,o),
(253,15,cs)
);
}
);
userData = {
com.schriftgestaltung.Glyphs.glyph.rightMetricsKey = "Chin-oldgeorgian";
};
width = 861;
},
{
layerId = m002;
shapes = (
{
closed = 1;
nodes = (
(443,-12,o),
(521,66,o),
(521,225,cs),
(521,390,l),
(719,390,l),
(719,0,l),
(915,0,l),
(915,42,l),
(902,42,ls),
(858,42,o),
(820,50,o),
(820,109,cs),
(820,444,l),
(521,444,l),
(521,610,ls),
(521,663,o),
(554,672,o),
(579,672,cs),
(592,672,l),
(592,714,l),
(345,714,l),
(345,672,l),
(358,672,ls),
(383,672,o),
(420,663,o),
(420,610,cs),
(420,444,l),
(297,444,ls),
(121,444,o),
(38,373,o),
(38,220,cs),
(38,70,o),
(127,-12,o),
(287,-12,cs)
);
},
{
closed = 1;
nodes = (
(190,42,o),
(146,99,o),
(146,214,cs),
(146,332,o),
(202,390,o),
(293,390,cs),
(420,390,l),
(420,225,ls),
(420,102,o),
(375,42,o),
(283,42,cs)
);
}
);
userData = {
com.schriftgestaltung.Glyphs.glyph.rightMetricsKey = "Chin-oldgeorgian";
};
width = 936;
},
{
layerId = m003;
shapes = (
{
closed = 1;
nodes = (
(478,-13,o),
(566,69,o),
(566,237,cs),
(566,387,l),
(717,387,l),
(717,-1,l),
(968,-1,l),
(968,52,l),
(926,52,ls),
(899,52,o),
(875,59,o),
(875,112,cs),
(875,452,l),
(566,452,l),
(566,606,ls),
(566,653,o),
(588,661,o),
(614,661,cs),
(626,661,l),
(626,714,l),
(337,714,l),
(337,661,l),
(359,661,ls),
(388,661,o),
(408,653,o),
(408,606,cs),
(408,452,l),
(325,452,ls),
(128,452,o),
(30,373,o),
(30,218,cs),
(30,70,o),
(126,-13,o),
(301,-13,cs)
);
},
{
closed = 1;
nodes = (
(233,52,o),
(198,106,o),
(198,218,cs),
(198,338,o),
(228,387,o),
(341,387,cs),
(408,387,l),
(408,230,ls),
(408,112,o),
(372,52,o),
(303,52,cs)
);
}
);
userData = {
com.schriftgestaltung.Glyphs.glyph.rightMetricsKey = "Chin-oldgeorgian";
};
width = 1001;
},
{
layerId = m004;
shapes = (
{
closed = 1;
nodes = (
(536,-14,o),
(624,87,o),
(624,239,cs),
(624,381,l),
(747,381,l),
(747,0,l),
(1039,0,l),
(1039,61,l),
(986,61,ls),
(963,61,o),
(947,83,o),
(947,113,cs),
(947,453,l),
(624,453,l),
(624,599,ls),
(624,636,o),
(638,653,o),
(666,653,cs),
(681,653,l),
(681,714,l),
(364,714,l),
(364,653,l),
(387,653,ls),
(409,653,o),
(430,636,o),
(430,600,cs),
(430,453,l),
(330,453,ls),
(136,453,o),
(45,353,o),
(45,218,cs),
(45,74,o),
(144,-14,o),
(338,-14,cs)
);
},
{
closed = 1;
nodes = (
(280,62,o),
(252,94,o),
(252,218,cs),
(252,328,o),
(275,381,o),
(355,381,cs),
(430,381,l),
(430,207,ls),
(430,120,o),
(406,62,o),
(345,62,cs)
);
}
);
userData = {
com.schriftgestaltung.Glyphs.glyph.rightMetricsKey = "Chin-oldgeorgian";
};
width = 1051;
},
{
layerId = m005;
shapes = (
{
closed = 1;
nodes = (
(305,-10,o),
(369,55,o),
(369,204,cs),
(369,401,l),
(580,401,l),
(580,0,l),
(683,0,l),
(683,20,l),
(664,20,ls),
(614,20,o),
(608,31,o),
(608,108,cs),
(608,426,l),
(369,426,l),
(369,646,ls),
(369,683,o),
(385,694,o),
(415,694,cs),
(435,694,l),
(435,714,l),
(275,714,l),
(275,694,l),
(295,694,ls),
(335,694,o),
(341,683,o),
(341,646,cs),
(341,426,l),
(230,426,ls),
(100,426,o),
(48,325,o),
(48,207,cs),
(48,90,o),
(100,-10,o),
(212,-10,cs)
);
},
{
closed = 1;
nodes = (
(111,15,o),
(76,116,o),
(76,207,cs),
(76,299,o),
(111,401,o),
(229,401,cs),
(341,401,l),
(341,205,ls),
(341,68,o),
(289,15,o),
(211,15,cs)
);
}
);
userData = {
com.schriftgestaltung.Glyphs.glyph.rightMetricsKey = "Chin-oldgeorgian";
};
width = 718;
},
{
layerId = m006;
shapes = (
{
closed = 1;
nodes = (
(362,-12,o),
(439,53,o),
(439,216,cs),
(439,387,l),
(605,387,l),
(605,0,l),
(772,0,l),
(772,44,l),
(747,44,ls),
(712,44,o),
(696,57,o),
(696,114,cs),
(696,436,l),
(439,436,l),
(439,608,ls),
(439,657,o),
(462,669,o),
(483,669,cs),
(504,669,l),
(504,714,l),
(285,714,l),
(285,669,l),
(303,669,ls),
(328,669,o),
(347,657,o),
(347,608,cs),
(347,436,l),
(247,436,ls),
(106,436,o),
(45,360,o),
(45,216,cs),
(45,86,o),
(104,-12,o),
(242,-12,cs)
);
},
{
closed = 1;
nodes = (
(169,43,o),
(136,114,o),
(136,216,cs),
(136,325,o),
(167,387,o),
(246,387,cs),
(347,387,l),
(347,213,ls),
(347,82,o),
(310,43,o),
(242,43,cs)
);
}
);
userData = {
com.schriftgestaltung.Glyphs.glyph.rightMetricsKey = "Chin-oldgeorgian";
};
width = 796;
},
{
layerId = m007;
shapes = (
{
closed = 1;
nodes = (
(402,-13,o),
(488,51,o),
(488,217,cs),
(488,383,l),
(624,383,l),
(624,0,l),
(833,0,l),
(833,48,l),
(800,48,ls),
(774,48,o),
(757,65,o),
(757,110,cs),
(757,442,l),
(488,442,l),
(488,601,ls),
(488,649,o),
(503,663,o),
(530,663,cs),
(546,663,l),
(546,714,l),
(291,714,l),
(291,663,l),
(312,663,ls),
(333,663,o),
(354,651,o),
(354,608,cs),
(354,442,l),
(275,442,ls),
(110,442,o),
(44,368,o),
(44,220,cs),
(44,82,o),
(108,-13,o),
(263,-13,cs)
);
},
{
closed = 1;
nodes = (
(208,52,o),
(177,112,o),
(177,221,cs),
(177,335,o),
(205,383,o),
(273,383,cs),
(354,383,l),
(354,216,ls),
(354,90,o),
(325,52,o),
(265,52,cs)
);
}
);
userData = {
com.schriftgestaltung.Glyphs.glyph.rightMetricsKey = "Chin-oldgeorgian";
};
width = 849;
},
{
layerId = m008;
shapes = (
{
closed = 1;
nodes = (
(432,-14,o),
(526,50,o),
(526,218,cs),
(526,379,l),
(635,379,l),
(635,-1,l),
(879,-1,l),
(879,55,l),
(835,55,ls),
(816,55,o),
(803,74,o),
(803,111,cs),
(803,445,l),
(526,445,l),
(526,600,ls),
(526,643,o),
(536,658,o),
(566,658,cs),
(578,658,l),
(578,714,l),
(302,714,l),
(302,658,l),
(316,658,ls),
(340,658,o),
(359,643,o),
(359,601,cs),
(359,445,l),
(297,445,ls),
(110,445,o),
(42,355,o),
(42,223,cs),
(42,79,o),
(110,-14,o),
(279,-14,cs)
);
},
{
closed = 1;
nodes = (
(237,60,o),
(209,110,o),
(209,225,cs),
(209,341,o),
(234,379,o),
(294,379,cs),
(359,379,l),
(359,218,ls),
(359,97,o),
(337,60,o),
(281,60,cs)
);
}
);
userData = {
com.schriftgestaltung.Glyphs.glyph.rightMetricsKey = "Chin-oldgeorgian";
};
width = 893;
}
);
note = uni10BB;
unicode = 4283;
}
{
glyphname = "Cil-oldgeorgian";
kernLeft = "Tar-oldgeorgian";
kernRight = "Cil-oldgeorgian";
layers = (
{
layerId = m001;
shapes = (
{
closed = 1;
nodes = (
(177,0,l),
(177,170,l),
(226,170,ls),
(292,170,o),
(320,147,o),
(320,89,c),
(339,89,o),
(350,100,o),
(350,119,cs),
(350,168,o),
(313,195,o),
(229,195,cs),
(177,195,l),
(177,284,l),
(277,284,ls),
(452,284,o),
(511,383,o),
(511,509,cs),
(511,639,o),
(449,714,o),
(299,714,cs),
(50,714,l),
(50,694,l),
(93,694,ls),
(143,694,o),
(149,683,o),
(149,606,cs),
(149,0,l)
);
},
{
closed = 1;
nodes = (
(177,689,l),
(299,689,ls),
(430,689,o),
(483,624,o),
(483,509,cs),
(483,401,o),
(438,309,o),
(276,309,cs),
(177,309,l)
);
}
);
width = 560;
},
{
layerId = m002;
shapes = (
{
closed = 1;
nodes = (
(234,0,l),
(234,182,l),
(260,182,ls),
(324,182,o),
(357,140,o),
(357,44,c),
(404,44,o),
(435,68,o),
(435,113,cs),
(435,198,o),
(372,236,o),
(268,236,cs),
(234,236,l),
(234,320,l),
(297,320,ls),
(466,320,o),
(565,394,o),
(565,525,cs),
(565,648,o),
(480,714,o),
(319,714,cs),
(38,714,l),
(38,672,l),
(51,672,ls),
(102,672,o),
(133,659,o),
(133,604,cs),
(133,0,l)
);
},
{
closed = 1;
nodes = (
(234,666,l),
(302,666,ls),
(411,666,o),
(457,625,o),
(457,521,cs),
(457,410,o),
(408,367,o),
(287,367,cs),
(234,367,l)
);
}
);
width = 604;
},
{
layerId = m003;
shapes = (
{
closed = 1;
nodes = (
(263,0,l),
(263,179,l),
(281,179,l),
(342,179,o),
(375,153,o),
(375,46,c),
(448,46,o),
(495,85,o),
(495,138,cs),
(495,206,o),
(443,240,o),
(340,240,cs),
(263,240,l),
(263,314,l),
(297,314,ls),
(484,314,o),
(592,391,o),
(592,522,cs),
(592,646,o),
(497,714,o),
(319,714,cs),
(12,714,l),
(12,661,l),
(54,661,ls),
(91,661,o),
(105,643,o),
(105,600,cs),
(105,0,l)
);
},
{
closed = 1;
nodes = (
(263,655,l),
(302,655,ls),
(388,655,o),
(424,615,o),
(424,518,cs),
(424,411,o),
(385,372,o),
(287,372,cs),
(263,372,l)
);
}
);
width = 622;
},
{
layerId = m004;
shapes = (
{
closed = 1;
nodes = (
(313,0,l),
(313,144,l),
(333,144,ls),
(389,144,o),
(413,123,o),
(413,29,c),
(500,29,o),
(545,68,o),
(545,122,cs),
(545,183,o),
(483,220,o),
(368,220,cs),
(313,220,l),
(313,269,l),
(335,269,ls),
(572,269,o),
(660,367,o),
(660,500,cs),
(660,643,o),
(565,714,o),
(357,714,cs),
(21,714,l),
(21,653,l),
(66,653,ls),
(88,653,o),
(113,646,o),
(113,597,cs),
(113,0,l)
);
},
{
closed = 1;
nodes = (
(312,647,l),
(340,647,ls),
(416,647,o),
(452,599,o),
(452,496,cs),
(452,381,o),
(413,335,o),
(326,335,cs),
(312,335,l)
);
}
);
width = 663;
},
{
layerId = m005;
shapes = (
{
closed = 1;
nodes = (
(137,0,l),
(137,159,l),
(169,159,ls),
(210,159,o),
(227,144,o),
(227,78,c),
(244,78,o),
(254,89,o),
(254,108,cs),
(254,167,o),
(218,184,o),
(174,184,cs),
(137,184,l),
(137,284,l),
(207,284,ls),
(349,284,o),
(393,399,o),
(393,509,cs),
(393,647,o),
(339,714,o),
(217,714,cs),
(36,714,l),
(36,694,l),
(53,694,ls),
(103,694,o),
(109,683,o),
(109,606,cs),
(109,0,l)
);
},
{
closed = 1;
nodes = (
(137,689,l),
(217,689,ls),
(325,689,o),
(365,629,o),
(365,509,cs),
(365,420,o),
(333,309,o),
(210,309,cs),
(137,309,l)
);
}
);
width = 433;
},
{
layerId = m006;
shapes = (
{
closed = 1;
nodes = (
(195,0,l),
(195,163,l),
(223,163,ls),
(270,163,o),
(298,144,o),
(298,64,c),
(341,64,o),
(365,91,o),
(365,126,cs),
(365,193,o),
(309,214,o),
(229,214,cs),
(195,214,l),
(195,284,l),
(241,284,ls),
(404,284,o),
(462,387,o),
(462,508,cs),
(462,640,o),
(398,714,o),
(259,714,cs),
(28,714,l),
(28,673,l),
(44,673,ls),
(77,673,o),
(102,664,o),
(102,605,cs),
(102,0,l)
);
},
{
closed = 1;
nodes = (
(195,667,l),
(245,667,ls),
(331,667,o),
(365,617,o),
(365,504,cs),
(365,377,o),
(327,330,o),
(234,330,cs),
(195,330,l)
);
}
);
width = 485;
},
{
layerId = m007;
shapes = (
{
closed = 1;
nodes = (
(233,0,l),
(233,167,l),
(260,167,ls),
(302,167,o),
(334,149,o),
(334,64,c),
(395,64,o),
(427,92,o),
(427,135,cs),
(427,202,o),
(367,227,o),
(268,227,cs),
(233,227,l),
(233,288,l),
(264,288,ls),
(445,288,o),
(513,383,o),
(513,509,cs),
(513,647,o),
(440,714,o),
(282,714,cs),
(23,714,l),
(23,665,l),
(51,665,ls),
(76,665,o),
(98,657,o),
(98,601,cs),
(98,0,l)
);
},
{
closed = 1;
nodes = (
(232,659,l),
(268,659,ls),
(341,659,o),
(372,615,o),
(372,505,cs),
(372,383,o),
(338,342,o),
(256,342,cs),
(232,342,l)
);
}
);
width = 524;
},
{
layerId = m008;
shapes = (
{
closed = 1;
nodes = (
(262,0,l),
(262,170,l),
(289,170,ls),
(325,170,o),
(361,153,o),
(361,64,c),
(436,64,o),
(475,92,o),
(475,143,cs),
(475,210,o),
(411,238,o),
(300,238,cs),
(262,238,l),
(262,291,l),
(280,291,ls),
(477,291,o),
(551,381,o),
(551,511,cs),
(551,652,o),
(472,714,o),
(298,714,cs),
(18,714,l),
(18,658,l),
(55,658,ls),
(74,658,o),
(94,651,o),
(94,599,cs),
(94,0,l)
);
},
{
closed = 1;
nodes = (
(261,652,l),
(284,652,ls),
(347,652,o),
(377,613,o),
(377,507,cs),
(377,389,o),
(345,352,o),
(272,352,cs),
(261,352,l)
);
}
);
width = 553;
}
);
note = uni10BC;
unicode = 4284;
}
{
glyphname = "Char-oldgeorgian";
layers = (
{
layerId = m001;
shapes = (
{
closed = 1;
nodes = (
(379,-10,o),
(437,67,o),
(437,169,cs),
(437,286,o),
(350,330,o),
(259,384,cs),
(175,434,o),
(128,469,o),
(128,554,cs),
(128,636,o),
(176,699,o),
(271,699,cs),
(358,699,o),
(408,661,o),
(408,575,c),
(422,575,o),
(429,589,o),
(429,614,cs),
(429,675,o),
(364,724,o),
(272,724,cs),
(167,724,o),
(100,650,o),
(100,559,cs),
(100,458,o),
(142,417,o),
(249,357,cs),
(363,293,o),
(409,249,o),
(409,168,cs),
(409,78,o),
(364,15,o),
(261,15,cs),
(155,15,o),
(96,66,o),
(96,166,c),
(82,166,o),
(75,150,o),
(75,126,cs),
(75,59,o),
(134,-10,o),
(261,-10,cs)
);
}
);
width = 490;
},
{
layerId = m002;
shapes = (
{
closed = 1;
nodes = (
(400,-12,o),
(493,64,o),
(493,191,cs),
(493,282,o),
(442,343,o),
(307,398,cs),
(186,447,o),
(152,482,o),
(152,560,cs),
(152,631,o),
(198,676,o),
(274,676,cs),
(344,676,o),
(386,627,o),
(386,547,c),
(435,547,o),
(465,569,o),
(465,612,cs),
(465,685,o),
(372,726,o),
(278,726,cs),
(147,726,o),
(59,656,o),
(59,543,cs),
(59,439,o),
(112,375,o),
(243,321,cs),
(362,272,o),
(398,236,o),
(398,165,cs),
(398,81,o),
(345,37,o),
(255,37,cs),
(174,37,o),
(125,95,o),
(120,198,c),
(74,198,o),
(48,171,o),
(48,131,cs),
(48,40,o),
(124,-12,o),
(247,-12,cs)
);
}
);
width = 547;
},
{
layerId = m003;
shapes = (
{
closed = 1;
nodes = (
(410,-13,o),
(536,65,o),
(536,209,cs),
(536,307,o),
(481,367,o),
(345,421,cs),
(245,461,o),
(180,497,o),
(180,571,cs),
(180,626,o),
(219,666,o),
(279,666,cs),
(348,666,o),
(385,610,o),
(385,525,c),
(461,525,o),
(508,558,o),
(508,608,cs),
(508,680,o),
(428,727,o),
(295,727,cs),
(149,727,o),
(50,642,o),
(50,523,cs),
(50,419,o),
(106,358,o),
(237,305,cs),
(334,266,o),
(404,234,o),
(404,158,cs),
(404,94,o),
(354,47,o),
(280,47,cs),
(194,47,o),
(143,116,o),
(143,223,c),
(72,223,o),
(30,188,o),
(30,130,cs),
(30,32,o),
(139,-13,o),
(264,-13,cs)
);
}
);
width = 586;
},
{
layerId = m004;
shapes = (
{
closed = 1;
nodes = (
(462,-14,o),
(575,82,o),
(575,212,cs),
(575,307,o),
(532,377,o),
(380,438,cs),
(231,498,o),
(203,539,o),
(203,579,cs),
(203,632,o),
(242,659,o),
(291,659,cs),
(362,659,o),
(402,576,o),
(402,509,c),
(509,509,o),
(547,548,o),
(547,598,cs),
(547,659,o),
(477,728,o),
(315,728,cs),
(163,728,o),
(46,646,o),
(46,518,cs),
(46,429,o),
(88,355,o),
(240,293,cs),
(348,249,o),
(416,217,o),
(416,153,cs),
(416,107,o),
(376,54,o),
(306,54,cs),
(236,54,o),
(157,105,o),
(157,241,c),
(90,241,o),
(24,218,o),
(24,129,cs),
(24,78,o),
(69,-14,o),
(284,-14,cs)
);
}
);
width = 605;
},
{
layerId = m005;
shapes = (
{
closed = 1;
nodes = (
(289,-10,o),
(340,54,o),
(340,172,cs),
(340,284,o),
(277,328,o),
(204,376,cs),
(128,426,o),
(91,463,o),
(91,557,cs),
(91,638,o),
(127,699,o),
(202,699,cs),
(270,699,o),
(306,648,o),
(306,573,c),
(317,573,o),
(327,584,o),
(327,614,cs),
(327,664,o),
(283,724,o),
(202,724,cs),
(113,724,o),
(63,653,o),
(63,565,cs),
(63,447,o),
(118,398,o),
(187,353,cs),
(276,295,o),
(312,264,o),
(312,163,cs),
(312,65,o),
(269,15,o),
(190,15,cs),
(105,15,o),
(71,88,o),
(67,168,c),
(51,168,o),
(48,140,o),
(48,124,cs),
(48,64,o),
(89,-10,o),
(189,-10,cs)
);
}
);
width = 382;
},
{
layerId = m006;
shapes = (
{
closed = 1;
nodes = (
(323,-12,o),
(402,60,o),
(402,187,cs),
(402,294,o),
(350,348,o),
(253,401,cs),
(160,452,o),
(130,488,o),
(130,560,cs),
(130,632,o),
(161,679,o),
(221,679,cs),
(285,679,o),
(315,617,o),
(315,549,c),
(360,549,o),
(384,568,o),
(384,611,cs),
(384,666,o),
(329,726,o),
(228,726,cs),
(131,726,o),
(52,655,o),
(52,548,cs),
(52,439,o),
(100,381,o),
(192,328,cs),
(279,278,o),
(323,243,o),
(323,160,cs),
(323,81,o),
(287,34,o),
(219,34,cs),
(150,34,o),
(106,99,o),
(101,195,c),
(63,195,o),
(36,169,o),
(36,126,cs),
(36,46,o),
(91,-12,o),
(212,-12,cs)
);
}
);
width = 436;
},
{
layerId = m007;
shapes = (
{
closed = 1;
nodes = (
(358,-13,o),
(446,69,o),
(446,198,cs),
(446,299,o),
(403,360,o),
(289,417,cs),
(179,472,o),
(153,511,o),
(153,569,cs),
(153,634,o),
(184,671,o),
(233,671,cs),
(295,671,o),
(326,600,o),
(326,533,c),
(397,533,o),
(424,560,o),
(424,606,cs),
(424,663,o),
(368,727,o),
(248,727,cs),
(134,727,o),
(44,653,o),
(44,536,cs),
(44,435,o),
(85,371,o),
(196,313,cs),
(285,266,o),
(336,232,o),
(336,157,cs),
(336,92,o),
(302,42,o),
(240,42,cs),
(177,42,o),
(120,102,o),
(118,214,c),
(70,214,o),
(27,189,o),
(27,127,cs),
(27,59,o),
(72,-13,o),
(226,-13,cs)
);
}
);
width = 475;
},
{
layerId = m008;
shapes = (
{
closed = 1;
nodes = (
(385,-14,o),
(480,76,o),
(480,206,cs),
(480,304,o),
(444,370,o),
(317,429,cs),
(193,486,o),
(170,526,o),
(170,574,cs),
(170,632,o),
(202,665,o),
(243,665,cs),
(302,665,o),
(335,586,o),
(335,519,c),
(425,519,o),
(456,553,o),
(456,601,cs),
(456,661,o),
(398,728,o),
(263,728,cs),
(136,728,o),
(38,648,o),
(38,526,cs),
(38,432,o),
(73,363,o),
(199,302,cs),
(290,258,o),
(346,224,o),
(346,155,cs),
(346,100,o),
(314,48,o),
(256,48,cs),
(197,48,o),
(131,104,o),
(131,229,c),
(75,229,o),
(20,205,o),
(20,128,cs),
(20,70,o),
(57,-14,o),
(237,-14,cs)
);
}
);
width = 504;
}
);
note = uni10BD;
unicode = 4285;
}
{
glyphname = "Xan-oldgeorgian";
kernLeft = "Nar-oldgeorgian";
layers = (
{
layerId = m001;
shapes = (
{
closed = 1;
nodes = (
(562,0,l),
(562,25,l),
(177,25,l),
(177,308,l),
(552,308,l),
(552,606,ls),
(552,683,o),
(558,694,o),
(608,694,cs),
(651,694,l),
(651,714,l),
(524,714,l),
(524,333,l),
(177,333,l),
(177,606,ls),
(177,683,o),
(183,694,o),
(233,694,cs),
(278,694,l),
(278,714,l),
(50,714,l),
(50,694,l),
(93,694,ls),
(143,694,o),
(149,683,o),
(149,606,cs),
(149,108,ls),
(149,31,o),
(143,20,o),
(93,20,cs),
(60,20,l),
(60,0,l)
);
}
);
width = 692;
},
{
layerId = m002;
shapes = (
{
closed = 1;
nodes = (
(610,0,l),
(610,42,l),
(234,42,l),
(234,296,l),
(600,296,l),
(600,605,l),
(600,664,o),
(638,672,o),
(682,672,cs),
(695,672,l),
(695,714,l),
(499,714,l),
(499,346,l),
(234,346,l),
(234,600,ls),
(234,663,o),
(271,672,o),
(316,672,cs),
(329,672,l),
(329,714,l),
(38,714,l),
(38,672,l),
(51,672,ls),
(96,672,o),
(133,663,o),
(133,600,cs),
(133,110,ls),
(133,51,o),
(95,42,o),
(51,42,cs),
(38,42,l),
(38,0,l)
);
}
);
width = 728;
},
{
layerId = m003;
shapes = (
{
closed = 1;
nodes = (
(668,0,l),
(668,53,l),
(279,53,l),
(279,291,l),
(658,291,l),
(658,601,ls),
(658,654,o),
(682,661,o),
(709,661,cs),
(751,661,l),
(751,714,l),
(500,714,l),
(500,352,l),
(279,352,l),
(279,596,ls),
(279,653,o),
(302,661,o),
(330,661,cs),
(373,661,l),
(373,714,l),
(28,714,l),
(28,661,l),
(70,661,ls),
(98,661,o),
(121,653,o),
(121,596,cs),
(121,114,ls),
(121,61,o),
(97,53,o),
(70,53,cs),
(28,53,l),
(28,0,l)
);
}
);
width = 777;
},
{
layerId = m004;
shapes = (
{
closed = 1;
nodes = (
(696,0,l),
(696,61,l),
(313,61,l),
(313,287,l),
(686,287,l),
(686,601,ls),
(686,631,o),
(702,653,o),
(725,653,cs),
(778,653,l),
(778,714,l),
(486,714,l),
(486,356,l),
(313,356,l),
(313,603,ls),
(313,630,o),
(325,653,o),
(349,653,cs),
(386,653,l),
(386,714,l),
(21,714,l),
(21,653,l),
(74,653,ls),
(97,653,o),
(113,630,o),
(113,603,cs),
(113,114,ls),
(113,78,o),
(92,61,o),
(65,61,cs),
(21,61,l),
(21,0,l)
);
}
);
width = 795;
},
{
layerId = m005;
shapes = (
{
closed = 1;
nodes = (
(452,0,l),
(452,20,l),
(138,20,l),
(138,308,l),
(442,308,l),
(442,606,l),
(442,683,o),
(448,694,o),
(498,694,cs),
(517,694,l),
(517,714,l),
(414,714,l),
(414,333,l),
(138,333,l),
(138,606,ls),
(138,683,o),
(144,694,o),
(194,694,cs),
(219,694,l),
(219,714,l),
(37,714,l),
(37,694,l),
(54,694,ls),
(104,694,o),
(110,683,o),
(110,606,cs),
(110,108,ls),
(110,31,o),
(104,20,o),
(54,20,cs),
(37,20,l),
(37,0,l)
);
}
);
width = 549;
},
{
layerId = m006;
shapes = (
{
closed = 1;
nodes = (
(510,0,l),
(510,39,l),
(194,39,l),
(194,298,l),
(500,298,l),
(500,605,l),
(500,662,o),
(516,675,o),
(551,675,cs),
(575,675,l),
(575,714,l),
(408,714,l),
(408,344,l),
(194,344,l),
(194,604,ls),
(194,661,o),
(208,675,o),
(244,675,cs),
(264,675,l),
(264,714,l),
(28,714,l),
(28,675,l),
(52,675,ls),
(87,675,o),
(103,661,o),
(103,604,cs),
(103,110,ls),
(103,51,o),
(84,39,o),
(49,39,cs),
(28,39,l),
(28,0,l)
);
}
);
width = 600;
},
{
layerId = m007;
shapes = (
{
closed = 1;
nodes = (
(547,0,l),
(547,48,l),
(233,48,l),
(233,293,l),
(537,293,l),
(537,604,l),
(537,649,o),
(554,666,o),
(580,666,cs),
(613,666,l),
(613,714,l),
(404,714,l),
(404,349,l),
(233,349,l),
(233,603,ls),
(233,648,o),
(246,666,o),
(273,666,cs),
(297,666,l),
(297,714,l),
(23,714,l),
(23,666,l),
(57,666,ls),
(83,666,o),
(99,648,o),
(99,603,cs),
(99,111,ls),
(99,63,o),
(79,48,o),
(51,48,cs),
(23,48,l),
(23,0,l)
);
}
);
width = 632;
},
{
layerId = m008;
shapes = (
{
closed = 1;
nodes = (
(576,0,l),
(576,56,l),
(262,56,l),
(262,289,l),
(566,289,l),
(566,602,l),
(566,639,o),
(579,658,o),
(598,658,cs),
(642,658,l),
(642,714,l),
(398,714,l),
(398,353,l),
(262,353,l),
(262,603,ls),
(262,638,o),
(271,658,o),
(291,658,cs),
(322,658,l),
(322,714,l),
(18,714,l),
(18,658,l),
(62,658,ls),
(81,658,o),
(94,638,o),
(94,603,cs),
(94,113,ls),
(94,71,o),
(76,56,o),
(54,56,cs),
(18,56,l),
(18,0,l)
);
}
);
width = 659;
}
);
note = uni10BE;
unicode = 4286;
}
{
glyphname = "Jhan-oldgeorgian";
layers = (
{
layerId = m001;
shapes = (
{
closed = 1;
nodes = (
(56,0,ls),
(106,0,o),
(124,29,o),
(152,83,cs),
(288,340,l),
(398,120,ls),
(422,73,o),
(434,56,o),
(434,40,cs),
(434,28,o),
(431,20,o),
(398,20,cs),
(360,20,l),
(360,0,l),
(554,0,l),
(554,20,l),
(530,20,ls),
(486,20,o),
(482,24,o),
(459,68,cs),
(302,369,l),
(470,691,l),
(470,714,l),
(18,714,l),
(18,694,l),
(95,694,l),
(271,370,l),
(124,88,ls),
(98,37,o),
(75,20,o),
(31,20,cs),
(6,20,l),
(6,0,l)
);
},
{
closed = 1;
nodes = (
(127,694,l),
(386,694,ls),
(420,694,o),
(423,686,o),
(423,674,cs),
(423,658,o),
(410,636,o),
(395,607,cs),
(286,398,l)
);
}
);
width = 556;
},
{
layerId = m002;
shapes = (
{
closed = 1;
nodes = (
(56,0,ls),
(148,0,o),
(178,42,o),
(244,139,cs),
(354,301,l),
(452,144,ls),
(480,100,o),
(485,90,o),
(485,75,cs),
(485,53,o),
(465,42,o),
(425,42,cs),
(420,42,l),
(420,0,l),
(690,0,l),
(690,42,l),
(677,42,ls),
(652,42,o),
(626,56,o),
(597,95,c),
(415,391,l),
(609,673,l),
(609,714,l),
(44,714,l),
(44,667,l),
(131,667,l),
(325,351,l),
(158,119,ls),
(124,72,o),
(88,48,o),
(47,48,cs),
(35,48,l),
(35,0,l)
);
},
{
closed = 1;
nodes = (
(245,667,l),
(447,667,ls),
(486,667,o),
(501,658,o),
(501,638,cs),
(501,623,o),
(493,603,o),
(476,577,cs),
(386,438,l)
);
}
);
width = 703;
},
{
layerId = m003;
shapes = (
{
closed = 1;
nodes = (
(68,0,ls),
(133,0,o),
(173,33,o),
(250,148,cs),
(347,292,l),
(438,155,ls),
(467,112,o),
(471,101,o),
(471,86,cs),
(471,64,o),
(451,53,o),
(411,53,cs),
(406,53,l),
(406,0,l),
(736,0,l),
(736,53,l),
(723,53,ls),
(698,53,o),
(669,65,o),
(643,106,cs),
(452,404,l),
(637,661,l),
(637,714,l),
(46,714,l),
(46,661,l),
(114,661,l),
(311,351,l),
(145,123,ls),
(105,69,o),
(72,53,o),
(22,53,cs),
(16,53,l),
(16,0,l)
);
},
{
closed = 1;
nodes = (
(286,661,l),
(465,661,ls),
(490,661,o),
(519,658,o),
(519,632,cs),
(519,615,o),
(509,595,o),
(492,571,cs),
(416,462,l)
);
}
);
width = 748;
},
{
layerId = m004;
shapes = (
{
closed = 1;
nodes = (
(63,0,ls),
(106,0,o),
(133,29,o),
(179,82,cs),
(349,280,l),
(431,163,ls),
(461,121,o),
(464,109,o),
(464,94,cs),
(464,72,o),
(444,61,o),
(404,61,cs),
(399,61,l),
(399,0,l),
(773,0,l),
(773,61,l),
(760,61,ls),
(735,61,o),
(707,74,o),
(680,114,cs),
(489,401,l),
(697,653,l),
(697,714,l),
(38,714,l),
(38,653,l),
(103,653,l),
(307,344,l),
(121,131,ls),
(72,75,o),
(55,61,o),
(17,61,cs),
(11,61,l),
(11,0,l)
);
},
{
closed = 1;
nodes = (
(322,653,l),
(505,653,ls),
(536,653,o),
(561,648,o),
(561,624,cs),
(561,606,o),
(544,576,o),
(532,563,cs),
(448,467,l)
);
}
);
width = 785;
},
{
layerId = m005;
shapes = (
{
closed = 1;
nodes = (
(25,0,ls),
(74,0,o),
(84,7,o),
(108,64,cs),
(222,337,l),
(321,121,ls),
(345,68,o),
(355,47,o),
(355,36,cs),
(355,26,o),
(351,20,o),
(313,20,cs),
(283,20,l),
(283,0,l),
(441,0,l),
(441,20,l),
(437,20,ls),
(401,20,o),
(394,23,o),
(374,68,cs),
(236,371,l),
(372,694,l),
(372,714,l),
(9,714,l),
(9,694,l),
(59,694,l),
(208,368,l),
(82,67,ls),
(63,22,o),
(54,20,o),
(10,20,cs),
(4,20,l),
(4,0,l)
);
},
{
closed = 1;
nodes = (
(89,694,l),
(295,694,ls),
(329,694,o),
(332,686,o),
(332,674,cs),
(332,658,o),
(320,637,o),
(308,607,cs),
(222,402,l)
);
}
);
width = 443;
},
{
layerId = m006;
shapes = (
{
closed = 1;
nodes = (
(32,0,ls),
(84,0,o),
(103,18,o),
(134,79,cs),
(253,314,l),
(336,140,ls),
(358,93,o),
(365,80,o),
(365,66,cs),
(365,47,o),
(350,36,o),
(313,36,cs),
(307,36,l),
(307,0,l),
(533,0,l),
(533,36,l),
(524,36,ls),
(499,36,o),
(479,51,o),
(460,89,cs),
(317,381,l),
(466,675,l),
(466,714,l),
(19,714,l),
(19,675,l),
(71,675,l),
(227,359,l),
(92,102,ls),
(66,53,o),
(52,39,o),
(12,39,cs),
(6,39,l),
(6,0,l)
);
},
{
closed = 1;
nodes = (
(174,675,l),
(349,675,ls),
(377,675,o),
(391,670,o),
(391,649,cs),
(391,632,o),
(379,609,o),
(368,586,cs),
(294,427,l)
);
}
);
width = 536;
},
{
layerId = m007;
shapes = (
{
closed = 1;
nodes = (
(34,0,ls),
(91,0,o),
(114,25,o),
(149,86,cs),
(271,301,l),
(347,151,ls),
(369,107,o),
(374,96,o),
(374,81,cs),
(374,59,o),
(354,46,o),
(318,46,c),
(321,46,l),
(321,0,l),
(592,0,l),
(592,46,l),
(581,46,ls),
(561,46,o),
(535,65,o),
(517,101,cs),
(370,387,l),
(525,665,l),
(525,714,l),
(25,714,l),
(25,665,l),
(78,665,l),
(240,355,l),
(98,119,ls),
(69,71,o),
(51,49,o),
(12,49,cs),
(7,49,l),
(7,0,l)
);
},
{
closed = 1;
nodes = (
(226,665,l),
(386,665,ls),
(412,665,o),
(432,660,o),
(432,636,cs),
(432,618,o),
(420,595,o),
(410,575,cs),
(341,440,l)
);
}
);
width = 596;
},
{
layerId = m008;
shapes = (
{
closed = 1;
nodes = (
(28,0,ls),
(99,0,o),
(123,33,o),
(157,87,cs),
(287,293,l),
(360,158,ls),
(383,115,o),
(387,104,o),
(387,89,cs),
(387,67,o),
(370,56,o),
(337,56,cs),
(333,56,l),
(333,0,l),
(645,0,l),
(645,56,l),
(634,56,ls),
(613,56,o),
(590,69,o),
(568,109,cs),
(414,389,l),
(577,658,l),
(577,714,l),
(31,714,l),
(31,658,l),
(85,658,l),
(252,352,l),
(101,125,ls),
(74,84,o),
(54,56,o),
(14,56,cs),
(9,56,l),
(9,0,l)
);
},
{
closed = 1;
nodes = (
(266,658,l),
(425,658,ls),
(451,658,o),
(471,653,o),
(471,629,cs),
(471,611,o),
(456,585,o),
(447,568,cs),
(380,450,l)
);
}
);
width = 650;
}
);
note = uni10BF;
unicode = 4287;
}
{
glyphname = "Hae-oldgeorgian";
kernLeft = "Gan-oldgeorgian";
layers = (
{
layerId = m001;
shapes = (
{
closed = 1;
nodes = (
(772,-10,o),
(859,61,o),
(859,214,cs),
(859,252,o),
(842,351,o),
(804,351,cs),
(799,351,o),
(795,350,o),
(791,348,c),
(817,316,o),
(831,248,o),
(831,210,cs),
(831,86,o),
(760,15,o),
(645,15,cs),
(514,15,o),
(454,106,o),
(454,219,cs),
(454,624,ls),
(454,685,o),
(464,694,o),
(510,694,cs),
(530,694,l),
(530,714,l),
(50,714,l),
(50,694,l),
(73,694,ls),
(119,694,o),
(129,685,o),
(129,624,cs),
(129,446,ls),
(129,385,o),
(119,376,o),
(73,376,cs),
(50,376,l),
(50,356,l),
(157,356,l),
(157,689,l),
(426,689,l),
(426,218,ls),
(426,88,o),
(498,-10,o),
(643,-10,cs)
);
}
);
userData = {
com.schriftgestaltung.Glyphs.glyph.leftMetricsKey = "Las-oldgeorgian";
};
width = 896;
},
{
layerId = m002;
shapes = (
{
closed = 1;
nodes = (
(817,-12,o),
(905,74,o),
(905,226,cs),
(905,284,o),
(868,359,o),
(806,359,cs),
(793,359,o),
(779,357,o),
(763,352,c),
(790,320,o),
(804,284,o),
(804,222,cs),
(804,99,o),
(763,42,o),
(667,42,cs),
(573,42,o),
(530,104,o),
(530,232,cs),
(530,610,ls),
(530,663,o),
(567,672,o),
(592,672,cs),
(606,672,l),
(606,714,l),
(38,714,l),
(38,672,l),
(52,672,ls),
(77,672,o),
(114,663,o),
(114,610,cs),
(114,428,ls),
(114,375,o),
(77,366,o),
(52,366,cs),
(38,366,l),
(38,324,l),
(214,324,l),
(214,660,l),
(429,660,l),
(429,239,ls),
(429,69,o),
(505,-12,o),
(663,-12,cs)
);
}
);
userData = {
com.schriftgestaltung.Glyphs.glyph.leftMetricsKey = "Las-oldgeorgian";
};
width = 930;
},
{
layerId = m004;
shapes = (
{
closed = 1;
nodes = (
(937,-14,o),
(1044,79,o),
(1044,225,cs),
(1044,312,o),
(989,387,o),
(894,387,cs),
(855,387,o),
(818,375,o),
(790,361,c),
(828,314,o),
(850,257,o),
(850,195,cs),
(850,109,o),
(813,62,o),
(746,62,cs),
(681,62,o),
(642,105,o),
(642,192,cs),
(642,599,ls),
(642,636,o),
(655,653,o),
(683,653,cs),
(708,653,l),
(708,714,l),
(21,714,l),
(21,653,l),
(46,653,ls),
(74,653,o),
(88,636,o),
(88,599,cs),
(88,413,ls),
(88,376,o),
(74,359,o),
(46,359,cs),
(21,359,l),
(21,298,l),
(288,298,l),
(288,638,l),
(448,638,l),
(448,224,ls),
(448,70,o),
(559,-14,o),
(746,-14,cs)
);
}
);
userData = {
com.schriftgestaltung.Glyphs.glyph.leftMetricsKey = "Las-oldgeorgian";
};
width = 1084;
},
{
layerId = m005;
shapes = (
{
closed = 1;
nodes = (
(633,-10,o),
(690,89,o),
(690,200,cs),
(690,260,o),
(666,358,o),
(629,358,cs),
(623,358,o),
(617,356,o),
(612,354,c),
(651,315,o),
(662,260,o),
(662,202,cs),
(662,114,o),
(623,15,o),
(521,15,cs),
(423,15,o),
(365,74,o),
(365,210,cs),
(365,646,ls),
(365,683,o),
(371,694,o),
(411,694,cs),
(431,694,l),
(431,714,l),
(36,714,l),
(36,694,l),
(56,694,ls),
(96,694,o),
(102,683,o),
(102,646,cs),
(102,426,ls),
(102,389,o),
(96,378,o),
(56,378,cs),
(36,378,l),
(36,358,l),
(130,358,l),
(130,689,l),
(337,689,l),
(337,214,ls),
(337,55,o),
(407,-10,o),
(520,-10,cs)
);
}
);
userData = {
com.schriftgestaltung.Glyphs.glyph.leftMetricsKey = "Las-oldgeorgian";
};
width = 722;
},
{
layerId = m006;
shapes = (
{
closed = 1;
nodes = (
(710,-12,o),
(776,85,o),
(776,207,cs),
(776,275,o),
(752,358,o),
(680,358,cs),
(669,358,o),
(657,356,o),
(646,351,c),
(675,308,o),
(685,266,o),
(685,216,cs),
(685,120,o),
(649,43,o),
(565,43,cs),
(487,43,o),
(444,92,o),
(444,217,cs),
(444,608,ls),
(444,657,o),
(466,669,o),
(489,669,cs),
(510,669,l),
(510,714,l),
(25,714,l),
(25,669,l),
(46,669,ls),
(69,669,o),
(90,657,o),
(90,608,cs),
(90,442,ls),
(90,392,o),
(69,380,o),
(46,380,cs),
(25,380,l),
(25,335,l),
(182,335,l),
(182,663,l),
(352,663,l),
(352,216,ls),
(352,57,o),
(435,-12,o),
(565,-12,cs)
);
}
);
userData = {
com.schriftgestaltung.Glyphs.glyph.leftMetricsKey = "Las-oldgeorgian";
};
width = 805;
},
{
layerId = m008;
shapes = (
{
closed = 1;
nodes = (
(789,-14,o),
(856,76,o),
(856,214,cs),
(856,300,o),
(817,363,o),
(727,363,cs),
(702,363,o),
(677,358,o),
(656,347,c),
(681,307,o),
(689,263,o),
(689,216,cs),
(689,107,o),
(656,60,o),
(605,60,cs),
(541,60,o),
(515,95,o),
(515,210,cs),
(515,619,ls),
(515,648,o),
(531,658,o),
(556,658,cs),
(572,658,l),
(572,714,l),
(18,714,l),
(18,658,l),
(34,658,ls),
(64,658,o),
(76,643,o),
(76,600,cs),
(76,433,ls),
(76,390,o),
(64,375,o),
(34,375,cs),
(18,375,l),
(18,319,l),
(243,319,l),
(243,640,l),
(347,640,l),
(347,218,ls),
(347,50,o),
(446,-14,o),
(606,-14,cs)
);
}
);
userData = {
com.schriftgestaltung.Glyphs.glyph.leftMetricsKey = "Las-oldgeorgian";
};
width = 885;
}
);
note = uni10C0;
unicode = 4288;
}
{
glyphname = "He-oldgeorgian";
kernLeft = "Kan-oldgeorgian";
layers = (
{
layerId = m001;
shapes = (
{
closed = 1;
nodes = (
(167,0,l),
(167,313,ls),
(167,426,o),
(227,517,o),
(340,517,cs),
(439,517,o),
(491,456,o),
(491,362,cs),
(491,290,l),
(664,290,l),
(664,315,l),
(519,315,l),
(519,362,ls),
(519,481,o),
(452,542,o),
(338,542,cs),
(260,542,o),
(197,498,o),
(167,430,c),
(164,430,l),
(166,462,o),
(167,495,o),
(167,527,cs),
(167,714,l),
(40,714,l),
(40,694,l),
(83,694,ls),
(133,694,o),
(139,683,o),
(139,606,cs),
(139,0,l)
);
}
);
width = 688;
},
{
layerId = m002;
shapes = (
{
closed = 1;
nodes = (
(211,0,l),
(211,331,ls),
(211,438,o),
(253,492,o),
(338,492,cs),
(408,492,o),
(449,439,o),
(449,331,cs),
(449,260,l),
(688,260,l),
(688,314,l),
(550,314,l),
(550,331,ls),
(550,468,o),
(478,546,o),
(358,546,cs),
(286,546,o),
(231,519,o),
(212,475,c),
(207,475,l),
(209,513,o),
(211,541,o),
(211,560,cs),
(211,714,l),
(15,714,l),
(15,672,l),
(28,672,ls),
(79,672,o),
(110,659,o),
(110,604,cs),
(110,0,l)
);
}
);
width = 711;
},
{
layerId = m003;
shapes = (
{
closed = 1;
nodes = (
(263,0,l),
(263,330,ls),
(263,431,o),
(298,482,o),
(367,482,cs),
(444,482,o),
(473,437,o),
(473,329,cs),
(473,245,l),
(766,245,l),
(766,316,l),
(631,316,l),
(631,332,ls),
(631,488,o),
(563,566,o),
(427,566,cs),
(348,566,o),
(297,542,o),
(262,486,c),
(255,486,l),
(260,551,o),
(263,591,o),
(263,607,cs),
(263,714,l),
(22,714,l),
(22,661,l),
(54,661,ls),
(93,661,o),
(105,641,o),
(105,596,cs),
(105,0,l)
);
}
);
width = 781;
},
{
layerId = m004;
shapes = (
{
closed = 1;
nodes = (
(302,0,l),
(302,348,ls),
(302,408,o),
(340,467,o),
(406,467,cs),
(466,467,o),
(495,439,o),
(495,320,cs),
(495,234,l),
(830,234,l),
(830,303,l),
(695,303,l),
(695,325,ls),
(695,485,o),
(632,551,o),
(476,551,cs),
(381,551,o),
(341,520,o),
(306,483,c),
(296,483,l),
(301,511,o),
(302,540,o),
(302,572,cs),
(302,714,l),
(24,714,l),
(24,654,l),
(54,654,ls),
(90,654,o),
(102,630,o),
(102,609,cs),
(102,0,l)
);
}
);
width = 840;
},
{
layerId = m005;
shapes = (
{
closed = 1;
nodes = (
(133,0,l),
(133,381,ls),
(133,448,o),
(195,517,o),
(284,517,cs),
(360,517,o),
(399,472,o),
(399,367,cs),
(399,290,l),
(532,290,l),
(532,315,l),
(427,315,l),
(427,379,ls),
(427,484,o),
(379,542,o),
(286,542,cs),
(228,542,o),
(168,516,o),
(135,450,c),
(131,450,l),
(132,471,o),
(133,491,o),
(133,512,cs),
(133,714,l),
(35,714,l),
(35,694,l),
(55,694,ls),
(101,694,o),
(105,683,o),
(105,609,cs),
(105,0,l)
);
}
);
width = 550;
},
{
layerId = m006;
shapes = (
{
closed = 1;
nodes = (
(189,0,l),
(189,351,ls),
(189,429,o),
(237,484,o),
(306,484,cs),
(370,484,o),
(397,447,o),
(397,363,cs),
(397,263,l),
(605,263,l),
(605,312,l),
(491,312,l),
(491,370,ls),
(491,488,o),
(434,545,o),
(336,545,cs),
(279,545,o),
(224,520,o),
(190,463,c),
(186,463,l),
(188,485,o),
(189,507,o),
(189,529,cs),
(189,714,l),
(29,714,l),
(29,673,l),
(47,673,ls),
(83,673,o),
(96,660,o),
(96,595,cs),
(96,0,l)
);
}
);
width = 619;
},
{
layerId = m007;
shapes = (
{
closed = 1;
nodes = (
(227,0,l),
(227,367,ls),
(227,417,o),
(265,467,o),
(320,467,cs),
(377,467,o),
(397,431,o),
(397,360,cs),
(397,252,l),
(659,252,l),
(659,310,l),
(533,310,l),
(533,365,ls),
(533,492,o),
(471,548,o),
(369,548,cs),
(313,548,o),
(262,524,o),
(227,471,c),
(223,471,l),
(226,494,o),
(227,518,o),
(227,541,cs),
(227,714,l),
(22,714,l),
(22,665,l),
(44,665,ls),
(77,665,o),
(90,655,o),
(90,597,cs),
(90,0,l)
);
}
);
width = 671;
},
{
layerId = m008;
shapes = (
{
closed = 1;
nodes = (
(256,0,l),
(256,362,ls),
(256,408,o),
(287,454,o),
(332,454,cs),
(382,454,o),
(397,418,o),
(397,358,cs),
(397,244,l),
(702,244,l),
(702,308,l),
(567,308,l),
(567,360,ls),
(567,494,o),
(500,550,o),
(395,550,cs),
(340,550,o),
(292,526,o),
(256,478,c),
(252,478,l),
(255,502,o),
(256,526,o),
(256,550,cs),
(256,714,l),
(16,714,l),
(16,658,l),
(42,658,ls),
(72,658,o),
(86,651,o),
(86,599,cs),
(86,0,l)
);
}
);
width = 712;
}
);
note = uni10C1;
unicode = 4289;
}
{
glyphname = "Hie-oldgeorgian";
layers = (
{
layerId = m001;
shapes = (
{
closed = 1;
nodes = (
(397,-10,o),
(489,106,o),
(489,306,cs),
(489,497,o),
(403,614,o),
(227,614,cs),
(177,614,l),
(177,714,l),
(53,714,l),
(53,694,l),
(96,694,ls),
(138,694,o),
(149,684,o),
(149,627,cs),
(149,589,l),
(227,589,ls),
(386,589,o),
(461,481,o),
(461,306,cs),
(461,127,o),
(380,15,o),
(228,15,cs),
(89,15,o),
(54,73,o),
(54,146,c),
(45,146,o),
(30,131,o),
(30,107,cs),
(30,58,o),
(82,-10,o),
(222,-10,cs)
);
}
);
width = 546;
},
{
layerId = m002;
shapes = (
{
closed = 1;
nodes = (
(457,-12,o),
(575,113,o),
(575,312,cs),
(575,512,o),
(460,635,o),
(262,635,cs),
(211,635,l),
(211,714,l),
(15,714,l),
(15,672,l),
(28,672,ls),
(79,672,o),
(110,659,o),
(110,604,cs),
(110,581,l),
(262,581,ls),
(399,581,o),
(464,497,o),
(464,312,cs),
(464,128,o),
(399,42,o),
(261,42,cs),
(179,42,o),
(129,101,o),
(129,187,c),
(77,187,o),
(45,162,o),
(45,113,cs),
(45,23,o),
(152,-12,o),
(261,-12,cs)
);
}
);
width = 636;
},
{
layerId = m003;
shapes = (
{
closed = 1;
nodes = (
(485,-13,o),
(613,115,o),
(613,320,cs),
(613,526,o),
(489,635,o),
(266,635,cs),
(252,635,l),
(252,714,l),
(16,714,l),
(16,661,l),
(44,661,ls),
(83,661,o),
(95,641,o),
(95,596,cs),
(95,562,l),
(243,562,ls),
(387,562,o),
(445,493,o),
(445,319,cs),
(445,135,o),
(393,51,o),
(295,51,cs),
(207,51,o),
(165,106,o),
(165,193,c),
(87,193,o),
(40,159,o),
(40,106,cs),
(40,35,o),
(127,-13,o),
(288,-13,cs)
);
}
);
width = 668;
},
{
layerId = m004;
shapes = (
{
closed = 1;
nodes = (
(530,-14,o),
(654,124,o),
(654,311,cs),
(654,481,o),
(553,612,o),
(348,612,cs),
(321,612,l),
(321,714,l),
(28,714,l),
(28,653,l),
(92,653,ls),
(109,653,o),
(120,646,o),
(120,593,cs),
(120,535,l),
(246,535,ls),
(395,535,o),
(444,473,o),
(444,306,cs),
(444,150,o),
(411,58,o),
(302,58,cs),
(222,58,o),
(197,141,o),
(197,208,c),
(93,208,o),
(44,165,o),
(44,103,cs),
(44,46,o),
(126,-14,o),
(291,-14,cs)
);
}
);
width = 708;
},
{
layerId = m005;
shapes = (
{
closed = 1;
nodes = (
(317,-10,o),
(381,115,o),
(381,306,cs),
(381,481,o),
(312,614,o),
(159,614,cs),
(139,614,l),
(139,714,l),
(39,714,l),
(39,694,l),
(55,694,ls),
(105,694,o),
(111,683,o),
(111,614,cs),
(111,589,l),
(161,589,ls),
(292,589,o),
(353,460,o),
(353,306,cs),
(353,143,o),
(305,15,o),
(179,15,cs),
(90,15,o),
(43,64,o),
(43,148,c),
(30,148,o),
(22,132,o),
(22,102,cs),
(22,43,o),
(77,-10,o),
(178,-10,cs)
);
}
);
width = 425;
},
{
layerId = m006;
shapes = (
{
closed = 1;
nodes = (
(369,-12,o),
(454,121,o),
(454,294,cs),
(454,473,o),
(373,605,o),
(218,605,c),
(201,605,l),
(201,719,l),
(35,719,l),
(35,678,l),
(51,678,ls),
(88,678,o),
(109,669,o),
(109,606,cs),
(109,549,l),
(189,549,l),
(310,549,o),
(353,441,o),
(353,293,cs),
(353,138,o),
(311,40,o),
(204,40,cs),
(132,40,o),
(103,102,o),
(103,171,c),
(58,171,o),
(29,143,o),
(29,103,cs),
(29,47,o),
(86,-12,o),
(198,-12,cs)
);
}
);
width = 498;
},
{
layerId = m007;
shapes = (
{
closed = 1;
nodes = (
(410,-13,o),
(506,118,o),
(506,290,cs),
(506,459,o),
(423,596,o),
(255,596,cs),
(241,596,l),
(241,714,l),
(31,714,l),
(31,665,l),
(58,665,ls),
(92,665,o),
(106,657,o),
(106,598,cs),
(106,531,l),
(198,531,ls),
(321,531,o),
(362,439,o),
(362,289,cs),
(362,141,o),
(328,47,o),
(231,47,cs),
(162,47,o),
(138,121,o),
(138,189,c),
(69,189,o),
(33,153,o),
(33,106,cs),
(33,46,o),
(97,-13,o),
(223,-13,cs)
);
}
);
width = 550;
},
{
layerId = m008;
shapes = (
{
closed = 1;
nodes = (
(442,-14,o),
(546,120,o),
(546,291,cs),
(546,451,o),
(463,592,o),
(283,592,cs),
(273,592,l),
(273,714,l),
(28,714,l),
(28,658,l),
(63,658,ls),
(96,658,o),
(105,651,o),
(105,595,cs),
(105,522,l),
(205,522,ls),
(329,522,o),
(370,441,o),
(370,290,cs),
(370,147,o),
(343,53,o),
(252,53,cs),
(186,53,o),
(165,140,o),
(165,208,c),
(78,208,o),
(37,164,o),
(37,113,cs),
(37,49,o),
(105,-14,o),
(243,-14,cs)
);
}
);
width = 591;
}
);
note = uni10C2;
unicode = 4290;
}
{
glyphname = "We-oldgeorgian";
layers = (
{
layerId = m001;
shapes = (
{
closed = 1;
nodes = (
(362,694,l),
(385,694,ls),
(431,694,o),
(441,685,o),
(441,624,cs),
(441,467,ls),
(441,354,o),
(384,263,o),
(258,263,cs),
(148,263,o),
(90,323,o),
(90,436,cs),
(90,507,o),
(108,548,o),
(142,585,c),
(140,586,o),
(137,587,o),
(134,587,cs),
(109,587,o),
(62,544,o),
(62,436,cs),
(62,302,o),
(136,238,o),
(258,238,cs),
(346,238,o),
(407,280,o),
(441,348,c),
(444,348,l),
(442,316,o),
(441,278,o),
(441,246,cs),
(441,0,l),
(469,0,l),
(469,624,ls),
(469,685,o),
(479,694,o),
(525,694,cs),
(545,694,l),
(545,714,l),
(362,714,l)
);
}
);
width = 604;
},
{
layerId = m002;
shapes = (
{
closed = 1;
nodes = (
(355,672,l),
(368,672,ls),
(393,672,o),
(430,663,o),
(430,610,cs),
(430,436,ls),
(430,325,o),
(375,272,o),
(276,272,cs),
(189,272,o),
(148,321,o),
(148,421,cs),
(148,499,o),
(173,548,o),
(198,568,c),
(187,578,o),
(173,583,o),
(156,583,cs),
(105,583,o),
(37,532,o),
(37,423,cs),
(37,292,o),
(123,218,o),
(248,218,cs),
(333,218,o),
(397,249,o),
(429,289,c),
(434,289,l),
(431,251,o),
(430,223,o),
(430,204,cs),
(430,0,l),
(531,0,l),
(531,610,ls),
(531,663,o),
(564,672,o),
(589,672,cs),
(602,672,l),
(602,714,l),
(355,714,l)
);
}
);
width = 630;
},
{
layerId = m003;
shapes = (
{
closed = 1;
nodes = (
(344,661,l),
(366,661,ls),
(395,661,o),
(415,653,o),
(415,606,cs),
(415,444,ls),
(415,343,o),
(376,292,o),
(307,292,cs),
(235,292,o),
(198,342,o),
(198,427,cs),
(198,506,o),
(218,544,o),
(238,563,c),
(216,576,o),
(191,584,o),
(166,584,cs),
(98,584,o),
(30,532,o),
(30,414,cs),
(30,278,o),
(130,208,o),
(248,208,cs),
(323,208,o),
(379,231,o),
(416,288,c),
(423,288,l),
(418,227,o),
(415,187,o),
(415,167,cs),
(415,0,l),
(573,0,l),
(573,606,ls),
(573,653,o),
(595,661,o),
(624,661,cs),
(646,661,l),
(646,714,l),
(344,714,l)
);
}
);
width = 658;
},
{
layerId = m004;
shapes = (
{
closed = 1;
nodes = (
(399,653,l),
(422,653,ls),
(444,653,o),
(465,636,o),
(465,600,cs),
(465,415,ls),
(465,342,o),
(413,288,o),
(342,288,cs),
(282,288,o),
(242,328,o),
(242,418,cs),
(242,494,o),
(255,536,o),
(285,573,c),
(256,586,o),
(227,592,o),
(200,592,cs),
(114,592,o),
(42,532,o),
(42,413,cs),
(42,275,o),
(159,212,o),
(283,212,cs),
(376,212,o),
(426,243,o),
(461,280,c),
(471,280,l),
(466,252,o),
(465,223,o),
(465,191,cs),
(465,0,l),
(665,0,l),
(665,599,ls),
(665,636,o),
(679,653,o),
(707,653,cs),
(732,653,l),
(732,714,l),
(399,714,l)
);
}
);
width = 745;
},
{
layerId = m005;
shapes = (
{
closed = 1;
nodes = (
(292,694,l),
(312,694,ls),
(342,694,o),
(358,683,o),
(358,646,cs),
(358,399,ls),
(358,332,o),
(296,263,o),
(207,263,cs),
(118,263,o),
(76,315,o),
(76,422,cs),
(76,507,o),
(100,544,o),
(125,575,c),
(123,577,o),
(120,577,o),
(116,577,cs),
(92,577,o),
(48,534,o),
(48,422,cs),
(48,295,o),
(105,238,o),
(207,238,cs),
(263,238,o),
(323,264,o),
(356,330,c),
(360,330,l),
(359,309,o),
(358,289,o),
(358,268,cs),
(358,0,l),
(386,0,l),
(386,646,ls),
(386,683,o),
(392,694,o),
(432,694,cs),
(452,694,l),
(452,714,l),
(292,714,l)
);
}
);
width = 486;
},
{
layerId = m006;
shapes = (
{
closed = 1;
nodes = (
(317,669,l),
(338,669,ls),
(359,669,o),
(382,657,o),
(382,608,cs),
(382,436,ls),
(382,347,o),
(328,293,o),
(245,293,cs),
(169,293,o),
(135,344,o),
(135,432,cs),
(135,511,o),
(151,545,o),
(176,572,c),
(165,580,o),
(151,585,o),
(136,585,cs),
(92,585,o),
(42,547,o),
(42,435,cs),
(42,301,o),
(118,236,o),
(223,236,cs),
(287,236,o),
(347,261,o),
(381,319,c),
(385,319,l),
(383,296,o),
(382,274,o),
(382,252,cs),
(382,0,l),
(476,0,l),
(476,608,ls),
(476,657,o),
(494,669,o),
(520,669,cs),
(542,669,l),
(542,714,l),
(317,714,l)
);
}
);
width = 568;
},
{
layerId = m007;
shapes = (
{
closed = 1;
nodes = (
(322,663,l),
(343,663,ls),
(366,663,o),
(386,649,o),
(386,602,cs),
(386,436,ls),
(386,352,o),
(341,303,o),
(269,303,cs),
(207,303,o),
(174,346,o),
(174,440,cs),
(174,499,o),
(185,535,o),
(211,564,c),
(194,575,o),
(172,581,o),
(151,581,cs),
(96,581,o),
(38,541,o),
(38,434,cs),
(38,294,o),
(121,232,o),
(220,232,cs),
(294,232,o),
(350,257,o),
(385,310,c),
(389,310,l),
(387,286,o),
(386,263,o),
(386,240,cs),
(386,0,l),
(522,0,l),
(522,601,ls),
(522,649,o),
(537,663,o),
(564,663,cs),
(587,663,l),
(587,714,l),
(322,714,l)
);
}
);
width = 611;
},
{
layerId = m008;
shapes = (
{
closed = 1;
nodes = (
(332,658,l),
(346,658,ls),
(370,658,o),
(388,643,o),
(388,601,cs),
(388,428,ls),
(388,360,o),
(350,311,o),
(291,311,cs),
(231,311,o),
(204,364,o),
(204,432,cs),
(204,488,o),
(210,526,o),
(230,558,c),
(211,569,o),
(187,575,o),
(163,575,cs),
(101,575,o),
(34,533,o),
(34,417,cs),
(34,292,o),
(128,230,o),
(224,230,cs),
(298,230,o),
(352,254,o),
(388,302,c),
(392,302,l),
(389,278,o),
(388,254,o),
(388,230,cs),
(388,0,l),
(558,0,l),
(558,600,ls),
(558,643,o),
(567,658,o),
(597,658,cs),
(613,658,l),
(613,714,l),
(332,714,l)
);
}
);
width = 644;
}
);
note = uni10C3;
unicode = 4291;
}
{
glyphname = "Har-oldgeorgian";
kernLeft = "Qar-oldgeorgian";
layers = (
{
layerId = m001;
shapes = (
{
closed = 1;
nodes = (
(386,694,l),
(409,694,ls),
(455,694,o),
(465,685,o),
(465,624,cs),
(465,510,ls),
(465,376,o),
(406,315,o),
(304,315,cs),
(187,315,o),
(141,396,o),
(141,509,cs),
(141,624,ls),
(141,685,o),
(151,694,o),
(197,694,cs),
(217,694,l),
(217,714,l),
(34,714,l),
(34,694,l),
(57,694,ls),
(103,694,o),
(113,685,o),
(113,624,cs),
(113,508,ls),
(113,379,o),
(167,296,o),
(290,290,c),
(290,0,l),
(318,0,l),
(318,290,l),
(425,296,o),
(493,358,o),
(493,514,cs),
(493,624,ls),
(493,685,o),
(503,694,o),
(549,694,cs),
(569,694,l),
(569,714,l),
(386,714,l)
);
}
);
width = 603;
},
{
layerId = m002;
shapes = (
{
closed = 1;
nodes = (
(450,672,l),
(463,672,ls),
(488,672,o),
(525,663,o),
(525,610,cs),
(525,456,ls),
(525,358,o),
(468,300,o),
(368,300,cs),
(265,300,o),
(211,355,o),
(211,460,cs),
(211,610,ls),
(211,663,o),
(244,672,o),
(269,672,cs),
(282,672,l),
(282,714,l),
(35,714,l),
(35,672,l),
(48,672,ls),
(73,672,o),
(110,663,o),
(110,610,cs),
(110,466,ls),
(110,333,o),
(173,263,o),
(316,249,c),
(316,0,l),
(417,0,l),
(417,248,l),
(555,262,o),
(626,333,o),
(626,454,cs),
(626,610,ls),
(626,663,o),
(659,672,o),
(684,672,cs),
(697,672,l),
(697,714,l),
(450,714,l)
);
}
);
width = 717;
},
{
layerId = m004;
shapes = (
{
closed = 1;
nodes = (
(437,653,l),
(450,653,ls),
(472,653,o),
(493,636,o),
(493,600,cs),
(493,425,ls),
(493,343,o),
(458,296,o),
(395,296,cs),
(338,296,o),
(300,336,o),
(300,422,cs),
(300,599,ls),
(300,636,o),
(314,653,o),
(342,653,cs),
(357,653,l),
(357,714,l),
(34,714,l),
(34,653,l),
(57,653,ls),
(79,653,o),
(100,636,o),
(100,600,cs),
(100,434,ls),
(100,317,o),
(172,249,o),
(297,228,c),
(297,0,l),
(497,0,l),
(497,230,l),
(625,257,o),
(693,338,o),
(693,455,cs),
(693,599,ls),
(693,636,o),
(707,653,o),
(735,653,cs),
(760,653,l),
(760,714,l),
(437,714,l)
);
}
);
width = 771;
},
{
layerId = m005;
shapes = (
{
closed = 1;
nodes = (
(318,694,l),
(338,694,ls),
(368,694,o),
(384,683,o),
(384,646,cs),
(384,460,ls),
(384,324,o),
(337,275,o),
(251,275,cs),
(147,275,o),
(118,354,o),
(118,452,cs),
(118,646,ls),
(118,683,o),
(124,694,o),
(164,694,cs),
(184,694,l),
(184,714,l),
(24,714,l),
(24,694,l),
(44,694,ls),
(74,694,o),
(90,683,o),
(90,646,cs),
(90,450,ls),
(90,334,o),
(134,254,o),
(237,250,c),
(237,0,l),
(265,0,l),
(265,250,l),
(362,256,o),
(412,313,o),
(412,464,cs),
(412,646,ls),
(412,683,o),
(418,694,o),
(458,694,cs),
(478,694,l),
(478,714,l),
(318,714,l)
);
}
);
width = 492;
},
{
layerId = m006;
shapes = (
{
closed = 1;
nodes = (
(325,669,l),
(346,669,ls),
(368,669,o),
(391,657,o),
(391,608,cs),
(391,450,ls),
(391,325,o),
(355,292,o),
(287,292,cs),
(213,292,o),
(183,350,o),
(183,440,cs),
(183,608,ls),
(183,657,o),
(203,669,o),
(227,669,cs),
(249,669,l),
(249,714,l),
(24,714,l),
(24,669,l),
(45,669,ls),
(66,669,o),
(89,657,o),
(89,608,cs),
(89,438,ls),
(89,335,o),
(131,256,o),
(240,241,c),
(240,0,l),
(334,0,l),
(334,241,l),
(425,255,o),
(484,317,o),
(484,456,cs),
(484,608,ls),
(484,657,o),
(504,669,o),
(529,669,cs),
(550,669,l),
(550,714,l),
(325,714,l)
);
}
);
width = 565;
},
{
layerId = m008;
shapes = (
{
closed = 1;
nodes = (
(355,658,l),
(359,658,ls),
(383,658,o),
(397,643,o),
(397,601,cs),
(397,450,ls),
(397,339,o),
(378,304,o),
(324,304,cs),
(281,304,o),
(256,341,o),
(256,426,cs),
(256,600,ls),
(256,643,o),
(265,658,o),
(291,658,cs),
(297,658,l),
(297,714,l),
(30,714,l),
(30,658,l),
(44,658,ls),
(68,658,o),
(86,643,o),
(86,601,cs),
(86,424,ls),
(86,329,o),
(127,260,o),
(242,238,c),
(242,0,l),
(412,0,l),
(412,239,l),
(508,262,o),
(567,331,o),
(567,458,cs),
(567,600,ls),
(567,643,o),
(576,658,o),
(606,658,cs),
(622,658,l),
(622,714,l),
(355,714,l)
);
}
);
width = 645;
}
);
note = uni10C4;
unicode = 4292;
}
{
glyphname = "Hoe-oldgeorgian";
kernRight = "Cil-oldgeorgian";
layers = (
{
layerId = m001;
shapes = (
{
closed = 1;
nodes = (
(253,-10,o),
(308,37,o),
(308,165,cs),
(308,235,l),
(431,235,l),
(497,235,o),
(525,212,o),
(525,154,c),
(544,154,o),
(555,165,o),
(555,184,cs),
(555,233,o),
(518,260,o),
(434,260,c),
(308,260,l),
(308,344,l),
(408,344,ls),
(583,344,o),
(642,429,o),
(642,538,cs),
(642,649,o),
(580,714,o),
(430,714,cs),
(181,714,l),
(181,694,l),
(224,694,ls),
(274,694,o),
(280,683,o),
(280,606,cs),
(280,260,l),
(211,260,ls),
(97,260,o),
(28,224,o),
(28,125,cs),
(28,33,o),
(78,-10,o),
(160,-10,cs)
);
},
{
closed = 1;
nodes = (
(92,15,o),
(56,58,o),
(56,125,cs),
(56,208,o),
(109,235,o),
(211,235,cs),
(280,235,l),
(280,165,ls),
(280,65,o),
(235,15,o),
(160,15,cs)
);
},
{
closed = 1;
nodes = (
(308,689,l),
(430,689,ls),
(561,689,o),
(614,634,o),
(614,537,cs),
(614,446,o),
(569,369,o),
(407,369,cs),
(308,369,l)
);
}
);
width = 693;
},
{
layerId = m002;
shapes = (
{
closed = 1;
nodes = (
(302,-10,o),
(360,50,o),
(360,154,cs),
(360,225,l),
(430,225,ls),
(504,225,o),
(537,177,o),
(537,81,c),
(584,81,o),
(615,105,o),
(615,150,cs),
(615,235,o),
(552,273,o),
(438,273,cs),
(360,273,l),
(360,338,l),
(423,338,ls),
(593,338,o),
(691,409,o),
(691,534,cs),
(691,651,o),
(605,714,o),
(445,714,cs),
(164,714,l),
(164,672,l),
(177,672,ls),
(228,672,o),
(259,659,o),
(259,604,cs),
(259,273,l),
(203,273,ls),
(90,273,o),
(18,219,o),
(18,132,cs),
(18,46,o),
(74,-10,o),
(179,-10,cs)
);
},
{
closed = 1;
nodes = (
(134,37,o),
(109,74,o),
(109,130,cs),
(109,184,o),
(148,225,o),
(203,225,cs),
(259,225,l),
(259,151,ls),
(259,81,o),
(235,37,o),
(178,37,cs)
);
},
{
closed = 1;
nodes = (
(360,666,l),
(428,666,ls),
(536,666,o),
(583,626,o),
(583,530,cs),
(583,426,o),
(536,385,o),
(413,385,cs),
(360,385,l)
);
}
);
width = 731;
},
{
layerId = m004;
shapes = (
{
closed = 1;
nodes = (
(381,-14,o),
(496,39,o),
(496,161,cs),
(496,212,l),
(550,212,l),
(606,212,o),
(630,191,o),
(630,97,c),
(717,97,o),
(762,136,o),
(762,190,cs),
(762,251,o),
(700,282,o),
(605,282,c),
(496,282,l),
(496,347,l),
(518,347,ls),
(755,347,o),
(843,428,o),
(843,538,cs),
(843,655,o),
(748,714,o),
(540,714,cs),
(204,714,l),
(204,653,l),
(249,653,ls),
(271,653,o),
(296,646,o),
(296,597,cs),
(296,282,l),
(233,282,ls),
(87,282,o),
(12,239,o),
(12,135,cs),
(12,47,o),
(94,-14,o),
(249,-14,cs)
);
},
{
closed = 1;
nodes = (
(218,57,o),
(212,102,o),
(212,135,cs),
(212,187,o),
(226,212,o),
(267,212,cs),
(296,212,l),
(296,166,ls),
(296,96,o),
(291,57,o),
(251,57,cs)
);
},
{
closed = 1;
nodes = (
(495,647,l),
(523,647,ls),
(599,647,o),
(635,611,o),
(635,534,cs),
(635,448,o),
(596,413,o),
(509,413,cs),
(495,413,l)
);
}
);
width = 846;
},
{
layerId = m005;
shapes = (
{
closed = 1;
nodes = (
(206,-10,o),
(251,32,o),
(251,133,cs),
(251,225,l),
(333,225,l),
(384,225,o),
(411,210,o),
(411,144,c),
(428,144,o),
(438,155,o),
(438,174,cs),
(438,233,o),
(392,250,o),
(343,250,c),
(251,250,l),
(251,334,l),
(321,334,ls),
(463,334,o),
(507,428,o),
(507,533,cs),
(507,653,o),
(453,714,o),
(331,714,cs),
(150,714,l),
(150,694,l),
(167,694,ls),
(217,694,o),
(223,683,o),
(223,606,cs),
(223,250,l),
(166,250,ls),
(77,250,o),
(20,212,o),
(20,120,cs),
(20,31,o),
(70,-10,o),
(134,-10,cs)
);
},
{
closed = 1;
nodes = (
(75,15,o),
(47,56,o),
(47,120,cs),
(47,195,o),
(93,225,o),
(166,225,cs),
(223,225,l),
(223,131,ls),
(223,46,o),
(188,15,o),
(134,15,cs)
);
},
{
closed = 1;
nodes = (
(251,689,l),
(331,689,ls),
(439,689,o),
(479,635,o),
(479,533,cs),
(479,448,o),
(447,359,o),
(324,359,cs),
(251,359,l)
);
}
);
width = 547;
},
{
layerId = m006;
shapes = (
{
closed = 1;
nodes = (
(258,-12,o),
(318,39,o),
(318,124,cs),
(318,215,l),
(377,215,ls),
(434,215,o),
(462,196,o),
(462,116,c),
(505,116,o),
(529,143,o),
(529,178,cs),
(529,245,o),
(473,264,o),
(393,264,cs),
(318,264,l),
(318,329,l),
(364,329,ls),
(527,329,o),
(585,422,o),
(585,530,cs),
(585,646,o),
(521,714,o),
(382,714,cs),
(151,714,l),
(151,673,l),
(167,673,ls),
(200,673,o),
(226,664,o),
(226,605,cs),
(226,264,l),
(177,264,ls),
(66,264,o),
(14,220,o),
(14,128,cs),
(14,46,o),
(70,-12,o),
(162,-12,cs)
);
},
{
closed = 1;
nodes = (
(120,38,o),
(100,70,o),
(100,129,cs),
(100,183,o),
(122,215,o),
(180,215,cs),
(225,215,l),
(225,129,ls),
(225,63,o),
(202,38,o),
(162,38,cs)
);
},
{
closed = 1;
nodes = (
(318,667,l),
(369,667,ls),
(454,667,o),
(488,622,o),
(488,526,cs),
(488,417,o),
(450,375,o),
(357,375,cs),
(318,375,l)
);
}
);
width = 608;
},
{
layerId = m008;
shapes = (
{
closed = 1;
nodes = (
(333,-14,o),
(413,42,o),
(413,130,cs),
(413,199,l),
(440,199,ls),
(496,199,o),
(528,182,o),
(528,93,c),
(603,93,o),
(642,121,o),
(642,172,cs),
(642,239,o),
(582,263,o),
(471,263,cs),
(413,263,l),
(413,319,l),
(431,319,ls),
(628,319,o),
(702,408,o),
(702,524,cs),
(702,650,o),
(623,714,o),
(449,714,cs),
(169,714,l),
(169,658,l),
(206,658,ls),
(225,658,o),
(245,651,o),
(245,599,cs),
(245,263,l),
(202,263,ls),
(90,263,o),
(10,229,o),
(10,132,cs),
(10,38,o),
(64,-14,o),
(201,-14,cs)
);
},
{
closed = 1;
nodes = (
(175,49,o),
(162,71,o),
(162,124,cs),
(162,175,o),
(176,199,o),
(216,199,cs),
(245,199,l),
(245,131,ls),
(245,66,o),
(228,49,o),
(200,49,cs)
);
},
{
closed = 1;
nodes = (
(412,652,l),
(435,652,ls),
(498,652,o),
(528,610,o),
(528,520,cs),
(528,420,o),
(496,380,o),
(423,380,cs),
(412,380,l)
);
}
);
width = 704;
}
);
note = uni10C5;
unicode = 4293;
}
{
glyphname = "Yn-oldgeorgian";
layers = (
{
layerId = m001;
shapes = (
{
closed = 1;
nodes = (
(356,-10,o),
(415,59,o),
(415,126,cs),
(415,150,o),
(408,166,o),
(394,166,c),
(394,66,o),
(335,15,o),
(229,15,cs),
(126,15,o),
(81,78,o),
(81,168,cs),
(81,249,o),
(127,293,o),
(241,357,cs),
(348,417,o),
(390,458,o),
(390,559,cs),
(390,650,o),
(323,724,o),
(218,724,cs),
(126,724,o),
(61,675,o),
(61,614,cs),
(61,589,o),
(68,575,o),
(82,575,c),
(82,661,o),
(132,699,o),
(219,699,cs),
(314,699,o),
(362,636,o),
(362,554,cs),
(362,469,o),
(315,433,o),
(231,384,cs),
(140,331,o),
(53,286,o),
(53,169,cs),
(53,67,o),
(111,-10,o),
(229,-10,cs)
);
}
);
width = 490;
},
{
layerId = m002;
shapes = (
{
closed = 1;
nodes = (
(420,-12,o),
(496,40,o),
(496,131,cs),
(496,171,o),
(470,198,o),
(424,198,c),
(419,95,o),
(370,37,o),
(289,37,cs),
(199,37,o),
(146,81,o),
(146,165,cs),
(146,236,o),
(182,272,o),
(301,321,cs),
(432,375,o),
(485,439,o),
(485,543,cs),
(485,656,o),
(397,726,o),
(266,726,cs),
(172,726,o),
(79,687,o),
(79,612,cs),
(79,569,o),
(109,547,o),
(158,547,c),
(158,627,o),
(200,676,o),
(270,676,cs),
(346,676,o),
(392,631,o),
(392,560,cs),
(392,482,o),
(358,447,o),
(237,398,cs),
(102,343,o),
(51,282,o),
(51,191,cs),
(51,64,o),
(144,-12,o),
(297,-12,cs)
);
}
);
width = 544;
},
{
layerId = m003;
shapes = (
{
closed = 1;
nodes = (
(447,-13,o),
(556,32,o),
(556,130,cs),
(556,188,o),
(514,223,o),
(443,223,c),
(443,116,o),
(392,47,o),
(306,47,cs),
(232,47,o),
(182,94,o),
(182,158,cs),
(182,234,o),
(252,266,o),
(349,305,cs),
(480,358,o),
(536,419,o),
(536,523,cs),
(536,647,o),
(453,727,o),
(291,727,cs),
(158,727,o),
(78,675,o),
(78,608,cs),
(78,558,o),
(125,525,o),
(201,525,c),
(201,610,o),
(238,666,o),
(307,666,cs),
(367,666,o),
(406,626,o),
(406,571,cs),
(406,497,o),
(341,461,o),
(241,421,cs),
(105,367,o),
(50,307,o),
(50,209,cs),
(50,60,o),
(162,-13,o),
(303,-13,cs)
);
}
);
width = 586;
},
{
layerId = m004;
shapes = (
{
closed = 1;
nodes = (
(536,-14,o),
(581,78,o),
(581,129,cs),
(581,218,o),
(515,241,o),
(448,241,c),
(448,105,o),
(369,54,o),
(299,54,cs),
(229,54,o),
(189,107,o),
(189,153,cs),
(189,217,o),
(257,249,o),
(365,293,cs),
(517,355,o),
(559,429,o),
(559,518,cs),
(559,648,o),
(464,728,o),
(290,728,cs),
(128,728,o),
(58,659,o),
(58,598,cs),
(58,548,o),
(96,509,o),
(203,509,c),
(203,576,o),
(243,659,o),
(314,659,cs),
(363,659,o),
(402,632,o),
(402,579,cs),
(402,539,o),
(374,498,o),
(225,438,cs),
(73,377,o),
(30,307,o),
(30,212,cs),
(30,82,o),
(132,-14,o),
(291,-14,cs)
);
}
);
width = 605;
},
{
layerId = m005;
shapes = (
{
closed = 1;
nodes = (
(293,-10,o),
(334,64,o),
(334,124,cs),
(334,140,o),
(331,168,o),
(315,168,c),
(311,88,o),
(277,15,o),
(192,15,cs),
(113,15,o),
(70,65,o),
(70,163,cs),
(70,264,o),
(106,296,o),
(195,353,cs),
(264,397,o),
(319,447,o),
(319,565,cs),
(319,653,o),
(269,724,o),
(180,724,cs),
(99,724,o),
(55,664,o),
(55,614,cs),
(55,584,o),
(65,573,o),
(76,573,c),
(76,648,o),
(112,699,o),
(180,699,cs),
(255,699,o),
(291,638,o),
(291,557,cs),
(291,463,o),
(255,425,o),
(178,376,cs),
(104,329,o),
(42,284,o),
(42,172,cs),
(42,54,o),
(93,-10,o),
(193,-10,cs)
);
}
);
width = 382;
},
{
layerId = m006;
shapes = (
{
closed = 1;
nodes = (
(344,-12,o),
(399,46,o),
(399,126,cs),
(399,169,o),
(373,195,o),
(335,195,c),
(330,99,o),
(286,34,o),
(217,34,cs),
(148,34,o),
(112,81,o),
(112,160,cs),
(112,243,o),
(157,279,o),
(243,328,cs),
(337,382,o),
(383,439,o),
(383,548,cs),
(383,653,o),
(313,726,o),
(212,726,cs),
(108,726,o),
(51,666,o),
(51,611,cs),
(51,568,o),
(75,549,o),
(120,549,c),
(120,617,o),
(153,679,o),
(217,679,cs),
(277,679,o),
(306,630,o),
(306,559,cs),
(306,487,o),
(277,452,o),
(182,401,cs),
(85,349,o),
(34,294,o),
(34,187,cs),
(34,58,o),
(106,-12,o),
(219,-12,cs)
);
}
);
width = 435;
},
{
layerId = m007;
shapes = (
{
closed = 1;
nodes = (
(402,-13,o),
(447,59,o),
(447,127,cs),
(447,189,o),
(405,214,o),
(357,214,c),
(354,102,o),
(298,42,o),
(235,42,cs),
(172,42,o),
(139,92,o),
(139,157,cs),
(139,232,o),
(188,267,o),
(278,313,cs),
(391,371,o),
(430,435,o),
(430,536,cs),
(430,649,o),
(356,727,o),
(237,727,cs),
(106,727,o),
(50,663,o),
(50,606,cs),
(50,560,o),
(78,533,o),
(148,533,c),
(148,600,o),
(180,671,o),
(242,671,cs),
(290,671,o),
(322,631,o),
(322,567,cs),
(322,508,o),
(296,471,o),
(185,417,cs),
(71,361,o),
(29,299,o),
(29,198,cs),
(29,63,o),
(101,-13,o),
(242,-13,cs)
);
}
);
width = 475;
},
{
layerId = m008;
shapes = (
{
closed = 1;
nodes = (
(447,-14,o),
(484,70,o),
(484,128,cs),
(484,205,o),
(429,229,o),
(373,229,c),
(373,104,o),
(307,48,o),
(248,48,cs),
(190,48,o),
(158,100,o),
(158,155,cs),
(158,224,o),
(214,258,o),
(305,302,cs),
(431,363,o),
(466,432,o),
(466,526,cs),
(466,646,o),
(390,728,o),
(256,728,cs),
(106,728,o),
(48,661,o),
(48,601,cs),
(48,553,o),
(79,519,o),
(169,519,c),
(169,586,o),
(202,665,o),
(261,665,cs),
(302,665,o),
(334,632,o),
(334,574,cs),
(334,526,o),
(311,486,o),
(187,429,cs),
(60,370,o),
(24,304,o),
(24,206,cs),
(24,67,o),
(97,-14,o),
(258,-14,cs)
);
}
);
width = 504;
}
);
unicode = 4295;
}
{
glyphname = "Aen-oldgeorgian";
layers = (
{
layerId = m001;
shapes = (
{
closed = 1;
nodes = (
(453,0,l),
(458,135,l),
(438,135,l),
(436,93,ls),
(433,39,o),
(427,25,o),
(375,25,cs),
(62,25,l),
(450,685,l),
(450,714,l),
(52,714,l),
(47,579,l),
(67,579,l),
(69,620,ls),
(72,675,o),
(78,689,o),
(130,689,cs),
(420,689,l),
(28,22,l),
(28,0,l)
);
}
);
width = 498;
},
{
layerId = m002;
shapes = (
{
closed = 1;
nodes = (
(545,0,l),
(550,175,l),
(498,175,l),
(493,132,ls),
(488,88,o),
(470,50,o),
(410,50,cs),
(158,50,l),
(534,673,l),
(534,714,l),
(60,714,l),
(55,539,l),
(107,539,l),
(112,582,ls),
(117,626,o),
(135,664,o),
(194,664,cs),
(411,664,l),
(36,40,l),
(36,0,l)
);
}
);
width = 592;
},
{
layerId = m003;
shapes = (
{
closed = 1;
nodes = (
(617,0,l),
(622,206,l),
(550,206,l),
(545,161,l),
(540,111,o),
(522,61,o),
(440,61,cs),
(224,61,l),
(600,663,l),
(600,714,l),
(66,714,l),
(61,508,l),
(133,508,l),
(138,562,ls),
(143,617,o),
(157,653,o),
(220,653,c),
(417,653,l),
(42,50,l),
(42,0,l)
);
}
);
width = 666;
},
{
layerId = m004;
shapes = (
{
closed = 1;
nodes = (
(670,0,l),
(675,229,l),
(588,229,l),
(583,182,ls),
(577,128,o),
(560,69,o),
(462,69,cs),
(272,69,l),
(648,656,l),
(648,714,l),
(70,714,l),
(65,485,l),
(152,485,l),
(157,547,ls),
(162,610,o),
(173,645,o),
(239,645,cs),
(421,645,l),
(46,57,l),
(46,0,l)
);
}
);
width = 721;
},
{
layerId = m005;
shapes = (
{
closed = 1;
nodes = (
(358,0,l),
(361,139,l),
(341,139,l),
(339,93,ls),
(337,39,o),
(332,25,o),
(280,25,cs),
(54,25,l),
(354,693,l),
(354,714,l),
(41,714,l),
(37,576,l),
(57,576,l),
(58,620,ls),
(59,675,o),
(67,689,o),
(119,689,cs),
(322,689,l),
(22,22,l),
(22,0,l)
);
}
);
width = 391;
},
{
layerId = m006;
shapes = (
{
closed = 1;
nodes = (
(446,0,l),
(449,172,l),
(405,172,l),
(401,129,ls),
(397,85,o),
(382,49,o),
(330,49,cs),
(133,49,l),
(436,674,l),
(436,714,l),
(48,714,l),
(44,543,l),
(90,543,l),
(93,585,ls),
(96,628,o),
(110,665,o),
(159,665,cs),
(330,665,l),
(29,39,l),
(29,0,l)
);
}
);
width = 483;
},
{
layerId = m007;
shapes = (
{
closed = 1;
nodes = (
(509,0,l),
(513,196,l),
(453,196,l),
(449,151,ls),
(445,103,o),
(429,57,o),
(361,57,cs),
(186,57,l),
(495,667,l),
(495,714,l),
(54,714,l),
(50,518,l),
(111,518,l),
(115,569,ls),
(119,620,o),
(129,657,o),
(182,657,cs),
(342,657,l),
(34,46,l),
(34,0,l)
);
}
);
width = 549;
},
{
layerId = m008;
shapes = (
{
closed = 1;
nodes = (
(559,0,l),
(563,214,l),
(490,214,l),
(486,169,ls),
(481,117,o),
(467,64,o),
(385,64,cs),
(227,64,l),
(541,661,l),
(541,714,l),
(59,714,l),
(54,500,l),
(127,500,l),
(131,557,ls),
(135,614,o),
(144,650,o),
(200,650,cs),
(351,650,l),
(38,52,l),
(38,0,l)
);
}
);
width = 601;
}
);
unicode = 4301;
}
{
glyphname = "an-georgian";
kernLeft = "an-georgian";
kernRight = "an-georgian";
layers = (
{
anchors = (
{
name = top;
pos = (241,536);
}
);
layerId = m001;
shapes = (
{
closed = 1;
nodes = (
(347,-10,o),
(437,56,o),
(437,178,cs),
(437,275,o),
(384,325,o),
(336,370,cs),
(296,407,o),
(261,441,o),
(261,494,cs),
(261,514,o),
(266,530,o),
(276,540,c),
(273,544,o),
(268,546,o),
(263,546,cs),
(245,546,o),
(233,519,o),
(233,494,cs),
(233,427,o),
(276,391,o),
(318,350,cs),
(363,307,o),
(409,263,o),
(409,178,cs),
(409,78,o),
(335,15,o),
(247,15,cs),
(168,15,o),
(89,67,o),
(89,178,cs),
(89,214,o),
(98,245,o),
(114,267,c),
(111,270,o),
(108,271,o),
(105,271,cs),
(82,271,o),
(60,229,o),
(60,174,cs),
(60,56,o),
(147,-10,o),
(247,-10,cs)
);
}
);
userData = {
com.schriftgestaltung.Glyphs.glyph.leftMetricsKey = "=in-georgian-5";
com.schriftgestaltung.Glyphs.glyph.rightMetricsKey = "in-georgian";
};
width = 502;
},
{
anchors = (
{
name = top;
pos = (269,536);
}
);
layerId = m002;
shapes = (
{
closed = 1;
nodes = (
(392,-12,o),
(482,61,o),
(482,180,cs),
(482,287,o),
(419,335,o),
(367,379,cs),
(331,410,o),
(300,439,o),
(300,486,cs),
(300,506,o),
(305,523,o),
(314,536,c),
(306,543,o),
(292,548,o),
(273,548,cs),
(239,548,o),
(218,526,o),
(218,486,cs),
(218,417,o),
(259,380,o),
(301,340,cs),
(343,300,o),
(385,258,o),
(385,180,cs),
(385,94,o),
(342,41,o),
(266,41,cs),
(191,41,o),
(145,92,o),
(145,168,cs),
(145,206,o),
(150,230,o),
(167,262,c),
(153,271,o),
(139,275,o),
(127,275,cs),
(78,275,o),
(50,220,o),
(50,167,cs),
(50,59,o),
(140,-12,o),
(266,-12,cs)
);
}
);
userData = {
com.schriftgestaltung.Glyphs.glyph.leftMetricsKey = "=in-georgian-5";
com.schriftgestaltung.Glyphs.glyph.rightMetricsKey = "in-georgian";
};
width = 537;
},
{
anchors = (
{
name = top;
pos = (298,536);
}
);
layerId = m004;
shapes = (
{
closed = 1;
nodes = (
(439,-14,o),
(553,59,o),
(553,178,cs),
(553,275,o),
(490,327,o),
(437,373,cs),
(398,406,o),
(365,437,o),
(365,479,cs),
(365,494,o),
(368,510,o),
(375,528,c),
(356,542,o),
(332,550,o),
(295,550,cs),
(238,550,o),
(202,515,o),
(202,465,cs),
(202,404,o),
(246,358,o),
(286,317,cs),
(322,281,o),
(356,241,o),
(356,170,cs),
(356,98,o),
(338,57,o),
(291,57,cs),
(246,57,o),
(226,98,o),
(226,170,cs),
(226,206,o),
(231,235,o),
(241,261,c),
(216,275,o),
(183,285,o),
(152,285,cs),
(91,285,o),
(37,242,o),
(37,167,cs),
(37,73,o),
(105,-14,o),
(291,-14,cs)
);
}
);
userData = {
com.schriftgestaltung.Glyphs.glyph.leftMetricsKey = "=in-georgian-5";
com.schriftgestaltung.Glyphs.glyph.rightMetricsKey = "in-georgian";
};
width = 595;
},
{
anchors = (
{
name = top;
pos = (194,536);
}
);
layerId = m005;
shapes = (
{
closed = 1;
nodes = (
(276,-10,o),
(340,44,o),
(340,174,cs),
(340,276,o),
(293,327,o),
(256,369,cs),
(222,407,o),
(202,442,o),
(202,494,cs),
(202,515,o),
(209,533,o),
(217,542,c),
(214,545,o),
(211,546,o),
(206,546,cs),
(188,546,o),
(174,523,o),
(174,493,cs),
(174,428,o),
(205,390,o),
(237,350,cs),
(273,305,o),
(312,259,o),
(312,174,cs),
(312,66,o),
(263,15,o),
(191,15,cs),
(126,15,o),
(72,59,o),
(72,158,cs),
(72,207,o),
(83,231,o),
(94,248,c),
(91,250,o),
(88,251,o),
(85,251,cs),
(67,251,o),
(43,222,o),
(43,158,cs),
(43,42,o),
(108,-10,o),
(191,-10,cs)
);
}
);
userData = {
com.schriftgestaltung.Glyphs.glyph.leftMetricsKey = "=in-georgian-5";
com.schriftgestaltung.Glyphs.glyph.rightMetricsKey = "in-georgian";
};
width = 388;
},
{
anchors = (
{
name = top;
pos = (216,536);
}
);
layerId = m006;
shapes = (
{
closed = 1;
nodes = (
(310,-12,o),
(389,53,o),
(389,161,cs),
(389,269,o),
(338,319,o),
(297,364,cs),
(270,394,o),
(247,423,o),
(247,472,cs),
(247,495,o),
(254,520,o),
(264,533,c),
(255,542,o),
(244,548,o),
(225,548,cs),
(190,548,o),
(168,517,o),
(168,481,cs),
(168,411,o),
(198,376,o),
(229,340,cs),
(264,300,o),
(300,258,o),
(300,165,cs),
(300,88,o),
(267,39,o),
(210,39,cs),
(155,39,o),
(123,90,o),
(123,158,cs),
(123,198,o),
(129,225,o),
(141,252,c),
(128,258,o),
(119,261,o),
(108,261,cs),
(63,261,o),
(37,216,o),
(37,155,cs),
(37,56,o),
(114,-12,o),
(210,-12,cs)
);
}
);
userData = {
com.schriftgestaltung.Glyphs.glyph.leftMetricsKey = "=in-georgian-5";
com.schriftgestaltung.Glyphs.glyph.rightMetricsKey = "in-georgian";
};
width = 431;
},
{
anchors = (
{
name = top;
pos = (255,536);
}
);
layerId = m008;
shapes = (
{
closed = 1;
nodes = (
(370,-14,o),
(468,49,o),
(468,178,cs),
(468,273,o),
(420,321,o),
(378,366,cs),
(346,401,o),
(316,433,o),
(316,483,cs),
(316,499,o),
(320,517,o),
(328,531,c),
(313,543,o),
(295,550,o),
(264,550,cs),
(211,550,o),
(174,515,o),
(174,465,cs),
(174,400,o),
(206,363,o),
(237,325,cs),
(269,285,o),
(302,245,o),
(302,170,cs),
(302,94,o),
(285,53,o),
(245,53,cs),
(208,53,o),
(192,94,o),
(192,170,cs),
(192,199,o),
(195,229,o),
(205,254,c),
(185,268,o),
(158,275,o),
(138,275,cs),
(76,275,o),
(29,232,o),
(29,157,cs),
(29,83,o),
(71,-14,o),
(246,-14,cs)
);
}
);
userData = {
com.schriftgestaltung.Glyphs.glyph.leftMetricsKey = "=in-georgian-5";
com.schriftgestaltung.Glyphs.glyph.rightMetricsKey = "in-georgian";
};
width = 502;
}
);
note = uni10D0;
unicode = 4304;
}
